<?xml version="1.0" encoding="UTF-8" standalone="no"?><!DOCTYPE svg PUBLIC "-//W3C//DTD SVG 1.1//EN" "http://www.w3.org/Graphics/SVG/1.1/DTD/svg11.dtd"><svg width="100%" height="100%" viewBox="0 0 8334 8334" version="1.1" xmlns="http://www.w3.org/2000/svg" xmlns:xlink="http://www.w3.org/1999/xlink" xml:space="preserve" xmlns:serif="http://www.serif.com/" style="fill-rule:evenodd;clip-rule:evenodd;stroke-linejoin:round;stroke-miterlimit:2;"><rect id="Page-5" serif:id="Page 5" x="0" y="0" width="8333.33" height="8333.33" style="fill:none;"/><g id="Layer-1" serif:id="Layer 1"><path d="M4644.37,922.324c73.312,30.275 148.058,56.571 198.246,125.35c60.995,83.591 138.491,154.754 197.912,238.312c33.483,47.138 53.621,109.188 75.008,167.1c24.125,65.338 18.15,143.704 61.167,196.196c42.429,51.796 50.792,109.1 70.313,166.725c25.12,74.154 20.187,149.608 27.533,224.729c11.791,120.571 49.716,237.704 47.016,360.446c-2.029,92.033 -14.374,181.983 -35.895,271.671c-27.454,114.412 -45.3,231.171 -74.013,345.229c-16.721,66.425 -47.137,129.338 -70.187,194.258c-6.371,17.959 -23.479,33.705 -13.859,58.167c22.613,1.979 28.205,-18.017 38.38,-30.792c19.275,-24.187 35.65,-51.366 70.533,-56.104c14.267,-1.937 20.533,-11.346 24.583,-25.366c19.275,-66.638 69.75,-125.888 46.913,-202.317c60.329,-103.483 31.816,-221.558 52.454,-331.854c13.371,-71.475 27.687,-143.929 33.837,-217.525c3.996,-47.817 30.225,-93.117 55.546,-135.313c7.679,-12.783 21.713,-24.725 46.754,-18.262c-66.75,92.325 -61.466,199.941 -76.691,303.112c-19.088,129.338 -47.979,257.6 -59.679,387.496c-6.605,73.404 -36.888,136.35 -55.58,204.233c-3.387,12.325 -11.32,24.188 -0.545,35.509c11.687,12.316 26.491,10.287 40.583,4.608c6.683,-2.687 13.575,-6.3 18.708,-11.221c127.838,-122.875 296.021,-175.321 447.525,-256.962c100.263,-54.025 211.309,-86.909 303.642,-156.65c16.812,-12.7 27.15,-28.629 39.458,-44.192c6.654,-8.412 13.738,-26.625 29.025,-13.017c9.446,8.409 3.175,20.634 -4.258,29.3c-33.329,38.88 -68.546,76.396 -113.217,101.984c-117.804,67.458 -238.1,131.275 -363.662,182.066c-70.492,28.517 -135.1,68.146 -203.759,99.425c-65.104,29.638 -135.679,72.159 -155.583,159.288c-7.733,33.846 -38.075,62.537 -54.596,97.017c57.375,-21.013 103.234,-59.963 144.2,-100.067c43,-42.108 93.8,-67.804 143.554,-97.279c97.4,-57.7 194.796,-116.075 293.871,-170.304c147.113,-80.571 301.559,-141.78 474.617,-153.73c94.596,-6.533 186.171,-49.137 280.629,-67.866c77.525,-15.379 155.992,-28.021 237.096,-14.425c43.362,7.262 89.029,6.35 134.704,-0.375c73.271,-10.788 148.271,0.933 221.529,-1.554c141.859,-4.83 257.359,77.533 390.346,100.891c87.642,15.388 156.988,78.709 188.338,161.529c17.837,47.096 17.245,111.775 -8.221,159.438c-36.696,68.717 -78.284,141.471 -142.779,184.958c-90.296,60.875 -151.121,151.463 -235.3,214.184c-62.821,46.825 -145.175,72.554 -222.709,92.916c-63.154,16.588 -117.425,47.067 -173.966,74.925c-68.242,33.634 -133.821,68.496 -191.055,123.525c-41.091,39.509 -95.45,68.879 -142.225,105.517c-61.195,47.917 -125.562,91.796 -188.708,137.187c-13.117,9.417 -26.442,24.442 -40.583,25.6c-97.4,7.934 -181.417,52.434 -265.117,95.996c-85.783,44.642 -151.65,-11.058 -223.083,-38.229c-21.571,-8.196 -38.779,-27.2 -59.354,-38.846c-36.313,-20.533 -62.171,-4.962 -58.45,36.575c8.745,97.725 16.233,195.813 30.875,292.704c9.637,63.684 -0.346,115.571 -51.742,156.346c-21.308,16.942 -31.454,37.925 -32.692,65.804c-5.071,110.284 -62.954,187.292 -167.821,222.092c-51.07,16.942 -82.525,45.858 -93.591,101.721c-21.634,109.167 -91.971,152.862 -201.842,130.158c-23.254,-4.808 -40.217,0.163 -50.15,21.213c-38.675,82.008 -120.854,105.904 -192.371,143.054c-31.3,16.233 -41.7,-15.358 -49.004,-35.154c-14.042,-38.096 -33.908,-40.034 -66.779,-22.929c-27.179,14.145 -57.404,22.595 -86.554,32.762c-36.867,12.854 -80.221,-11.433 -83.946,-51.421c-3.367,-36.129 -22.663,-54.104 -51.692,-70.379c-69.679,-39.071 -89.608,-87.842 -55.883,-159.571c32.467,-69.133 48.833,-143.929 83.896,-212.046c21.804,-42.379 2.679,-89.345 -5,-133.395c-3.575,-20.475 -4.496,-38.13 1.45,-58.33c23.516,-79.945 23.833,-162.687 29.725,-245.1c3.3,-45.991 22.758,-91.241 37.691,-135.95c25.992,-77.766 8.95,-163.125 45.921,-236.295c-7.287,-8.917 -12.55,-5.142 -15.221,-1.5c-77.429,106.02 -185.454,185.85 -257.241,296.154c-73.567,113.021 -182.521,190.816 -274.3,285.641c-18.459,19.071 -43.863,31.888 -69.063,16.009c-27.516,-17.35 -29.229,-49.225 -15.35,-73.575c56.529,-99.188 87.038,-211.113 157.775,-303.784c68.334,-89.516 131.65,-183.12 171.921,-290.42c11.079,-29.505 35.804,-53.884 51.579,-84.138c-34.779,16.729 -67.704,35.825 -101.083,52.988c-103.108,53.033 -203.317,111.866 -303.233,170.854c-93.83,55.408 -194.3,92.866 -298.955,121.021c-71.304,19.183 -118.866,75.379 -176.2,116.195c-28.175,20.059 -53.275,44.45 -81.633,64.205c-55.271,38.491 -108.092,37.537 -161.033,-3.521c-25.95,-20.142 -48.575,-32.029 -84.209,-19.867c-39.566,13.496 -75.166,-16.758 -78.537,-59.617c-1.421,-18.108 -0.283,-36.525 0.771,-54.695c2.65,-45.484 9.133,-90.142 -62.904,-82.9c-24.825,2.495 -33.613,-21.438 -35.509,-50.434c-5.071,-77.108 32.467,-136.966 70.667,-196.604c17.337,-27.029 21.142,-43.512 -4.171,-69.529c-32.204,-33.092 -23.337,-129.863 9.863,-161.821c18.258,-17.654 36.716,-38.312 59.229,-47.9c64.771,-27.567 80.05,-73.412 72.937,-140.212c-8.758,-82.334 46.85,-153.305 125.359,-184.409c40.929,-16.233 82.395,-33.541 96.112,-86.462c10.146,-39.242 34.496,-53.446 66.292,-10.817c34.496,46.338 80.575,59.292 135.666,37.083c9.409,-3.791 21.309,-3.245 31.83,-2.15c67.091,7.009 83.691,-2.741 101.233,-67.316c5.254,-19.359 10.45,-32.984 32.65,-36.679c27.117,-4.505 39.871,-24.409 42.846,-50.088c1.854,-15.979 6.379,-25.975 23.616,-31.796c42.45,-14.337 31.646,-45.816 7.013,-60.479c-48.7,-28.987 -51.075,-63.492 -25.438,-105.517c32.134,-52.695 0.755,-89.82 -31.187,-123.095c-24.704,-25.742 -36.888,-46.367 -27.117,-84.842c14.709,-57.908 -14.783,-106.588 -55.316,-145.821c-15.217,-14.692 -27.109,-31.767 -17.534,-46.487c32.267,-49.584 24.9,-111.35 53.825,-161.096c13.188,-22.663 19.196,-46.742 21.05,-72.684c1.15,-16.141 2.029,-33.775 9.05,-47.787c66.638,-133.921 77.109,-284.404 126.367,-423.338c9.275,-26.175 -4.279,-50.162 -5.883,-75.291c-5.217,-81.838 10.458,-162.334 14.729,-243.559c2.029,-38.958 30.775,-72.237 45.546,-108.933c53.195,-132.3 113.216,-261.933 213.995,-367.754c37.15,-38.979 87.405,-49.004 131.963,-71.729l65.796,-0Z" style="fill-rule:nonzero;"/><path d="M524.199,5041.69c49.217,-44.642 94.071,-94.955 161.988,-122.6c-71.842,87.487 -29.425,185.441 -29.738,278.254c-0.275,94.141 11.85,188.325 24.479,283.562c72.655,-136.071 105.834,-287.416 178.384,-437.654c33.479,103.829 62.558,194.158 96.121,298.283c36.045,-72.187 44.408,-135.608 61.095,-195.962c34.496,-124.621 65.646,-250.175 96.6,-375.729c5.955,-24.146 21.742,-50.209 -11.729,-72.946c-18.008,-12.225 0.438,-30.317 14.275,-37.967c28.629,-15.816 58.6,-29.287 88.479,-42.721c12.175,-5.458 27.588,-20.17 37.925,-1.737c8.542,15.221 -6.491,28.529 -17.541,36.271c-37.538,26.379 -48.454,65.462 -59.392,106.733c-51.746,195.346 -105.85,390.075 -156.712,585.65c-5.517,21.175 -33.259,53.35 19.279,68.092c23.921,6.716 1.329,32.179 -12.442,40.691c-24.654,15.221 -51.629,27.13 -78.558,38.188c-17.734,7.296 -40.579,28.571 -53.884,14.883c-18.383,-18.871 12.655,-31.925 20.213,-48.512c3.529,-7.763 5.967,-18.063 3.975,-25.975c-17.246,-68.746 -35.021,-137.446 -69.588,-203.929c-30.608,28.025 -35.512,65.5 -48.77,97.937c-29.038,70.796 -55.425,142.688 -81.967,214.479c-5.958,16.113 -24.433,35.804 12.792,43.892c21.125,4.596 11.475,23.708 -0.242,31.987c-43.933,31.046 -83.329,69.092 -133.438,92.246c-2.545,-6.137 -5.954,-11.1 -4.92,-12.329c71.162,-84.321 29.97,-181.787 28.966,-273.092c-1.166,-105.566 -14.508,-210.966 -21.671,-316.545c-2.975,-43.746 -19.712,-63.025 -64.008,-41.596l0.029,-21.854Z" style="fill-rule:nonzero;"/><path d="M3198.48,2680.89c63.746,192.158 149.621,361.379 186.325,548.07c-45.846,-60.183 -97.854,-115.579 -127.116,-186.212c-32.271,-77.921 -88.359,-142.042 -124.355,-217.9c-9.729,-20.504 -28.345,-37.013 -53.091,-27.658c-29.809,11.262 -6.088,33.562 -6.809,51.225c-4.058,98.058 6.442,196.095 -2.162,294.225c-9.679,110.591 -42.946,221.179 0.883,332.22c11.467,29.038 0.113,54.017 -33.166,63.738c-3.5,1.012 -8.28,1.287 -10.146,3.704c-41.484,53.488 -85.996,58.975 -136.042,10.854c-4.058,-3.904 -19.408,-2.029 -25.042,2.559c-55.008,45.125 -78.425,-2.963 -99.641,-37.346c-20.159,-32.7 -28.325,-65.513 -81.488,-61.334c-31.633,2.488 -63.575,-26.45 -63.758,-68.908c-0.2,-47.929 -19.458,-80.85 -63.296,-105.596c-43.842,-24.746 -65.412,-68.121 -57.467,-120.654c2.588,-17.067 5.367,-36.717 -5.275,-47.4c-43.9,-44.062 -23.895,-89.608 -8.666,-136.371c13.516,-41.496 24.9,-83.679 38.129,-125.266c7.042,-22.13 9.821,-43.221 -8.342,-61.08c-18.158,-17.854 -40.583,-17.925 -61.087,-7.587c-77.188,38.846 -136.967,15.887 -209.925,-27.913c-120.479,-72.358 -200.721,-179.904 -293.363,-277.695c-50.029,-52.763 -107.25,-98.209 -169.971,-134.988c-68.829,-40.492 -136.47,-80.679 -175.237,-156.958c-30.921,-60.871 -90.913,-102.113 -115.954,-169.309c-33.571,-90.125 12.096,-160.545 102.321,-174.204c145.408,-22.016 286.454,-14.729 431.291,20.396c100.446,24.35 193.238,58.842 284.55,103.483c64.929,31.746 137.888,44.267 197.138,90.755c121.366,95.208 246.371,185.891 345.816,305.77c15.13,18.263 30.55,36.384 47.25,53.146c16.7,16.759 38.555,14.092 55.488,3.234c19.704,-12.58 2.646,-29.25 -2.183,-43.625c-2.871,-8.542 -7.934,-16.396 -12.417,-24.35c-8.371,-14.784 -8.167,-29.25 6.796,-38.28c16.296,-9.841 27.516,3.409 36.454,14.317c6.75,8.225 8.725,20.292 15.221,28.813c9.75,12.862 7.741,43.283 32.879,34.108c24.492,-8.917 40.796,-29.308 32.642,-60.875c-22.971,-88.763 -27.475,-179.333 -28.55,-270.767c-1.684,-143.371 -0.65,-285.096 61.887,-419.362c20.454,-43.942 26.592,-94.354 43.354,-140.267c15.35,-42.083 28.204,-85.983 67.479,-115.921c14.892,-11.354 25.213,-31.871 31.909,-50.283c49.521,-136.208 158.271,-219.046 270.816,-296.163c61.05,-41.833 139.321,-18.516 172.325,48.067c71.367,144.071 110.771,292.738 64.659,455.546c-16.688,58.917 0.804,122.325 5.175,183.2c6.941,96.708 28.033,192.604 31.766,289.283c2.488,64.225 -11.9,129.804 -24.704,193.571c-5.308,26.442 -32.962,42.471 -58.033,54.788c-16.313,8.033 -34.313,13.37 -49.258,23.333c-43.292,28.917 -39.759,69.112 6.97,91.737c40.95,19.817 80.942,42.125 123.18,58.675c50.962,19.955 97.195,40.288 106.154,103.8c2.9,20.596 28.083,26.917 44.125,38.555c49.796,36.17 51.65,61.287 28.154,119.537c-12.783,31.696 12.175,64.413 35.071,85.129c47.333,42.825 71.854,81.738 12.837,133.763c-14.033,12.366 -1.341,30.571 4.271,45.808c10.004,27.15 25.363,52.958 23.163,83.417c-1.017,13.687 3.62,33.237 -18.334,32.912c-47.362,-0.7 -51.075,34.192 -54.958,66.617c-3.542,29.617 -7.713,51.929 -46.013,36.962c-7.62,-2.983 -19.541,-2.862 -26.316,1.155c-61.659,36.525 -99.542,4.991 -129.45,-45.238c-49.217,-82.637 -137.567,-115.662 -210.604,-167.812c-90.492,-64.546 -171.95,-139.48 -254.192,-213.513c-28.488,-25.425 -57.325,-49.342 -100.067,-75.637" style="fill-rule:nonzero;"/><path d="M6280.79,6270.13c-3.725,-72.767 -7.05,-146.171 -50.821,-208.604c-33.479,-47.759 -87.758,-47.584 -116.929,-2.275c-40.966,63.625 -24.066,267.145 26.967,324.725c42.737,48.22 106.321,37.02 130.883,-22.321c12.325,-29.88 8.488,-60.792 9.9,-91.525m-491.225,850.808c2.417,73.404 9.134,138.754 53.205,192.842c37.216,45.654 99.145,41.8 128.404,-6.892c41.221,-68.625 16.925,-262.571 -39.771,-317.408c-47.596,-46.042 -105.467,-32.375 -129.133,30.437c-13.234,34.992 -11.101,71.729 -12.746,101.021l0.041,0Zm322.634,-709.112c5.195,80.787 9.325,152.562 14.754,224.22c1.387,18.263 16.141,27.392 31.916,34.192c12.338,5.325 24.288,13.188 18.434,28.508c-5.517,14.48 -20.292,12.092 -33.125,12.467c-35.967,1.017 -73.392,-20.717 -107.075,15.463c-16.771,18 -25.163,33.308 -23.225,56.866c14.608,177.988 19.437,356.725 40.979,534.204c2.729,22.471 6.492,43.334 28.458,55.659c10.796,6.087 26.459,11.312 18.809,27.575c-6.484,13.771 -21.984,9.316 -34.392,9.133c-9.133,-0.154 -22.321,3.042 -26.696,-1.767c-42.904,-46.67 -88.812,-18.433 -136.783,-11.841c-53.65,7.379 -93.442,-26.538 -119.071,-72.338c-58.967,-105.383 -69.183,-218.608 -39.129,-333.337c21.162,-80.821 111.704,-106.529 180.137,-57.463c11.159,8.034 19.892,27.392 35.509,19.213c17.379,-9.129 8.845,-29.654 8.066,-44.954c-2.233,-43.688 -6.404,-87.255 -9.925,-130.88c-1.966,-24.412 -7.437,-47.004 -31.908,-59.475c-11.879,-6.087 -23.688,-14.05 -18.596,-29.187c6.617,-19.613 24.35,-10.504 37.538,-10.463c10.796,0 21.591,3.046 32.354,4.942c54.696,9.7 95.533,-23.387 92.279,-80.912c-7.217,-127.4 -17.788,-254.605 -27.008,-381.896c-3.034,-41.8 -6.109,-83.6 -9.234,-125.4c-2.396,-32.942 -2.537,-66.729 -41.75,-81.167c-8.816,-3.233 -15.787,-12.104 -12.946,-21.629c3.53,-11.9 15.717,-17.725 26.38,-13.342c58.783,24.2 117.225,17.196 178.562,9.284c55.133,-7.1 90.3,35.075 111.3,81.825c43.129,96.183 49.625,198.35 27.708,299.704c-21.05,97.4 -103.383,122.975 -182.4,62.812c-6.787,-5.146 -14.183,-9.525 -29.92,-20.016" style="fill-rule:nonzero;"/><path d="M4990.96,6599.92c-43.829,-26.083 -61.583,-63.787 -89.283,-91.654c-42.863,-43.058 -86.867,-83.054 -147.213,-100.354c-57.07,-16.354 -103.72,0 -137.158,49.796c-141.483,210.504 3.488,570.046 250.992,623.658c25.312,5.488 39.641,0.254 39.912,-27.091c1.017,-105.759 3.896,-211.609 -10.791,-316.83c-2.142,-15.329 -11.942,-25.862 -23.65,-35.429c-13.609,-11.158 -31.809,-19.783 -28.117,-45.108c43.433,-2.546 81.329,17.179 118.237,34.212c23.734,10.946 93.78,20.95 15.496,63.13c-17.108,9.212 -13.412,31.937 -12.887,50.454c2.133,74.741 4.354,149.496 4.962,224.271c0.367,44.637 1.359,87.962 40.967,118.925c6.85,5.35 14.733,13.554 9.883,23.337c-6.221,12.55 -19.987,9.913 -28.896,6.321c-141.695,-57.063 -302.341,-80.15 -395.945,-223.288c-96.467,-147.516 -119.325,-307.983 -79.513,-476.483c27.658,-117.029 113.887,-158.596 230.371,-123.567c51.875,15.596 93.846,47.688 139.45,74.067c18.904,10.904 48.425,-7.408 60.816,24.138c17.651,45.045 45.555,86.866 42.367,147.495" style="fill-rule:nonzero;"/><path d="M5726.77,6181.92c3.613,49.096 8.633,98.158 10.246,147.325c0.833,25.367 13.25,40.088 32.233,53.125c9.388,6.442 16.092,16.85 10.521,28.246c-6.392,13.075 -18.475,6.837 -28.783,4.725c-19.613,-4.008 -39.75,-6.35 -58.742,-12.304c-32.467,-10.146 -81.917,-15.646 -21.471,-60.875c7.409,-5.542 8.117,-23.642 7.509,-35.684c-4.746,-87.345 -9.363,-174.729 -16.921,-261.85c-2.467,-28.408 -9.946,-57.22 -38.788,-74.725c-51.208,-31.075 -106.308,-14.75 -123.2,41.955c-28.458,95.541 -5.854,191.816 1.838,287.691c0.404,4.984 4.766,9.721 7.516,14.438c9.375,16.121 46.671,19.704 32.467,42.541c-15.471,24.867 -43.05,0.396 -64.812,-3.045c-17.48,-2.78 -34.659,-10.934 -50.534,-19.409c-20.65,-11.016 -36.658,-25.129 -1.696,-39.362c24.838,-10.146 21.967,-31.604 20.709,-51.104c-6.313,-98.213 -13.779,-196.35 -20.292,-294.55c-1.317,-19.93 -9.921,-34.334 -25.842,-45.659c-10.47,-7.433 -22.595,-16.291 -16.833,-30.941c6.433,-16.367 25.267,-12.359 32.75,-6.575c53.633,41.395 115.725,35.612 177.704,39.962c42.259,2.963 77.959,30.917 100.25,69.183c13.492,23.175 22.788,19.867 40.684,3.625c52.758,-47.87 104.287,-45.475 156.529,7.263c83.012,83.825 85.608,188.712 73.129,296.387c-3.125,27.038 -11.292,53.459 -15.554,80.413c-2.446,15.525 -7.446,32.467 10.754,44.187c11.962,7.688 28.217,17.096 17.129,34.067c-7.812,11.954 -23.692,4.8 -36.037,3.654c-81.167,-7.479 -85.742,-23.641 -53.48,-98.629c42.063,-97.783 37.967,-199.158 -6.454,-296.437c-13.279,-29.075 -39.312,-51.113 -74.558,-44.821c-45.263,8.116 -67.125,43.716 -75.079,84.391c-5.846,29.83 -1.146,61.725 -1.146,92.7l-1.746,0.092Z" style="fill-rule:nonzero;"/><path d="M3441.56,5426.58c86.612,-106.459 101.712,-224.963 43.241,-327.096c53.184,-0.825 91.2,26.154 128.321,52.9c12.479,8.987 19.033,27.575 -6.321,29.562c-25.891,2.03 -28.121,18.68 -30.437,37.105c-11.442,91.583 -39.038,177.416 -87.659,256.47c-13.554,22.05 -24.012,46.338 7.509,65.696c9.871,6.088 11.65,19.075 4.304,29.159c-6.342,8.695 -16.446,6.27 -24.888,2.375c-34.72,-16.05 -69.379,-32.225 -103.762,-48.963c-7.925,-3.867 -16.688,-9.021 -16.417,-19.746c0.304,-11.696 9.459,-16.029 18.792,-14.791c27.496,3.633 26.075,-14.975 22.85,-30.967c-21.429,-106.333 -50.225,-210.675 -96.588,-315.825c-31.645,81.825 -63.92,163.429 -94.62,245.587c-11.921,31.85 24.625,46.134 32.587,81.084c-52.575,1.533 -95.167,-19.275 -135.708,-43.229c-15.096,-8.917 -15.888,-27.525 6.2,-30.63c36.025,-5.075 27.391,-30.6 22.937,-49.57c-27.258,-117.125 -56.954,-233.68 -84.591,-350.73c-4.78,-20.241 -18.205,-30.579 -32.742,-41.483c-7.925,-5.958 -14.571,-15.017 -8.663,-22.808c4.059,-5.388 16.646,-8.363 23.955,-6.534c26.445,6.605 53.345,13.342 78.016,24.53c23.338,10.595 64.084,24.008 6.85,48.587c-11.95,5.138 -13.321,16.742 -11.496,28.046c15.705,96.871 37.092,192.462 65.246,300.921c43.284,-88.45 71.55,-168.246 95.371,-249.725c5.379,-18.438 -6.604,-30.692 -20.242,-41.396c-9.241,-7.267 -15.337,-18.071 -8.033,-28.408c7.304,-10.338 20.15,-6.534 30.225,-2.8c27.3,10.145 56.817,17.387 80.475,33.187c17.938,11.971 82.838,21.933 15.554,60.333c-10.896,6.221 -6.333,19.584 -4.383,30.338c18.192,100.308 45.837,197.883 84.117,298.821" style="fill-rule:nonzero;"/><path d="M3405.16,5893.88c-63.087,-115.479 -184.479,-119.262 -284.637,-160.25c-37.684,-15.433 -56.359,-4.883 -57.58,40.217c-3.995,148.054 -5.295,148.188 131.584,198.167c39.321,14.366 79.075,27.533 118.704,41.15c25.017,8.604 48.95,14.446 68.775,-11.85c14.387,-19.075 30.325,-16.175 32.821,7.241c5.491,51.634 8.779,103.842 -8.563,161.917c-50.4,-121.533 -162.45,-131.417 -257.904,-165.954c-91.675,-33.167 -93.125,-31.033 -97.762,66.375c-3.725,78.275 -4.88,156.679 -8.613,234.954c-1.554,32.467 0.242,61.533 31.158,81.388c10.934,7.033 19.275,19.116 11.759,32.804c-8.4,15.308 -21.784,7.354 -33.717,3.862c-34.9,-10.146 -70.004,-19.621 -104.65,-30.616c-11.871,-3.775 -24.779,-9.784 -26.987,-24.35c-2.496,-16.417 9.291,-21.634 22.633,-25.142c30.5,-8.017 36.708,-31.583 37.812,-58.929c6.9,-171.121 14,-342.246 21.309,-513.371c1.65,-37.538 2.291,-73.433 -35.409,-96.313c-10.145,-6.087 -14.65,-16.7 -10.145,-28.225c6.358,-16.183 21.162,-13.77 32.616,-9.7c126.763,45.088 254.375,88.105 379.217,137.98c48.771,19.533 27.087,76.154 37.579,118.645" style="fill-rule:nonzero;"/><path d="M3879.39,5533.96c1.013,-76.337 -4.504,-80.496 -81.429,-67.775c-20.029,3.309 -38.687,8.879 -56.237,18.875c-32.638,18.584 -44.542,45.484 -35.513,82.392c12.409,50.596 61.446,93.717 104.4,86.167c53.55,-9.405 64.275,-52.292 68.659,-97.884c0.679,-7.196 0.12,-14.512 0.12,-21.775m99.43,247.638c-38.03,-9.73 -78.055,-18.009 -93.342,-61.138c-10.317,-29.087 -27.879,-27.008 -51.013,-22.221c-108.925,22.534 -222.808,-106.691 -189.808,-214.204c10.463,-34.1 35.683,-50.162 67.317,-56.533c39.104,-7.892 78.925,-12.175 118.371,-18.425c27.779,-4.425 49.441,-15.9 46.416,-49.084c-4.329,-47.525 -25.121,-83.195 -73.921,-97.066c-29.633,-8.421 -49.712,1.137 -58.358,31.737c-8.937,31.704 -24.479,21.842 -35.925,3.417c-17.096,-27.533 -41.792,-59.238 -26.783,-89.979c10.896,-22.321 41.658,2.283 63.916,2.808c119.038,2.821 176.242,64.396 183.467,197.467c4.238,78.121 2.892,156.566 3.771,234.862c0.446,40.434 -0.333,80.609 40.321,106.388c7.912,5.091 14.537,16.516 5.571,31.971" style="fill-rule:nonzero;"/><path d="M4161.15,5840.79c-42.512,5.337 -74.062,-13.675 -104.937,-31.379c-27.3,-15.667 -59.138,-33.038 -8.055,-62.792c18.263,-10.633 15.513,-35.887 15.471,-55.804c-0.183,-85.65 -3.833,-171.392 -0.721,-256.9c1.767,-48.588 -32.466,-78.284 -53.325,-121.484c47.684,2.505 85.042,15.463 102.471,54.888c11.1,25.162 23.338,21.429 41.925,16.042c41.15,-11.913 71.709,2.9 102.113,32.741c100.191,98.329 107.546,216.813 81.987,344.071c-9.75,48.596 -49.083,96.525 4.884,145.692c15.633,14.204 -3.642,23.758 -21.084,21.416c-65.654,-8.845 -90.512,-55.637 -64.741,-115.133c38.625,-89.192 50.354,-182.196 27.27,-277.554c-5.07,-20.75 -13.97,-42.321 -26.933,-58.988c-22.625,-29.108 -54.983,-42.704 -92.025,-32.983c-35.508,9.313 -47.5,39.25 -48.029,71.617c-1.296,80.15 1.696,160.391 -0.183,240.525c-0.892,36.696 40.22,50.208 43.912,86.025" style="fill-rule:nonzero;"/><path d="M2411.48,6030.05c-1.238,49.329 2.537,97.975 22.221,144.071c14.862,34.766 41.595,56.691 79.295,57.566c36.73,0.85 54.405,-28.187 64.821,-57.721c30.238,-85.72 33.596,-174 15.921,-262.72c-3.046,-15.221 -13.192,-30.117 -23.162,-42.667c-43.546,-54.654 -97.217,-49.133 -129.613,12.958c-24.25,46.459 -27.637,97.409 -29.483,148.513m-57.454,4.354c0.233,-63.563 -0.417,-113.096 18.679,-159.738c19.479,-47.6 48.566,-88.112 103.121,-95.629c61.187,-8.433 110.737,16.829 146.179,67.009c64.554,91.416 59.462,307.783 -8.434,396.77c-52.441,68.738 -160.3,59.971 -213.862,-18.366c-42.183,-61.734 -47.663,-132.4 -45.683,-190.046" style="fill-rule:nonzero;"/><path d="M2147.51,4923.36c1.837,-27.283 5.075,-54.554 5.075,-81.833c-0,-19.634 2.2,-40.292 -10.005,-58.321c-8.583,-12.692 -34.225,-19.213 -24.045,-37.913c11.483,-21.104 36.3,-9.05 55.112,-9.233c18.129,-0.217 36.196,2.25 53.608,7.317c27.138,8.116 40.725,22.012 7.538,41.829c-21.804,13.029 -25.933,33.733 -27.283,56.158c-5.567,92.771 -11.584,185.513 -16.292,278.325c-1.471,29.1 -0.438,56.725 29.858,76.6c24.35,15.971 11.554,35.513 -11.221,34.567c-26.125,-1.125 -59.575,12.366 -77.108,-23.479c-11.3,-23.142 -24.825,-3.621 -35.6,1.525c-88.125,42.062 -152.804,14.691 -180.4,-79.371c-26.633,-90.742 -16.762,-179.692 16.304,-267.521c11.992,-31.879 36.879,-65.046 -1.329,-98.892c-10.837,-9.608 -2.762,-24.491 13.858,-26.683c14.405,-1.908 29.096,-3.146 43.625,-2.596c48.7,1.867 55.7,12.771 32.1,55.617c-46.75,84.891 -72.866,173.646 -65.062,271.904c5.458,68.862 27.708,110.65 69.529,116.067c44.642,5.795 98.575,-42.205 112.3,-101.455c11.588,-50.162 8.425,-101.579 9.438,-152.612" style="fill-rule:nonzero;"/><path d="M6599.15,6254.44c-8.208,-66.892 -16.933,-133.721 -24.35,-200.704c-2.483,-22.571 -15.004,-35.184 -32.92,-46.75c-25.05,-16.163 -19.046,-28.296 7.729,-33.55c19.633,-3.859 39.446,-8.838 59.25,-9.134c18.862,-0.333 43.983,-11.637 55.458,8.221c10.296,17.813 -16.558,24.346 -24.096,37.833c-8.35,14.955 -11.1,30.434 -9.296,47.33c9.488,88.733 18.213,177.55 28.35,266.212c2.85,24.958 6.613,48.588 37.7,59.858c26.725,9.692 21.092,28.909 -3.725,35.005c-27.045,6.666 -56.45,30.8 -82.725,-6.088c-11.729,-16.479 -22.079,2.779 -30.925,9.129c-72.908,52.596 -143.929,39.571 -187.129,-39.629c-45.321,-83.133 -53.475,-171.754 -31.125,-264.65c7.567,-31.45 32.638,-71.417 -16.558,-95.783c-3.338,-1.654 -6.442,-12.625 -4.892,-14.042c25.171,-22.992 56.392,-19.95 86.292,-16.162c30.942,3.925 24.754,23.983 15.675,44.55c-38.808,87.808 -49.442,178.391 -24.917,272.045c3.204,12.267 6.592,24.684 11.746,36.221c13.85,31.054 32.071,57.434 70.483,60.559c39.275,3.187 58.521,-23.334 77.859,-50.625c21.55,-30.388 22.583,-64.588 22.116,-99.846" style="fill-rule:nonzero;"/><path d="M5292.08,7034.8c-0,-21.896 1.908,-44 -0.388,-65.663c-5.416,-51.187 -14.637,-101.733 -52.696,-140.662c-55.941,-57.221 -108.508,-44.854 -126.92,32.966c-21.184,89.525 -9.842,177.721 28.212,261.421c8.017,17.625 22.1,34.121 37.146,46.613c43.929,36.525 80.658,25.787 103.058,-26.804c14.888,-34.925 12.592,-71.417 11.588,-107.871Zm62.621,18.341c2.15,49.534 -0.205,98.659 -24.138,143.605c-22.037,41.362 -53.083,60.112 -103.042,48.395c-64.058,-15.025 -108.1,-53.091 -134.937,-109.491c-46.458,-97.513 -64.342,-201.171 -41.942,-307.729c17.175,-81.696 74.704,-109.363 152.529,-76.338c108.217,45.917 139.2,141.3 151.263,246.925c2.029,17.988 0.267,36.413 0.267,54.633" style="fill-rule:nonzero;"/><path d="M5643.14,7138.7c-3.825,-39.925 -5.52,-80.2 -12.02,-119.721c-7.6,-46.204 -26.775,-87.375 -69.246,-112.821c-42.471,-25.441 -71.517,-17.041 -94.567,26.271c-37.979,71.333 -14.083,260.217 40.329,318.796c49.021,52.758 101.984,41.904 123.634,-26.204c8.845,-27.792 14.679,-56.534 11.87,-86.321m64.78,-0.883c-4.159,30.55 -7.609,59.433 -12.105,88.166c-7.666,48.942 -24.795,96.638 -75.595,110.913c-54.5,15.321 -104.346,-7.459 -143.163,-48.113c-60.004,-62.829 -76.683,-143.387 -84.9,-225.637c-3.967,-39.642 -4.475,-80.629 0.9,-119.996c11.729,-85.871 71.854,-120.792 154.046,-94.992c84.979,26.684 122.658,93.196 143.104,172.059c9.983,38.483 12.154,78.995 17.713,117.6" style="fill-rule:nonzero;"/><path d="M3889.53,6435.36c29.371,-13.921 85.658,15.745 97.287,-43.85c7.638,-39.205 -52.333,-96.192 -90.704,-93.867c-31.287,1.904 -64.454,57.171 -65.021,103.15c-0.479,41.883 27.888,34.221 58.438,34.567m-119.842,12.416c0.954,-54.046 4.85,-99.425 21.309,-142.504c24.195,-63.158 62.1,-79.187 124.354,-55.479c83.146,31.658 125.421,94.925 143.55,178.879c6.821,31.567 -5.334,44.096 -35.267,46.154c-47.287,3.246 -94.483,7.659 -141.775,10.896c-44.133,3.046 -55.658,26.125 -45.158,66.758c13.604,52.7 36.766,99.634 80.891,132.609c35.359,26.375 72.034,35.408 105.517,-6c9.254,-11.421 19.275,-32.609 38.35,-18.809c19.804,14.305 12.825,36.08 3.592,54.442c-19.967,39.771 -78.75,56.229 -130.2,36.971c-89.575,-33.479 -131.621,-105.921 -151.884,-192.942c-8.995,-38.666 -15.995,-78.741 -13.279,-110.975" style="fill-rule:nonzero;"/><path d="M3556.22,6311.84c29.159,-4.962 59.646,-9.829 90.004,-15.433c21.53,-3.975 31.046,-17.5 27.617,-39.212c-7.367,-46.759 -37.117,-77.3 -80.425,-86.055c-41.062,-8.3 -53.054,29.859 -65.95,59.859c-5,11.587 -8.117,24.179 -10.65,36.596c-6.362,30.7 8.033,44.437 39.404,44.245Zm-103.346,15.392c9.813,-56.196 6.23,-109.787 29.942,-159.117c21.304,-44.337 53.904,-60.925 102.054,-51.154c85.479,17.35 158.996,105.446 160.679,191.654c0.467,23.334 -7.925,33.409 -30.437,35.213c-47.175,3.808 -94.354,7.954 -141.392,12.837c-44.641,4.625 -64.679,24.6 -51.162,73.28c14.629,52.679 36.25,98.779 82.962,130.183c36.667,24.65 70.421,26.375 101.992,-9.225c9.658,-10.896 18.212,-33.888 37.867,-18.971c18.991,14.425 12.408,36.788 3.466,54.867c-19.141,38.758 -84.4,55.75 -136.854,35.562c-76.092,-29.304 -119.092,-88.421 -138.196,-164.666c-10.954,-43.871 -14.587,-89.575 -20.921,-130.463" style="fill-rule:nonzero;"/><path d="M5327.01,6056.69c1.371,-66.434 -2.975,-132.025 -51.741,-183.8c-51.075,-54.2 -100.029,-42.675 -118.979,28.741c-22.159,83.513 -10.442,165.955 16.487,246.542c8.671,25.963 22.796,49.429 45.379,66.717c46.063,35.25 80.813,25.854 100.567,-28.863c15.083,-41.983 15.796,-85.5 8.246,-129.337l0.041,-0Zm63.075,35.133c-1.258,46.163 0.084,88.138 -14.12,128.488c-23.288,66.108 -65.95,86.583 -132.363,63.154c-39.475,-13.929 -69.925,-39.85 -90.65,-75.138c-62.408,-106.266 -79.046,-221.854 -56.533,-341.341c13.85,-73.509 70.916,-99.217 140.891,-71.246c103.488,41.366 134.513,130.7 149.467,229.629c3.483,23.267 2.417,47.221 3.308,66.454" style="fill-rule:nonzero;"/><path d="M1380.83,4860.22c-7.629,2.73 -20.517,5.255 -31.146,11.567c-30.316,17.967 -81.166,131.821 -75.879,165.163c3.458,21.641 15.421,17.42 26.663,8.745c43.258,-33.42 87.12,-66.333 123.308,-107.75c15.025,-17.175 12.996,-36.525 3.158,-56.216c-8.787,-17.513 -24.3,-20.413 -46.104,-21.509m105.179,269.013c2.334,99.804 -106.437,202.783 -195.525,196.15c-45.171,-3.371 -65.462,-33.421 -72.421,-69.958c-25.833,-135.746 -2.891,-263.95 70.95,-381.48c17.621,-28.05 43.159,-49.812 75.738,-59.858c42.304,-13.087 86.796,-27.767 117.254,20.779c31.804,50.729 21.792,99.671 -26.117,137.871c-51.229,40.838 -102.82,81.204 -154.775,121.1c-37.416,28.863 -41.087,66.779 -29.004,108.05c8.717,29.788 27.788,53.133 59.859,57.042c42.766,5.212 70.92,-20.15 95.158,-52.313c17.887,-23.862 25.233,-56.075 58.883,-77.383" style="fill-rule:nonzero;"/><path d="M7023.73,5896.48c7.171,-1.267 -2.233,-1.083 -10.491,2.1c-38.392,14.762 -82.292,124.608 -65.884,162.942c8.867,20.704 21.954,15.279 34.329,5.07c36.526,-29.979 71.359,-61.625 100.221,-99.429c12.792,-16.771 12.559,-33.966 4.059,-50.991c-9.071,-18.392 -26.225,-23.771 -62.192,-19.692l-0.042,-0Zm168.225,219.633c20.475,108.325 -96.95,226.525 -192.037,204.946c-46.742,-10.612 -69.154,-48.083 -82.292,-87.925c-27.837,-84.471 -35.196,-171.533 -12.804,-258.9c20.404,-79.621 81.979,-130.879 164.117,-138.7c40.125,-3.804 63.816,17.796 82.058,51.175c17.25,31.45 17.088,58.388 -10.062,83.633c-48.092,44.721 -95.596,90.092 -143.967,134.509c-26.075,23.933 -42.754,50.283 -28.533,86.687c13.241,33.904 34.204,61.392 72.47,67.375c40.159,6.284 69.867,-11.625 93.138,-44.346c20.708,-29.066 24.271,-68.32 57.912,-98.454" style="fill-rule:nonzero;"/><path d="M7627.67,5680.46c27.758,-4.179 61.725,-11.921 96.029,-13.858c58.184,-3.288 88.642,24.533 80.434,81.704c-15.125,105.35 -56.359,195.912 -165.263,238.229c-16.637,6.462 -32.467,16.021 -47.096,26.379c-12.996,9.129 -16.975,40.258 -40.266,22.108c-21.48,-16.733 -36.63,-42.237 -34.205,-71.245c1.846,-22.075 19.613,-20.667 37.634,-18.088c83.041,11.871 168.508,-45.15 190.058,-125.687c16.304,-60.975 -10.429,-92.488 -72.775,-85.688c-28.946,3.154 -57.833,8.896 -86.837,9.129c-63.034,0.509 -93.067,-41.596 -72.471,-101.566c19.133,-55.663 57.333,-96.388 107.421,-126.388c17.075,-10.225 35.258,-19.042 50.841,-31.187c13.292,-10.35 24.096,-24.825 41.596,-9.08c15.808,14.205 24.463,32.575 18.883,53.946c-5.995,22.909 -26.195,16.059 -41.12,15.025c-48.355,-3.371 -84.809,17.938 -113.725,53.609c-15.096,18.616 -26.925,41.041 -14.142,65.491c12.783,24.45 36.879,18.384 65.004,17.167" style="fill-rule:nonzero;"/><path d="M2534.06,4893.75c-27.566,-29.259 -45.829,-54.2 -69.408,-72.167c-26.379,-20.079 -59.858,-36.675 -87.383,-2.983c-24.35,29.729 -9.275,59.483 14.529,82.487c28.721,27.746 60.091,52.754 90.216,79.075c53.059,46.333 88.875,100.442 81.509,175.225c-8.046,81.683 -88.584,130.108 -163.517,97.704c-27.2,-11.758 -50.779,-37.783 -85.612,-18.75c-9.059,4.95 -16.688,-5.275 -19.884,-13.962c-5.621,-15.267 -14,-31.075 -13.808,-46.567c0.262,-20.892 -22.138,-49.296 -0.367,-60.408c25.079,-12.784 28.634,25.15 45.129,36.921c7.255,5.175 12.075,13.616 18.809,19.67c44.096,39.571 111.604,46.421 144.729,14.938c32.467,-30.842 27.596,-90.733 -15.35,-137.383c-26.967,-29.292 -58.975,-53.975 -88.996,-80.425c-36.717,-32.346 -64.337,-69.663 -65.95,-120.867c-0.7,-21.983 1.371,-43.554 16.7,-61.633c32.304,-38.046 114.467,-41.975 177.35,-0.509c32.617,21.509 30.821,60.771 21.304,109.634" style="fill-rule:nonzero;"/><path d="M4775.13,5857.27c0.295,-46.233 0.395,-84.504 14.387,-121.071c23.65,-61.783 68.117,-80.546 130.717,-58.658c45.362,15.867 75.9,55.2 121.483,71.171c20.1,7.041 17.879,28.954 8.475,47.35c-9.983,19.55 -18.904,43.079 -43.496,44.408c-28.225,1.513 -20.221,-25.029 -23.112,-40.971c-7.671,-42.233 -33.479,-64.687 -74.775,-65.662c-38.867,-0.925 -59.859,26.491 -68.421,59.983c-26.25,102.208 -11.85,199.817 48.829,286.3c42.5,60.571 94.538,61.413 146.921,9.904c7.771,-7.65 15.554,-18.925 26.967,-11.821c5.6,3.48 7.429,15.471 8.2,23.871c6.087,66.504 -57.638,109.575 -122.875,80.488c-115.042,-51.288 -154.217,-152.713 -169.984,-267.738c-2.962,-21.587 -2.575,-43.633 -3.316,-57.554" style="fill-rule:nonzero;"/><path d="M1805.96,4868.31c1.379,-46.996 10.145,-81.296 -29.605,-99.854c-12.562,-5.854 -10.329,-16.863 -1.137,-26.725c16.671,-17.904 103.242,-22.817 120.117,-6.95c11.008,10.342 8.025,20.65 -1.321,27.475c-53.05,38.808 -40.584,98.417 -44.884,150.158c-12.583,150.5 -17.929,301.6 -30.325,452.121c-8.391,101.875 -46.52,134.221 -151.395,136.825c-16.955,0.417 -38.888,20.108 -50.009,0.246c-10.946,-19.563 -13.808,-45.046 -15.025,-68.2c-0.854,-16.304 4.129,-33.033 30.163,-19.725c98.171,50.204 133.241,30.237 141.441,-80.85c11.788,-159.704 22.067,-319.55 31.98,-464.521" style="fill-rule:nonzero;"/><path d="M4094.21,6081.83c55.863,8.266 96.892,33.316 136.155,61.391c8.795,6.292 12.712,21.742 -3.205,24.817c-40.35,7.8 -32.245,37.883 -31.979,64.129c1.692,170.996 4.059,341.983 5.538,512.967c0.296,33.758 3.046,65.391 32.608,88.271c8.433,6.504 17.867,16.341 10.421,27.766c-7.1,10.888 -19.471,6.921 -29.817,3.146c-27.312,-9.962 -56.746,-16.617 -81.054,-31.542c-22.675,-13.912 -69.167,-34.495 -4.192,-59.179c19.4,-7.366 15.4,-27.1 15.35,-42.916c-0.516,-182.017 -2.687,-364.038 -1.187,-546.034c0.325,-41.346 -33.592,-61.95 -48.638,-102.816" style="fill-rule:nonzero;"/><path d="M2228.88,5941.41c0,-31.004 -4.454,-62.833 1.084,-92.813c7.541,-40.808 -41.13,-47.829 -41.809,-73.2c-0.721,-27.112 53.317,-29.8 48.059,-70.362c-3.042,-23.383 -0.68,-47.421 -2.292,-71.021c-1.817,-26.542 10.246,-45.279 29.808,-61.004c13.392,-10.775 28.988,-20.596 44.846,-11.425c21.163,12.246 5.283,28.521 -0.712,42.471c-17.034,39.671 -12.467,82.462 -18.355,123.716c-3.375,23.68 8.421,37.446 33.038,41.03c11.879,1.725 18.979,11.008 17.754,23.658c-1.017,10.929 -10.146,14.704 -19.371,15.858c-33.479,4.142 -38.675,28.146 -40.133,55.296c-5.275,98.383 -10.608,196.763 -15.992,295.138c-1.225,22.583 -0.425,43.708 24.35,55.525c11.425,5.45 23.734,14.641 17.046,29.425c-6.475,14.283 -22.258,10.145 -34.396,9.291c-18.15,-1.216 -36.146,-4.675 -54.216,-7.15c-19.675,-2.7 -45.138,-1.258 -52.759,-21.358c-8.196,-21.658 20.942,-19.175 31.017,-30.233c14.729,-16.171 15.837,-36.271 17.358,-56.175c5,-65.484 9.629,-130.992 14.396,-196.484l1.279,-0.183Z" style="fill-rule:nonzero;"/><path d="M2736.16,5310.68c-37.213,10.675 -68.179,0.183 -95.371,-11.484c-16.171,-6.941 -107.938,-5.237 -18.767,-56.258c17.479,-10.017 15.217,-39.946 16.504,-61.383c5.075,-81.763 9.55,-163.6 12.238,-245.525c1.146,-35.134 9.587,-74.217 -33.804,-95.371c-10.321,-5.071 -13.284,-21.671 -1.109,-26.684c55.255,-22.775 35.988,-69.133 35.025,-108.283c-0.883,-35.683 4.059,-64.933 41.596,-79.704c13.242,-5.188 25.234,-5.613 35.571,3.904c9.842,9.058 5.863,19.45 -0.192,29.421c-20.016,32.946 -14.337,70.675 -19.47,106.392c-4.3,30.02 -5.65,56.437 31.27,71.395c25.059,10.142 28.113,31.775 -3.987,37.538c-29.425,5.212 -33.563,22.237 -34.433,45.95c-3.788,101.883 -5.075,203.987 -13.488,305.496c-3.521,41.841 36.558,50.558 48.417,84.596" style="fill-rule:nonzero;"/><path d="M6900.14,6355.5c-45.32,35.308 -92.641,46.192 -144.383,41.596c69.729,-131.438 6.258,-260.996 2.163,-390.192c-56.767,-26.379 -37.238,-58.479 -13.142,-98.567c9.242,-15.379 -3.308,-45.845 -9.933,-68.258c-7.292,-24.687 -6.534,-47.017 8.795,-67.287c12.675,-16.759 24.546,-45.2 48.284,-36.15c24.766,9.437 5.237,34.425 2.608,52.404c-5.375,36.829 6.638,72.237 7.679,108.558c0.275,9.446 4.213,19.925 14.204,20.842c81.471,7.354 29.234,30.9 6.95,52.075c-18.404,17.491 -12.862,40.991 -10.875,62.041c7.55,79.663 16.446,159.196 25.275,238.738c4.259,38.1 9.009,76.479 62.375,84.2" style="fill-rule:nonzero;"/><path d="M7317.08,5909.27c6.929,57.729 14.488,124.6 23.334,191.288c1.808,13.546 3.491,30.904 21.866,33.379c12.175,1.633 30.975,-15.025 32.892,10.867c1.208,16.395 -15.075,24.066 -27.092,31.683c-15.4,9.704 -31.446,18.346 -48.029,25.862c-19.133,8.746 -44.637,27.696 -59.017,13.192c-18.679,-18.875 13.425,-31.575 21.742,-47.85c11.6,-22.696 5.958,-46.925 3.267,-69.771c-8.888,-75.821 -20.413,-151.325 -30.659,-226.992c-3.762,-27.745 -7.65,-53.995 -41.7,-62.566c-21.408,-5.379 -12.925,-19.075 -1.925,-27c14.609,-10.521 34.555,-28.65 46.667,-25.029c56.363,16.833 71.479,-31.654 101.296,-56.967c6.908,-5.862 13.787,-12.175 21.692,-16.396c27.495,-14.7 66.483,-32.65 82.412,-4.262c13.517,24.046 -9.071,62.125 -29.979,88.187c-8.888,11.059 -18.821,7.7 -25.363,-4.737c-32.05,-60.65 -51.187,-13.463 -64.875,10.966c-21.587,38.475 -25.837,82.829 -26.529,136.146" style="fill-rule:nonzero;"/><path d="M4522.07,6003.84c-39.741,-5.792 -71.312,-19.621 -99.825,-37.538c-19.033,-11.983 -78.233,-23.775 -10.145,-56.442c8.583,-4.12 11.437,-26.237 11.925,-40.195c3.55,-101.98 0.9,-204.08 -7.938,-305.734c-0.9,-10.337 -3.508,-23.008 -10.146,-29.9c-22.321,-23.071 -56.5,-39.171 -0.254,-67.671c22.808,-11.554 7.642,-50.362 3.513,-77.108c-4.446,-28.854 -11.575,-58.642 25.595,-73.929c14.755,-6.088 27.709,-8.221 40.384,3.042c11.158,9.87 12.691,21.387 5.558,34.27c-18.779,33.917 -11.75,70.88 -13.262,107c-1.296,31.205 2.295,57.888 36.312,71.1c9.763,3.796 18.65,12.225 16.508,25.484c-2.029,12.408 -12.308,11.891 -20.962,11.691c-29.025,-0.671 -31.775,18.425 -31.146,40.217c2.983,103.738 7.567,207.471 8.279,311.229c0.163,36.625 42.904,44.004 45.604,84.484" style="fill-rule:nonzero;"/><path d="M1818.65,4555.92c-0.955,-25.079 9.129,-45.654 34.862,-46.446c31.867,-1.017 29.279,25.879 28.404,47.683c-0.871,22.4 -3.296,47.321 -33.012,46.925c-30.7,-0.437 -29.384,-26.258 -30.254,-48.162" style="fill-rule:nonzero;"/></g></svg>