<?xml version="1.0" encoding="UTF-8" standalone="no"?><!DOCTYPE svg PUBLIC "-//W3C//DTD SVG 1.1//EN" "http://www.w3.org/Graphics/SVG/1.1/DTD/svg11.dtd"><svg width="100%" height="100%" viewBox="0 0 8334 8334" version="1.1" xmlns="http://www.w3.org/2000/svg" xmlns:xlink="http://www.w3.org/1999/xlink" xml:space="preserve" xmlns:serif="http://www.serif.com/" style="fill-rule:evenodd;clip-rule:evenodd;stroke-miterlimit:10;"><rect id="Page-1" serif:id="Page 1" x="0" y="0" width="8333.33" height="8333.33" style="fill:none;"/><clipPath id="_clip1"><rect id="Page-11" serif:id="Page 1" x="0" y="0" width="8333.33" height="8333.33"/></clipPath><g clip-path="url(#_clip1)"><g id="Layer-1" serif:id="Layer 1"><rect x="0" y="0" width="8333.33" height="8333.33" style="fill:none;stroke:#fff;stroke-width:4.17px;"/><path d="M5120.18,1260.86c0.2,1.929 -0.105,4.087 0.666,5.754c51.875,112.646 106.634,223.767 174.809,327.708c25.62,39.063 53.391,76.517 84.879,111.113c20.696,22.737 43.037,43.666 68.05,61.629c17.933,12.879 36.975,23.762 57.696,31.575c41.67,15.721 83.316,15.633 124.966,-0.083c27.754,-10.475 52.254,-26.38 75.129,-44.984c29.625,-24.096 55.275,-52.054 79.138,-81.729c43.996,-54.712 80.979,-114.05 115.412,-175.062c39.321,-69.675 74.584,-141.4 108.205,-213.967c10.325,-22.279 6.62,-21.65 30.25,-13.725c10.1,3.392 20.183,6.858 30.162,10.596c7.133,2.671 8.15,4.241 6.642,12.066c-4.288,22.238 -8.884,44.409 -13.434,66.592c-16.479,80.325 -29.383,161.221 -37.487,242.821c-5.208,52.446 -7.388,105.083 -4.475,157.754c2.175,39.317 7.342,78.263 19.233,116.033c5.617,17.855 12.738,35.055 22.046,51.313c28.4,49.621 71.479,77.529 127.463,86.879c36.679,6.121 73.087,3.704 109.425,-2.171c68.82,-11.129 134.216,-33.783 198.475,-59.991c90.812,-37.042 177.995,-81.588 263.912,-128.7c12.267,-6.725 24.425,-13.655 36.758,-20.259c5.667,-3.033 7.98,-2.637 12.059,2.5c9.946,12.517 19.596,25.271 29.308,37.971c2.383,3.113 1.896,6.346 -0.746,8.921c-3.816,3.717 -7.958,7.096 -11.941,10.637c-74.771,66.455 -147.696,134.813 -214.95,208.988c-35.405,39.046 -68.959,79.592 -98.584,123.262c-21.75,32.067 -41.191,65.417 -55.166,101.684c-10.6,27.512 -17.896,55.775 -18.046,85.554c-0.184,36.633 11.025,69.387 32.896,98.65c15.341,20.525 34.3,37.187 55.179,51.758c31.896,22.259 66.758,38.813 102.891,52.809c59.809,23.162 121.709,39.05 184.388,51.987c78.333,16.167 157.354,28.071 236.846,36.908c19.866,2.209 39.687,4.784 59.55,7c5.479,0.609 8.475,3.067 8.75,8.68c0.425,8.65 1.812,17.354 1.233,25.933c-2.267,33.692 2.479,27.212 -27.587,30.687c-57.567,6.659 -115.117,13.505 -172.35,22.742c-91.5,14.767 -182.242,32.7 -269.925,63.608c-35.884,12.65 -70.717,27.634 -103.409,47.292c-17.762,10.683 -34.566,22.646 -49.808,36.708c-51.713,47.7 -69.163,105.771 -52.621,174.121c6.783,28.025 17.679,54.454 31.017,79.913c20.487,39.1 45.504,75.233 72.691,109.904c45.742,58.342 96.517,112.108 149.409,163.925c42.379,41.525 85.966,81.758 130.541,120.921c3.005,2.637 6.042,5.262 8.8,8.146c2.513,2.62 3.313,5.858 0.93,8.987c-10.096,13.246 -20.267,26.433 -30.475,39.588c-2.346,3.025 -5.559,3.6 -8.875,1.87c-5.909,-3.075 -11.7,-6.366 -17.53,-9.595c-85.695,-47.492 -172.537,-92.692 -262.783,-131.063c-57.071,-24.267 -115.108,-45.775 -175.542,-60.225c-39.658,-9.483 -79.716,-15.629 -120.704,-14.367c-18.079,0.559 -35.791,2.963 -53.308,7.405c-49.342,12.512 -85.621,41.662 -109.975,86.033c-13.571,24.729 -22.313,51.229 -28.263,78.712c-9.645,44.53 -12.445,89.667 -12.204,135.1c0.379,71.484 8.342,142.275 18.796,212.867c9.767,65.921 22.146,131.35 36.329,196.45c0.85,3.896 1.484,7.875 1.784,11.846c0.27,3.625 -1.425,6.325 -5.067,7.579c-14.479,4.992 -28.896,10.179 -43.45,14.95c-8.196,2.688 -9.888,1.808 -13.858,-6.517c-14.046,-29.462 -27.646,-59.141 -41.98,-88.462c-43.045,-88.075 -89.237,-174.4 -144.908,-255.308c-29.529,-42.917 -61.625,-83.75 -99.792,-119.467c-22.97,-21.496 -47.812,-40.396 -76.07,-54.596c-55.813,-28.046 -111.425,-27.562 -166.967,0.696c-26.346,13.404 -49.688,31.042 -71.396,50.925c-33.083,30.308 -61.458,64.742 -87.762,100.933c-44.375,61.054 -82.121,126.171 -117.492,192.721c-28.146,52.963 -54.279,106.925 -79.467,161.35c-1.675,3.625 -3.208,7.325 -4.991,10.904c-4.467,8.971 -5.425,9.504 -15.596,6.259c-12.054,-3.842 -24.025,-7.959 -35.934,-12.225c-12.545,-4.496 -12.737,-4.934 -10.216,-17.055c2.846,-13.691 5.95,-27.333 8.758,-41.033c17.283,-84.221 31.85,-168.896 40.758,-254.446c6.15,-59.083 8.371,-118.362 4.759,-177.704c-2.517,-41.362 -9.063,-82.087 -23.538,-121.196c-5.8,-15.671 -12.95,-30.679 -21.908,-44.796c-26.858,-42.316 -65.433,-67.45 -114.208,-77.233c-32.334,-6.487 -64.934,-6.087 -97.521,-2.133c-74.063,8.991 -143.992,32.704 -212.746,60.362c-93.483,37.609 -182.988,83.459 -271.263,131.817c-11.687,6.4 -23.275,12.987 -35.004,19.304c-6.133,3.3 -8.279,3.108 -12.071,-1.692c-9.916,-12.545 -19.55,-25.316 -29.3,-37.991c-3.037,-3.946 -2.054,-7.346 1.384,-10.421c3.971,-3.554 7.95,-7.104 11.937,-10.646c72.8,-64.65 143.75,-131.217 209.496,-203.137c36.463,-39.892 71.013,-81.338 101.567,-125.992c22.262,-32.525 42.162,-66.396 56.425,-103.267c10.629,-27.491 17.616,-55.704 17.937,-85.558c0.479,-44.392 -15.437,-81.896 -45.1,-114.133c-17.733,-19.275 -38.321,-35.03 -60.65,-48.605c-36.637,-22.27 -75.941,-38.591 -116.366,-52.441c-54.296,-18.6 -109.938,-32.121 -166.142,-43.304c-71.238,-14.18 -143,-25.125 -215.2,-33.171c-22.508,-2.509 -45.008,-5.092 -67.504,-7.75c-7.892,-0.934 -8.909,-1.996 -9.634,-9.971c-1.387,-15.304 -1.212,-30.621 0.096,-45.929c0.396,-4.659 2.979,-7.071 7.579,-7.6c22.509,-2.584 45.017,-5.113 67.505,-7.834c110.508,-13.379 220.412,-30.091 327.925,-59.87c45,-12.463 89.079,-27.455 131.287,-47.642c22.296,-10.667 43.688,-22.846 63.7,-37.358c15.15,-10.992 29.104,-23.346 41.438,-37.48c35.754,-40.975 47.15,-88.637 38.354,-141.566c-4.954,-29.8 -15.725,-57.75 -29.038,-84.771c-19.529,-39.633 -44.1,-76.05 -70.883,-111.038c-36.525,-47.708 -76.783,-92.141 -118.721,-135.104c-54.037,-55.362 -110.762,-107.879 -168.65,-159.162c-13.846,-12.267 -13.808,-10.834 -2.917,-25.109c6.875,-9.008 13.68,-18.07 20.771,-26.904c6.625,-8.258 7.717,-8.5 16.571,-3.716c14.654,7.92 29.133,16.162 43.767,24.116c79.633,43.3 160.333,84.421 244.108,119.242c54.183,22.525 109.229,42.508 166.5,55.846c37.088,8.637 74.504,14.65 112.742,14.196c19.412,-0.23 38.512,-2.817 57.346,-7.459c45.57,-11.225 80.729,-36.833 105.512,-76.654c19.308,-31.029 29.658,-65.337 36.517,-100.883c8.508,-44.084 9.904,-88.684 9.325,-133.392c-0.921,-70.783 -9.134,-140.883 -19.792,-210.775c-9.746,-63.9 -22,-127.317 -35.567,-190.496c-0.558,-2.604 -1.158,-5.208 -1.5,-7.841c-0.583,-4.525 1.155,-7.513 5.73,-9.046c10.733,-3.6 21.441,-7.292 32.037,-11.279c6.083,-2.292 13.146,-2.546 17.813,-8.021l4,-0Z" style="fill-rule:nonzero;"/><path d="M2374.74,2603.93c40.475,-0.929 85.508,-4.967 129.825,-15.221c76.95,-17.804 147.704,-48.95 209.879,-98.275c42.784,-33.941 78.208,-74.208 103.596,-122.821c33.542,-64.233 44.246,-131.983 30.65,-203.358c-9.271,-48.646 -29.842,-92.279 -59.008,-132c-33.18,-45.192 -74.642,-81.358 -122.325,-110.462c-85.021,-51.896 -178.18,-76.096 -277.034,-80.255c-46.804,-1.97 -93.2,2.43 -139.062,11.555c-73.359,14.591 -141.621,41.804 -203.075,84.9c-52.592,36.883 -95.871,82.341 -126.084,139.516c-25.091,47.479 -37.9,98.196 -36.562,151.784c1.55,62.12 20.958,118.945 55.679,170.483c38.004,56.404 88.154,99.462 147.067,132.587c87.371,49.13 181.983,70.188 286.454,71.567m-154.767,978.154c0,-134.641 0.025,-269.279 -0.021,-403.921c-0.012,-29.1 2.105,-23.762 -24.095,-26.825c-69.555,-8.129 -138.342,-20.325 -206.05,-38.383c-152.875,-40.775 -294.505,-105.292 -421.73,-200.046c-95,-70.75 -176.054,-154.716 -239.258,-255.291c-53.429,-85.021 -89.954,-176.717 -107.083,-275.796c-10.959,-63.367 -13.084,-127.134 -6.842,-191.204c15.067,-154.646 75.988,-290.1 172.229,-410.55c83.063,-103.955 184.909,-185.763 300.275,-251.184c112.709,-63.908 232.929,-108.062 359.284,-136.071c126.37,-28.012 254.325,-37.837 383.354,-31.2c203.087,10.442 395.825,60.075 575.4,157.092c90.233,48.746 172.762,108.221 245.766,180.408c89.296,88.3 159.225,189.584 203.18,307.85c22.387,60.238 36.67,122.346 42.491,186.459c14.534,160.079 -22.125,308.266 -103.25,446.054c-59.604,101.229 -137.979,185.95 -230.191,258.142c-115.721,90.6 -245.013,155.141 -384.917,198.966c-81.567,25.554 -164.821,43.334 -249.8,52.875c-9.267,1.042 -18.525,2.179 -27.775,3.371c-7.617,0.983 -8.763,2.158 -9.092,10.258c-0.266,6.655 -0.133,13.33 -0.133,19.992c-0.004,267.283 -0.004,534.567 -0,801.85c-0,10.658 0.271,21.292 -3.171,31.663c-2.337,7.045 -5.392,13.616 -9.983,19.433c-6.484,8.225 -14.721,13.429 -25.371,14.2c-4.646,0.337 -9.308,0.608 -13.967,0.612c-55.321,0.046 -110.646,0.038 -165.966,0.021c-3.996,0 -7.996,-0.116 -11.992,-0.262c-15.546,-0.571 -26.158,-8.754 -33.346,-21.946c-4.517,-8.288 -7.337,-17.158 -7.687,-26.65c-0.25,-6.658 -0.25,-13.329 -0.25,-19.992c-0.013,-133.308 -0.009,-266.616 -0.009,-399.925" style="fill-rule:nonzero;"/><path d="M2007.57,4018.02c-48.175,-0.704 -92.22,-10.683 -135.612,-24.179c-72.958,-22.696 -141.4,-54.938 -204.908,-97.471c-26.071,-17.458 -50.63,-36.85 -72.475,-59.487c-13.93,-14.438 -26.467,-29.959 -35.759,-47.863c-6.175,-11.904 -10.812,-24.3 -11.55,-37.917c-0.775,-14.241 1.554,-27.612 7.934,-40.625c39.275,-80.141 100.983,-134.75 185.966,-161.833c174.95,-55.754 358.55,52.308 395.629,232.075c12.613,61.146 6.342,120.288 -16.033,178.429c-11.092,28.813 -31.425,45.288 -60.158,53.225c-18.179,5.025 -36.8,5.617 -53.034,5.646" style="fill-rule:nonzero;"/><path d="M2591.93,3836.22c0.633,-146.737 104.354,-274.579 248.895,-301.654c111.575,-20.896 207.75,11.325 287.438,92.908c24.058,24.63 28.825,52.971 21.925,84.746c-4.704,21.646 -14.017,41.567 -24.829,60.809c-13.429,23.891 -29.304,46.095 -46.888,67.05c-59.229,70.595 -128.625,129.216 -208.437,175.316c-32.979,19.05 -67.425,34.863 -104.917,43.029c-15.679,3.417 -31.471,4.892 -47.592,3.605c-23.279,-1.863 -41.791,-11.75 -56.396,-29.988c-29.199,-36.458 -49.67,-77.171 -60.399,-122.608c-3.205,-13.575 -5.313,-27.463 -7.038,-41.317c-1.313,-10.542 -1.225,-21.258 -1.762,-31.896" style="fill-rule:nonzero;"/><path d="M3998.54,5229.83c0,1.896 -0.037,3.204 0.017,4.513c0.025,0.645 0.229,1.287 0.35,1.929c0.583,3.058 3.283,4.125 5.633,1.933c1.859,-1.733 3.813,-3.75 4.692,-6.033c1,-2.596 -4.196,-7.75 -7.388,-7.575c-3.804,0.212 -2.979,3.446 -3.304,5.233m241.467,-331.071c0.708,-19.437 -1.883,-40.591 -5.567,-61.575c-4.033,-22.958 -9.637,-45.554 -19.341,-66.916c-6.659,-14.667 -14.955,-28.2 -26.896,-39.255c-7.446,-6.891 -15.834,-11.958 -25.704,-14.708c-35.33,-9.846 -70.959,5.858 -87.196,38.758c-6.538,13.242 -9.979,27.409 -12.313,41.95c-5.775,35.942 -2.912,71.692 2.1,107.375c2.779,19.796 7.392,39.221 14.338,58.009c6.033,16.329 14.266,31.371 25.262,45.037c32.946,40.938 93.384,26.321 113.396,-6.858c8,-13.263 13.658,-27.288 17.183,-42.313c4.45,-18.962 5.138,-38.2 4.738,-59.504m-86.154,551.113c28.796,0.421 57.233,-2.554 85.179,-9.417c25.412,-6.246 49.425,-15.787 70.621,-31.6c28.591,-21.329 40.741,-49.904 38.17,-85.225c-1.612,-22.137 -12.562,-37.679 -32.92,-45.942c-9.805,-3.975 -20.213,-6.8 -30.588,-8.966c-31.437,-6.571 -63.333,-8.146 -95.387,-7.75c-37.313,0.462 -74.65,0.716 -111.592,-5.713c-6.058,-1.054 -10.196,0.646 -14.213,4.746c-17.32,17.671 -33.32,36.375 -44.795,58.467c-3.667,7.058 -7.08,14.421 -9.292,22.029c-9.096,31.3 -2.096,61.917 28.025,82.525c11.667,7.983 24.287,13.733 37.754,17.842c25.8,7.87 52.35,9.204 79.038,9.004m-906.842,-466.509c0,-6.008 0.117,-16.004 -0.021,-25.995c-0.45,-31.975 -0.475,-63.963 -3.429,-95.859c-2.404,-25.987 -7.358,-51.4 -16.358,-75.937c-6.238,-17.009 -14.554,-32.904 -26.475,-46.679c-9.325,-10.775 -20.288,-19.142 -34.454,-22.75c-24.6,-6.263 -46.175,0.07 -65.188,15.95c-18.458,15.42 -29.625,35.77 -37.25,58.187c-10.996,32.321 -17.225,65.671 -20.375,99.596c-5.258,56.625 -3.871,113.15 3.804,169.483c4.329,31.775 11.521,62.867 24.079,92.538c5.217,12.321 11.6,23.946 19.784,34.591c26.312,34.23 66.708,32.68 92.966,16.217c15.955,-10.004 29.955,-22.254 40.15,-38.346c6.413,-10.129 12.359,-20.562 18.963,-30.562c5.004,-7.575 6.596,-15.534 6.358,-24.546c-1.075,-40.625 -1.696,-81.263 -2.554,-125.888m-254.217,235.196c-2.275,-5.529 -4.183,-11.25 -6.887,-16.562c-22.067,-43.388 -32.709,-89.925 -38.488,-137.854c-4,-33.175 -4.683,-66.484 -4,-99.825c1.275,-62.355 9.992,-123.455 31.688,-182.28c6.933,-18.791 15.112,-37.008 25.371,-54.237c8.558,-14.375 18.366,-27.879 30.487,-39.45c42.471,-40.546 92.521,-53.292 149.333,-39.496c15.034,3.654 28.43,11.292 41.009,20.242c3.254,2.321 6.308,4.921 9.546,7.262c2.587,1.867 4.962,5.538 8.425,4.113c4.779,-1.967 2.716,-6.921 2.779,-10.575c0.133,-7.317 -0.484,-14.646 -0.604,-21.971c-0.963,-57.979 -1.863,-115.958 -2.834,-173.933c-0.233,-13.888 -0.812,-27.75 -4.691,-41.471c-15.405,-0.25 -26.125,11.137 -40.434,13.808c-9.037,-13.396 -14.141,-28.621 -21.191,-42.842c-1.713,-3.458 -0.771,-6.466 2.375,-8.62c1.637,-1.121 3.475,-1.963 5.258,-2.855c37.537,-18.775 75.054,-37.604 112.654,-56.262c9.458,-4.692 9.863,-4.404 17.279,2.842c1.429,1.395 2.563,3.137 4.125,4.341c10.304,7.946 13.267,18.092 13.413,31.221c1.162,105.963 3.104,211.921 4.887,317.879c1.254,74.634 2.654,149.267 3.959,223.9c1.362,77.967 2.595,155.938 4.104,233.9c0.304,15.9 1.554,31.788 3.571,47.634c10.475,1.375 17.841,-3.742 25.479,-7.421c17.366,-8.354 16.312,-8.392 24.696,8.941c2.033,4.2 3.866,8.5 6.108,12.58c1.962,3.57 7.487,3.541 10.092,0.27c3.004,-3.77 4.433,-8.104 5.191,-12.8c1.917,-11.858 3.429,-23.729 3.179,-35.795c-0.929,-44.642 -1.808,-89.284 -2.591,-133.93c-0.942,-53.975 -1.709,-107.958 -2.671,-161.933c-0.604,-33.987 -1.192,-67.975 -2.233,-101.946c-0.867,-28.15 -1.75,-28.541 -26.313,-16.937c-19.646,9.279 -17.042,11.358 -26.867,-9.75c-4.216,-9.054 -8.399,-18.129 -12.504,-27.238c-0.521,-1.158 -0.45,-2.579 -0.662,-3.921c2.675,-4.162 7.221,-5.637 11.325,-7.737c36.183,-18.504 72.333,-37.067 108.583,-55.442c10.863,-5.508 10.988,-5.258 18.967,2.529c17.808,17.384 18.016,17.38 18.441,43.246c0.834,50.65 1.221,101.309 2.138,151.954c1.917,105.95 4.025,211.896 6.137,317.842c0.25,12.654 1.255,25.2 3.938,37.704c2.321,10.804 8.721,16.046 18.804,17.809c14.542,2.541 29.208,2.158 43.863,1.183c5.358,-0.358 8.291,-3.842 9.875,-8.563c3,-8.916 4.445,-18.125 4.425,-27.525c-0.075,-28.658 0.041,-57.325 -0.409,-85.979c-1.462,-93.962 -3.046,-187.925 -4.821,-281.883c-0.379,-19.979 -1.604,-39.95 -2.787,-59.908c-0.583,-9.767 -3.379,-11.375 -12.925,-7.542c-8.025,3.221 -15.75,7.183 -23.625,10.783c-4.404,2.013 -7.833,0.742 -9.854,-3.546c-5.971,-12.65 -11.879,-25.329 -17.629,-38.079c-1.559,-3.446 -0.255,-6.541 2.829,-8.6c2.208,-1.471 4.654,-2.6 7.025,-3.816c35.6,-18.184 71.2,-36.363 106.812,-54.517c2.967,-1.513 5.988,-2.925 9.042,-4.242c2.712,-1.166 5.262,-0.508 7.308,1.479c5.725,5.575 11.334,11.275 17.034,16.875c4.016,3.942 5.85,8.555 5.795,14.292c-0.095,9.992 0.271,19.988 0.613,29.975c0.033,1.05 0.996,2.521 1.917,2.95c0.962,0.446 2.862,0.338 3.554,-0.342c3.808,-3.716 7.35,-7.704 11.016,-11.562c13.842,-14.567 28.796,-27.771 46.505,-37.525c27.779,-15.296 57.066,-21.358 88.666,-15.238c30.667,5.934 53.896,22.055 69.646,48.896c13.046,22.242 19.05,46.692 22.279,72.034c3.979,31.187 3.184,62.545 3.721,93.85c1.675,97.962 3.104,195.925 4.908,293.883c0.221,11.954 1.625,23.954 3.405,35.792c2.8,18.62 6.875,22.52 25.32,25.012c8.546,1.154 17.23,1.4 25.867,1.658c2.433,0.075 5.446,-0.091 6.942,-3.195c0.833,-3.542 -1.825,-6.009 -3.338,-8.763c-15.866,-28.858 -16.083,-58.512 -4.512,-88.704c6.004,-15.671 14.741,-29.854 24.887,-43.163c6.05,-7.937 12.346,-15.687 18.321,-23.262c0.783,-5.838 -3.425,-8.746 -6.192,-12.208c-26.954,-33.751 -41.308,-72.642 -47.529,-114.963c-6.071,-41.325 -5.225,-82.408 4.229,-123.146c9.067,-39.083 26.896,-73.562 54.296,-103.146c55.809,-60.262 141.25,-62.858 196.421,-33.025c2.342,1.267 4.838,2.342 6.967,3.913c5.441,4.021 10.646,3.687 16.8,1.087c13.483,-5.691 27.133,-11.121 41.033,-15.675c20.329,-6.662 41.229,-10.896 62.75,-11.091c5.988,-0.05 12.042,-0.063 17.958,0.712c34.638,4.554 41.725,40.342 30.142,60.479c-7.258,12.621 -19.025,18.417 -32.904,19.863c-15.242,1.591 -30.567,2.329 -45.854,3.5c-8.579,0.654 -17.292,0.816 -25.625,5.687c1.383,3.354 2.358,6.529 3.921,9.379c24.745,45.167 32.558,94.055 31.591,144.771c-0.621,32.859 -5.616,64.992 -17.608,95.829c-9.525,24.488 -22.938,46.559 -40.221,66.317c-51.587,58.963 -126.687,67.458 -185.829,43.846c-19.513,-7.796 -19.513,-7.829 -31.517,9.871c-4.5,6.633 -8.65,13.454 -10.979,21.212c-3.917,13.054 -0.558,23.575 10.575,31.571c9.388,6.742 20.283,9.733 31.483,11.988c23.688,4.775 47.692,5.1 71.675,5.212c28.663,0.138 57.321,-0.1 85.909,2.554c25.962,2.409 51.504,6.85 76.137,15.613c7.521,2.675 15.013,5.55 22.221,8.958c43.763,20.683 66.142,56.179 70.992,103.546c5.879,57.404 -12.729,106.367 -52.167,147.642c-46.791,48.979 -104.437,77.525 -171.025,88.016c-45.816,7.221 -91.608,7.004 -137.016,-3.787c-21.525,-5.117 -41.95,-13.079 -61.155,-24.063c-42.258,-24.179 -63.716,-61.204 -66.57,-109.296c-2.292,-38.6 7.975,-73.845 29.7,-105.791c3.741,-5.5 7.475,-11.013 11.145,-16.563c0.284,-0.425 0.038,-1.2 0.038,-1.887c-2.7,-4.234 -7.046,-2.692 -10.671,-2.642c-53.983,0.754 -107.958,1.658 -161.937,2.538c-4.663,0.075 -9.33,0.462 -13.98,0.304c-6.345,-0.221 -8.941,-2.313 -9.141,-8.117c-0.45,-13.317 -0.446,-26.65 -0.659,-39.979c-0.075,-4.813 2.438,-7.379 7.009,-7.954c3.958,-0.492 7.95,-0.725 11.929,-1.017c5.983,-0.446 12.004,-0.567 17.946,-1.312c19.571,-2.459 23.871,-6.855 26.5,-26.063c2.546,-18.575 2.066,-37.237 1.762,-55.892c-1.046,-63.975 -2.066,-127.95 -3.216,-191.925c-0.859,-47.979 -1.888,-95.95 -2.859,-143.925c-0.312,-15.433 -2.575,-30.579 -7.996,-45.058c-9.195,-24.542 -26.791,-33.358 -52.37,-26.912c-10.496,2.645 -20.025,7.266 -28.921,13.25c-24.125,16.216 -42.913,37.758 -60.45,60.583c-4.059,5.279 -3.854,11.075 -3.763,17.092c0.388,25.991 0.642,51.983 1.067,77.975c1.379,84.633 2.85,169.266 4.191,253.9c0.255,16.025 1.313,31.929 4.117,47.741c2.15,12.117 8.708,18.388 21.075,20.267c11.304,1.717 22.579,1.542 33.875,2.075c4.546,0.217 7.529,2.213 7.921,7.083c0.163,1.992 0.446,3.988 0.421,5.98c-0.183,13.262 1.617,26.57 -0.792,39.787c-12.516,6.729 -26.05,3.033 -39.071,3.375c-55.295,1.446 -110.608,2.258 -165.916,3.25c-7.242,0.133 -14.1,-0.108 -21.342,-3.058c-6.379,-2.6 -14.4,-1.579 -21.687,-1.484c-43.317,0.58 -86.634,1.367 -129.95,2.05c-3.996,0.067 -8.005,0.03 -11.992,-0.2c-2.688,-0.154 -5.129,-1.045 -6.392,-3.82c-1.271,-2.792 -0.541,-7.488 -4.846,-7.53c-3.083,-0.025 -6.337,1.646 -9.258,3.084c-17.333,8.529 -34.542,17.321 -51.904,25.791c-9.529,4.646 -10.242,4.355 -17.554,-2.366c-0.492,-0.45 -0.975,-0.909 -1.442,-1.388c-18.167,-18.646 -15.904,-12.962 -16.608,-38.025c-0.204,-7.283 -0.029,-14.575 -0.029,-21.287c-5.355,-2.721 -6.892,0.766 -8.938,3.062c-6.65,7.459 -13.171,15.038 -19.929,22.4c-54.433,59.304 -144.792,50.004 -193.004,4.734c-10.738,-10.084 -20.304,-21.117 -28.634,-33.275c-2.554,-3.726 -4.041,-8.513 -8.954,-10.217l0.554,0.558Z" style="fill-rule:nonzero;"/><path d="M2385.15,6437.58c0.454,-0.946 1.221,-1.879 1.254,-2.838c0.025,-0.616 -1.029,-1.27 -1.6,-1.912c-0.233,0.533 -0.733,1.104 -0.654,1.583c0.179,1.079 0.642,2.113 1,3.167m-174.804,-257.396c-12.788,4.654 -22.334,10.646 -32.029,16.225c-30.125,17.346 -58.184,37.404 -82.55,62.446c-37.988,39.037 -48.496,85.908 -39.65,138.2c1.308,7.746 4.345,15.417 7.808,22.529c5.833,11.983 15.483,19.588 28.917,22.296c8.604,1.733 17,2.121 25.729,0.767c17.125,-2.663 31.346,-10.642 43.833,-22.209c16.688,-15.458 30.417,-33.446 44.375,-51.291c6.554,-8.38 8.992,-17.113 8.717,-27.609c-1.034,-39.262 -1.096,-78.55 -2.392,-117.8c-0.458,-13.829 1.146,-27.896 -2.758,-43.554m267.016,-242.233c5.463,-1.638 7.48,-7.004 10.817,-10.775c11.983,-13.538 24.708,-26.175 40.283,-35.621c24.317,-14.75 50.313,-20.629 78.542,-14.958c13.375,2.683 25.283,8.345 35.483,17.358c23.546,20.796 28.021,57.4 11.18,83.883c-20.317,31.946 -69.45,31.142 -89.538,4.217c-2.783,-3.729 -5.058,-7.829 -7.708,-11.663c-3.888,-5.633 -6.95,-6.279 -13.546,-3.466c-8.858,3.783 -15.613,10.221 -21.579,17.433c-16.642,20.121 -29.538,42.704 -42.359,65.329c-2.787,4.921 -2.862,10.104 -2.733,15.471c0.617,25.313 1.275,50.629 1.684,75.946c0.866,53.983 1.47,107.967 2.412,161.946c0.546,31.316 1.5,62.625 2.35,93.937c0.254,9.338 1.637,18.496 3.65,27.679c2.954,13.492 10.971,20.792 24.225,22.938c16.483,2.667 33.146,4.583 49.762,3.929c27.575,-1.087 25.538,-0.154 25.609,26.183c0.016,7.33 0.262,14.659 0.158,21.984c-0.066,4.708 -2.966,7.358 -7.466,7.75c-5.301,0.458 -10.646,0.483 -15.971,0.579c-67.971,1.183 -135.942,2.429 -203.913,3.412c-8.321,0.121 -15.379,2.321 -22.458,6.721c-17.892,11.121 -37.554,13.025 -57.8,8.529c-24.767,-5.5 -41.017,-21.233 -50.496,-44.212c-3.529,-8.554 -5.962,-17.558 -8.812,-26.113c-5.855,-1.095 -6.888,3.634 -9.175,6.346c-5.588,6.621 -10.509,13.825 -16.355,20.192c-38.358,41.754 -85.483,57.362 -141.054,45.867c-25.808,-5.338 -46.508,-19.271 -62.208,-40.555c-10.417,-14.125 -17.979,-29.704 -22.433,-46.566c-11.846,-44.813 -11.559,-89.675 1.516,-134.204c9.409,-32.034 26.646,-59.425 50.95,-82.33c22.875,-21.55 47.563,-40.708 74.571,-56.883c32.029,-19.183 64.925,-36.767 98,-54.046c20.921,-10.933 17.908,-7.183 18,-30.337c0.092,-23.338 -0.721,-46.642 -3.346,-69.871c-1.658,-14.696 -5.529,-28.717 -11.179,-42.342c-6.087,-14.679 -16.958,-23.316 -32.262,-27.15c-18.646,-4.675 -37.071,-3.521 -55.325,1.538c-9.034,2.504 -17.417,6.729 -24.484,13.104c-10.333,9.325 -14.529,20.6 -9.891,34.167c2.362,6.908 5.27,13.65 8.262,20.32c4.654,10.38 8.621,20.905 10.1,32.296c3.558,27.442 -13.025,50.325 -40.275,55.096c-25.471,4.463 -46.358,-2.396 -59.729,-25.675c-3.208,-5.592 -7.075,-7.275 -12.908,-6.925c-35.255,2.121 -39.446,7.833 -40.684,38.275c-1.216,29.933 -0.375,59.971 0.079,89.954c1.005,65.971 1.967,131.95 3.85,197.896c0.363,12.654 -3.729,21.054 -12.391,29.625c-65.342,64.654 -143.717,99.688 -235.404,105.238c-42.838,2.591 -85.205,0.137 -126.896,-10.784c-75.154,-19.679 -134.575,-62.683 -182.242,-122.983c-36.567,-46.254 -59.383,-99.233 -74.829,-155.663c-15.567,-56.866 -22.858,-114.895 -24.258,-173.766c-1.592,-66.938 3.408,-133.184 20.112,-198.246c15.392,-59.954 39.746,-115.838 75.75,-166.4c36.1,-50.7 82.204,-88.863 140.771,-110.929c45.596,-17.179 92.987,-22.779 141.462,-19.746c18.625,1.167 37.175,3.187 55.43,7.342c29.429,6.704 57.508,16.541 83.029,33.241c9.312,6.092 18.541,12.934 30.546,16.125c3.995,-11.508 3.779,-22.833 2.979,-33.912c-1.192,-16.5 2.429,-16.492 16.783,-16.396c9.329,0.067 18.667,-0.325 27.992,-0.142c7.483,0.146 8.941,1.559 9.583,9.621c2.325,29.229 4.579,58.467 6.621,87.717c5.242,75.125 10.358,150.258 15.521,225.387c0.137,1.996 0.275,3.996 0.258,5.992c-0.033,4.625 -2.283,7.133 -7.408,7.287c-12.655,0.384 -25.321,0.667 -37.979,0.563c-7.146,-0.058 -8.513,-1.646 -9.596,-9.8c-3.246,-24.433 -6.359,-48.883 -11.604,-73.004c-7.101,-32.654 -16.513,-64.513 -31.73,-94.442c-7.279,-14.321 -15.783,-27.821 -26.304,-39.983c-20.221,-23.384 -45.487,-38.996 -75.166,-47c-44.738,-12.067 -89.675,-11.917 -134.271,0.733c-35.492,10.067 -65.309,29.558 -90.204,56.746c-25.559,27.912 -43.659,60.4 -58.13,95.025c-19.666,47.058 -30.766,96.283 -36.745,146.846c-5.892,49.841 -5.95,99.804 -3.2,149.737c2.979,54.046 11.587,107.288 27.983,159.038c17.008,53.687 44.054,101.216 85.946,139.671c38.116,34.987 82.729,54.929 134.204,60.508c41.771,4.525 82.475,1.146 122.129,-12.917c27.438,-9.729 51.175,-25.421 72.271,-45.366c5.737,-5.425 7.937,-11.259 7.758,-19.384c-1.766,-79.958 -2.991,-159.925 -4.604,-239.883c-0.2,-9.958 -1.254,-19.971 -2.808,-29.817c-1.921,-12.162 -9.029,-20.412 -20.934,-24.441c-15.241,-5.15 -30.883,-7.971 -46.887,-9.442c-39.9,-3.667 -79.883,-3.533 -119.879,-3.104c-18.138,0.196 -18.417,0.471 -18.279,-17.025c0.095,-12.379 -3.538,-25.071 1.983,-37.188c11.658,-3.766 23.696,-1.929 35.542,-2.137c98.625,-1.754 197.254,-3.188 295.883,-4.846c20.075,-0.338 17.392,-0.763 19.725,-17.317c6.283,-44.55 31.258,-75.446 69.529,-96.783c18.846,-10.508 39.304,-16.475 60.588,-19.354c26.6,-3.596 53.233,-3.784 79.47,2.65c39.85,9.771 69.313,32.962 87.813,69.737c11.212,22.288 17.096,46.117 20.137,70.759c3.113,25.195 3.196,50.52 3.58,75.85c1.633,107.958 3.304,215.916 5.195,323.875c0.175,9.937 1.955,19.858 3.167,29.762c0.108,0.888 1.533,2.204 2.413,2.258c1.104,0.067 2.775,-0.65 3.341,-1.562c6.384,-10.275 9.579,-21.908 13.779,-33.104c7.121,-18.984 2.98,-17.863 24.738,-18.342c6.667,-0.146 13.337,0 19.996,-0.246c14.954,-0.554 15.35,-0.625 15.146,-16.404c-0.417,-31.987 -1.45,-63.962 -1.98,-95.946c-0.895,-54.646 -1.45,-109.3 -2.437,-163.946c-0.767,-42.641 -1.738,-85.287 -3.075,-127.916c-0.742,-23.634 -2.454,-24.5 -24.013,-14.375c-22.454,10.55 -19.341,11.746 -29.908,-10.625c-3.979,-8.434 -7.779,-16.954 -11.633,-25.446c-1.321,-2.908 -0.021,-5.196 2.208,-6.842c2.129,-1.566 4.525,-2.796 6.887,-4.008c37.363,-19.117 74.721,-38.25 112.138,-57.267c8.267,-4.2 8.762,-3.937 15.646,2.392c19.108,17.558 19.033,17.562 20.012,44.758c0.154,4.309 -1.896,9.275 2.954,13.163" style="fill-rule:nonzero;"/><path d="M5520.5,6114.77c-0.004,-0.483 -0.004,-0.966 -0.008,-1.454c21.929,0 43.858,0.017 65.783,-0.012c4.65,-0.004 9.313,-0.017 13.946,-0.325c3.558,-0.242 6.313,-1.884 6.692,-5.879c0.191,-1.975 0.304,-3.988 0.158,-5.959c-2.804,-37.979 -9.287,-75.166 -24.721,-110.287c-2.925,-6.646 -6.7,-13.009 -10.75,-19.059c-22.987,-34.329 -66.079,-29.925 -87.471,-5.404c-8.837,10.129 -15.612,21.446 -21.079,33.642c-8.733,19.492 -14.962,39.821 -19.162,60.683c-3.146,15.613 -5.15,31.459 -7.421,47.234c-0.725,5.016 1.567,7.633 6.312,8.029c3.305,0.275 6.638,0.354 9.955,0.283c22.591,-0.462 45.179,-0.987 67.766,-1.492m125.584,-175.958c3.987,-10.079 2.066,-18.617 2.383,-26.883c0.342,-8.892 1.337,-10.346 10.467,-10.646c13.35,-0.442 26.558,-1.483 39.679,-4.279c29.525,-6.292 48.708,-23.259 56.287,-52.834c5.15,-20.087 8.471,-40.412 8.913,-61.183c0.237,-11.329 0.562,-22.658 1.104,-33.975c0.217,-4.492 2.762,-7.492 7.537,-7.587c13.992,-0.284 27.984,-0.6 41.975,-0.521c6.105,0.033 7.805,2.108 8.292,8.746c0.342,4.645 0.283,9.325 0.363,13.987c0.654,38.65 1.3,77.304 1.941,115.954c0.034,2 -0.021,4.004 0.096,6c0.6,10.313 1.825,11.692 11.525,11.996c5.992,0.188 11.996,0.004 17.996,-0.067c28.658,-0.325 57.321,-0.758 85.983,-0.962c9.275,-0.067 10.442,1.083 10.696,10.146c0.45,15.987 0.75,31.987 0.808,47.983c0.042,10.508 -1.758,12.388 -13.141,12.688c-21.988,0.579 -43.988,0.72 -65.979,1.025c-10,0.137 -20,0.166 -29.996,0.354c-15.904,0.291 -16.013,0.329 -15.913,17.241c0.134,22.663 0.334,45.33 0.725,67.988c1.417,81.3 2.6,162.608 4.571,243.9c0.729,29.937 1.167,60.025 6.888,89.604c2.02,10.438 4.429,20.863 7.629,30.988c5.029,15.908 14.896,26.112 32.921,27.216c18.504,1.129 30.462,-7.391 38.345,-23.108c7.571,-15.083 10.921,-31.383 13.259,-47.933c5.516,-39.038 6.487,-78.33 6.808,-117.671c0.213,-26.509 -3.983,-26.596 25.413,-26.713c1.333,-0.004 2.666,0.025 4,-0.021c26.075,-0.941 25.591,-3.037 25.325,23.917c-0.409,41.317 -0.63,82.629 -5.371,123.783c-2.371,20.559 -5.738,40.875 -10.717,60.95c-0.954,3.842 -1.654,7.788 -1.992,11.725c-0.175,2.071 1.434,3.821 3.68,3.659c3.966,-0.288 7.929,-0.859 11.85,-1.563c8.908,-1.604 14.162,-7.191 15.791,-15.879c2.334,-12.471 3.363,-25.104 3.188,-37.796c-0.413,-29.325 -0.963,-58.646 -1.438,-87.966c-1.929,-119.296 -3.825,-238.588 -5.783,-357.884c-1.292,-78.637 -2.583,-157.275 -4.113,-235.908c-0.258,-13.308 -1.558,-26.613 -2.7,-39.892c-0.675,-7.866 -2.779,-9.066 -10.5,-5.733c-8.55,3.696 -16.795,8.087 -25.245,12.025c-4.738,2.212 -7.642,1.275 -10.046,-2.858c-0.667,-1.15 -1.346,-2.321 -1.817,-3.555c-5.208,-13.629 -13.504,-26 -16.529,-40.516c9.842,-11.642 24.596,-14.984 37.3,-21.65c27.133,-14.238 54.767,-27.513 82.087,-41.404c6.525,-3.321 11.809,-4.175 17.7,1.716c21.946,21.921 18.567,12.963 19.105,42.584c1.879,103.958 3.716,207.92 5.645,311.875c0.08,4.475 -1.3,9.454 3.063,13.12c6.108,-2.037 8.883,-7.77 12.95,-12.004c14.858,-15.466 30.867,-29.433 49.875,-39.662c30.792,-16.567 63.217,-20.054 96.817,-11.159c24.983,6.617 43.841,21.871 57.47,43.692c11.113,17.788 17.517,37.392 21.23,57.829c2.858,15.725 4.737,31.6 4.991,47.671c1.488,94.633 3.092,189.267 4.834,283.896c0.537,29.317 1.629,58.621 2.42,87.933c0.275,10.046 1.775,19.875 4.338,29.6c2.067,7.842 6.654,12.496 14.575,14.713c10.45,2.925 21.029,3.175 31.712,3.154c17.83,-0.029 18.48,-0.883 18.446,19.05c-0.004,2.667 -0.012,5.333 0.025,8c0.438,33.079 4.604,28.675 -29.921,29.362c-51.308,1.025 -102.616,2.08 -153.925,3.1c-6.662,0.134 -13.329,0.209 -19.995,0.23c-20.821,0.066 -21.146,2.8 -21.33,-19.984c-0.058,-7.329 -0.325,-14.662 -0.341,-21.991c-0.025,-13.28 0.271,-13.342 12.933,-14.171c9.288,-0.609 18.554,-1.675 27.796,-2.8c3.271,-0.4 6.521,-1.354 9.642,-2.45c5.366,-1.888 8.808,-5.646 10.362,-11.254c3.417,-12.325 4.425,-24.917 4.296,-37.625c-0.35,-34.659 -0.658,-69.321 -1.229,-103.975c-1.059,-63.975 -2.159,-127.95 -3.513,-191.921c-0.591,-27.975 -1.737,-55.946 -2.862,-83.909c-0.492,-12.087 -3.296,-23.775 -8.263,-34.816c-8.429,-18.759 -20.862,-26.029 -41.325,-24.429c-12.946,1.008 -24.479,5.995 -35.379,12.754c-17.775,11.021 -32.354,25.604 -46.067,41.146c-21.558,24.437 -21.762,24.47 -21.225,56.77c1.746,105.296 3.646,210.588 5.609,315.875c0.2,10.655 0.979,21.313 1.979,31.921c0.558,5.929 2.154,11.759 3.217,17.642c1.641,9.104 7.483,13.792 16.2,15.312c5.233,0.917 10.5,1.821 15.787,2.188c5.975,0.417 11.992,0.15 17.988,0.321c10.495,0.3 11.183,0.862 11.454,11.571c0.3,11.991 0.454,23.991 0.266,35.983c-0.095,6.412 -1.95,8.121 -8.545,8.325c-15.321,0.475 -30.655,0.65 -45.984,0.946c-49.308,0.962 -98.616,2.108 -147.933,2.7c-7.533,0.091 -15.883,3.141 -22.708,-3.879c-2.971,-3.055 -6.005,0.512 -8.521,2.345c-26.634,19.388 -56.821,22.225 -87.871,17.05c-28.958,-4.82 -51.546,-20.762 -68.067,-45.12c-10.987,-16.196 -18.091,-34.1 -22.979,-52.909c-8.087,-31.112 -11.804,-62.833 -12.404,-94.929c-1.467,-78.633 -2.821,-157.271 -4.325,-235.9c-0.738,-38.65 -1.7,-77.292 -2.579,-115.937c-0.046,-1.996 -0.229,-3.988 -0.429,-5.975c-0.4,-3.98 -3.021,-6.067 -6.638,-6.009c-19.304,0.309 -38.608,0.767 -57.904,1.454c-3.192,0.113 -4.129,3.03 -3.225,5.85c1.217,3.792 2.804,7.471 4.325,11.163c14.854,36.017 22.958,73.646 27.333,112.237c2.484,21.892 4.059,43.805 3.879,65.825c-0.112,13.721 -0.425,14.1 -14.725,14.792c-11.316,0.546 -22.65,0.763 -33.975,0.925c-59.316,0.854 -118.637,1.617 -177.954,2.479c-11.329,0.163 -22.658,0.475 -33.975,1c-7.366,0.342 -9.458,2.559 -9.262,9.829c0.708,25.992 1.933,51.959 5.979,77.696c5.4,34.346 13.629,67.929 27.833,99.813c7.629,17.121 16.525,33.512 29.971,46.912c12.783,12.742 27.704,20.442 46.363,19.759c13.987,-0.513 25.85,-5.942 36.425,-14.559c15.233,-12.412 26.508,-27.996 35.429,-45.375c13.187,-25.687 21.304,-53.141 27.546,-81.15c3.766,-16.891 6.35,-34.041 9.67,-51.037c1.888,-9.625 3.45,-10.884 13.205,-11.125c10.662,-0.271 21.329,-0.434 31.991,-0.296c7.842,0.096 9.634,1.958 9.613,9.221c-0.017,4.662 -0.25,9.337 -0.688,13.979c-3.612,38.537 -9.216,76.742 -20.116,113.983c-8.463,28.909 -19.796,56.584 -36.425,81.875c-8.084,12.292 -17.305,23.613 -27.667,34.096c-56.279,56.938 -141.138,49.275 -190.358,5.363c-18.675,-16.659 -33.067,-36.496 -44.725,-58.434c-17.655,-33.216 -29.138,-68.625 -36.292,-105.441c-14.096,-72.559 -16.454,-145.634 -7.308,-218.9c6.066,-48.584 19.341,-95.234 42.233,-138.859c11.55,-22.021 25.367,-42.358 43.858,-59.104c39.013,-35.321 84.496,-46.367 135.479,-34.512c26.913,6.262 48.259,21.9 66.475,42.17c4.313,4.796 8.55,9.659 14.08,15.917" style="fill-rule:nonzero;"/><path d="M5221.06,6135.56c-0.65,-12.371 -0.792,-22.371 -1.763,-32.296c-2.979,-30.537 -8.45,-60.566 -19.462,-89.379c-5.979,-15.646 -13.592,-30.325 -24.638,-43.066c-8.471,-9.767 -18.566,-17.2 -30.996,-20.959c-34.445,-10.412 -71.55,5.459 -87.854,37.579c-7.616,15.005 -11.058,31.192 -13.487,47.763c-4.488,30.621 -2.309,61.158 1.212,91.558c2.984,25.779 8.434,51.163 18.463,75.342c6.162,14.862 14.233,28.417 24.629,40.796c30.379,36.166 89.879,25.525 110.871,-8.138c7.833,-12.562 13.425,-25.9 17.1,-40.187c5.187,-20.184 5.433,-40.788 5.925,-59.013m-85.646,548.371c22.712,-0.75 47.975,-2.404 72.817,-7.537c29.575,-6.117 57.708,-15.988 82.237,-34.371c29.975,-22.467 41.475,-52.638 37.333,-89.321c-2.025,-17.908 -11.129,-31.271 -27.22,-39.204c-7.692,-3.796 -16.009,-6.613 -24.325,-8.813c-36.392,-9.625 -73.734,-10.658 -111.021,-10.437c-18.654,0.108 -37.263,-0.071 -55.888,-0.796c-14.641,-0.567 -29.371,-0.633 -43.691,-4.058c-11.73,-2.805 -20.525,0.562 -27.867,9.962c-8.6,11.008 -18.213,21.238 -26.563,32.421c-9.187,12.296 -16.725,25.671 -21.112,40.55c-12.046,40.854 2.996,67.65 29.492,85.404c14.02,9.396 29.483,15.325 45.808,19.117c22.158,5.141 44.687,6.933 70,7.083m-276.392,-427.658c-0.054,-46.154 -6.425,-103.817 -16.391,-146.546c-7.28,-31.188 -16.992,-61.579 -32.363,-89.854c-10.546,-19.413 -23.021,-37.438 -40.283,-51.625c-36.829,-30.263 -86.454,-26.25 -118.092,9.462c-10.717,12.1 -18.379,26.054 -24.671,40.825c-11.058,25.963 -17.087,53.271 -19.558,81.179c-6.629,74.98 0.542,148.863 20.317,221.442c7.362,27.017 17.558,53.054 32.07,77.171c9.305,15.471 19.925,29.975 34.025,41.487c19.559,15.967 41.563,22.475 66.988,18.463c26.15,-4.125 45.342,-17.963 59.925,-39.188c12.579,-18.316 20.579,-38.716 26.179,-60.07c9.004,-34.342 12.454,-69.342 11.854,-102.746m87.688,-157.692c1.487,-13.962 2.65,-27.867 4.491,-41.679c6.417,-48.15 23.9,-91.646 57.65,-127.138c48.95,-51.475 108.35,-64.495 175.596,-44.279c8.838,2.659 17.446,6.829 25.35,11.629c8.154,4.955 15.092,5.834 24.025,1.505c18.004,-8.721 37.025,-15.021 56.571,-19.496c16.925,-3.879 33.979,-6.913 51.454,-6.092c4.642,0.217 9.379,0.396 13.863,1.467c19.671,4.691 30.887,18.641 31.391,38.516c0.509,20.08 -9.841,34.021 -29.6,39.734c-9.691,2.804 -19.65,3.321 -29.683,3.533c-16.537,0.342 -33.096,0.825 -48.771,6.1c-1.237,5.796 2.229,9.458 4.342,13.475c24.571,46.796 32.017,97.079 29.867,149.133c-1.413,34.192 -7.667,67.459 -21.842,98.95c-10.225,22.713 -23.6,43.259 -40.921,61.167c-48.337,49.983 -117.671,64.492 -181.971,38.171c-17.908,-7.329 -18.029,-7.413 -28.554,7.825c-3.775,5.458 -7.321,11.187 -10.1,17.196c-8.562,18.52 -3.771,32.191 14.079,41.716c11.992,6.404 25.138,8.9 38.363,10.404c26.504,3.021 53.096,4.417 79.829,3.713c36.717,-0.958 73.292,0.733 109.354,8.65c19.596,4.3 38.554,10.367 56.608,19.233c37.538,18.434 59.292,48.934 66.484,89.467c9.079,51.15 -2.046,98.171 -33.325,139.754c-34.292,45.583 -79.75,76.117 -133.167,94.929c-41.992,14.792 -85.504,19.625 -129.892,17.975c-26.779,-0.996 -53.041,-4.612 -78.658,-12.725c-14.033,-4.446 -27.487,-10.162 -40.45,-17.071c-45.146,-24.066 -68.125,-62.279 -70.879,-112.82c-1.979,-36.371 7.35,-69.946 27.158,-100.575c14.204,-21.963 31.638,-41.184 50.213,-59.463c6.108,-6.012 6.358,-7.05 -0.2,-12.554c-33.563,-28.163 -38.296,-76.633 -22.225,-113.65c7.496,-17.267 17.679,-32.808 29.254,-47.521c4.512,-5.733 9.142,-11.367 14.333,-17.812c-6.691,-9.313 -13.716,-18.038 -19.55,-27.496c-6.271,-10.179 -11.891,-20.834 -16.933,-31.679c-4.663,-10.03 -8.183,-20.584 -12.613,-31.946c-4.837,4.891 -2.866,9.65 -2.845,13.808c0.208,40.117 -2.988,79.883 -11.521,119.146c-8.267,38.042 -21.646,74.125 -41.467,107.708c-8.829,14.963 -19.067,28.875 -30.65,41.879c-71.2,79.95 -202.562,80.409 -274.942,-1.9c-30.47,-34.65 -51.02,-74.675 -64.808,-118.345c-13.117,-41.55 -19.662,-84.225 -20.908,-127.796c-1.429,-50.15 0.571,-99.934 12.896,-148.888c9.841,-39.091 24.754,-75.979 47.112,-109.646c20.692,-31.15 46.842,-56.32 81.217,-72.008c63.991,-29.192 155.791,-24.383 217.229,45.813c31.762,36.287 52.012,78.729 65.867,124.495c2.895,9.555 5.133,19.309 7.75,28.95c0.641,2.375 0.27,5.4 4.129,6.538" style="fill-rule:nonzero;"/><path d="M5887.63,4882.27l-0,-1.637c19.27,-0.001 38.541,0.041 57.812,-0.021c7.313,-0.025 14.625,-0.134 21.925,-0.496c5.975,-0.3 7.725,-2.492 7.871,-8.954c0.033,-1.325 0.029,-2.663 -0.075,-3.984c-2.8,-35.929 -8.696,-71.183 -22.558,-104.733c-4.596,-11.125 -10.067,-21.708 -18.23,-30.683c-6.337,-6.975 -13.562,-12.617 -22.783,-15.484c-21.9,-6.808 -40.642,-0.987 -56.8,14.325c-10.779,10.217 -17.816,23.059 -23.783,36.513c-12.217,27.542 -19.188,56.529 -23.688,86.187c-1.091,7.225 -1.945,14.488 -2.762,21.75c-0.438,3.892 1.437,6.484 5.367,6.813c4.616,0.392 9.279,0.383 13.92,0.387c21.263,0.038 42.521,0.017 63.784,0.017m413.904,220.825c3.4,-1.758 4.371,-4.921 5.229,-8.183c15.708,-59.913 31.379,-119.842 47.204,-179.725c1.946,-7.379 1.438,-14.259 -0.737,-21.546c-11.63,-38.929 -22.817,-77.988 -34.392,-116.933c-3.421,-11.5 -8.008,-22.584 -13.775,-33.167c-4.754,-8.729 -11.808,-14.363 -21.417,-16.596c-4.512,-1.046 -9.166,-2.062 -13.758,-2.062c-19.321,-0 -38.658,0.066 -57.963,0.791c-7.245,0.275 -14.483,2.138 -21.608,3.779c-4.45,1.025 -6.758,4.7 -5.854,9.08c2.154,10.42 4.204,20.941 7.454,31.05c34.279,106.516 68.779,212.962 103.238,319.42c1.6,4.942 2.516,10.221 6.379,14.092m-276.817,-97.042c14.858,-2.487 30.175,-1.341 45.433,-1.254c4.146,0.025 5.775,3.15 5.475,6.796c-1.366,16.596 -2.441,33.238 -4.554,49.746c-4.996,39.1 -13.283,77.454 -28.05,114.183c-11.283,28.067 -26.171,53.921 -46.862,76.192c-17.575,18.917 -38.071,33.775 -63.175,40.462c-44.375,11.825 -85.896,5.075 -123.383,-22.241c-21.413,-15.6 -37.188,-36.146 -50.167,-58.954c-19.984,-35.113 -32.396,-73.013 -40.075,-112.467c-13.992,-71.867 -16.446,-144.279 -7.521,-216.904c5.725,-46.563 17.979,-91.45 38.912,-133.709c10.713,-21.629 23.342,-42.025 40.421,-59.2c41.079,-41.3 90.096,-54.937 146.504,-40.15c24.584,6.442 44.3,21.104 61.284,39.642c4.375,4.775 8.658,9.633 12.808,14.258c5.158,-2.258 3.496,-6.058 3.85,-9.041c0.308,-2.63 0.029,-5.329 0.1,-7.992c0.342,-13.387 0.571,-13.758 13.042,-14.192c17.983,-0.62 35.966,-1.258 53.954,-1.5c51.987,-0.695 104.004,-0.35 155.958,-1.987c67.963,-2.142 135.934,-2.538 203.904,-3.592c2.667,-0.041 5.33,-0.254 7.996,-0.237c12.896,0.071 13.271,0.337 13.621,13.604c0.317,11.983 0.488,23.979 0.392,35.962c-0.034,4.596 -2.884,7.217 -7.638,7.404c-10.637,0.425 -21.3,-0.012 -31.854,2.28c-14.942,3.245 -16.408,4.566 -13.917,20.162c1.571,9.821 4.221,19.513 6.955,29.104c9.308,32.671 18.904,65.259 28.325,97.896c19.029,65.913 38.004,131.842 57.037,197.754c1.633,5.667 3.538,11.259 5.271,16.754c5.075,-0.808 5.567,-4.195 6.379,-7.425c15.917,-63.304 31.813,-126.612 47.804,-189.895c10.279,-40.684 20.834,-81.3 30.984,-122.013c2.408,-9.662 4.258,-19.542 5.345,-29.437c1.092,-9.921 -1.687,-13.28 -11.866,-14.65c-9.221,-1.242 -18.596,-1.38 -27.909,-1.817c-4.654,-0.221 -9.325,0.058 -13.987,-0.033c-3.933,-0.079 -6.325,-2.492 -6.467,-6.138c-0.571,-14.642 -0.971,-29.292 -1.091,-43.941c-0.038,-4.53 2.825,-7.263 7.533,-7.53c3.321,-0.187 6.654,-0.275 9.987,-0.325c52.65,-0.821 105.3,-1.708 157.95,-2.396c17.792,-0.233 17.905,-0.008 18.488,17.046c0.367,10.659 0.433,21.325 0.454,31.992c0.013,4.479 -2.008,7.629 -6.95,7.9c-5.321,0.296 -10.654,0.425 -15.975,0.729c-18.283,1.046 -31.946,8.821 -38.167,26.879c-4.112,11.954 -8.6,23.85 -11.666,36.084c-41.646,166.041 -83.004,332.15 -124.634,498.195c-5.495,21.917 -2.087,20.6 -26.025,20.788c-9.991,0.079 -19.983,0.292 -29.975,0.604c-5.6,0.175 -8.583,-2.871 -10.104,-7.737c-1.987,-6.359 -3.775,-12.775 -5.641,-19.167c-21.088,-72.254 -42.196,-144.5 -63.23,-216.767c-1.475,-5.079 -2.366,-10.337 -6.983,-16.35c-2.229,6.559 -4.317,11.692 -5.725,17.013c-19.954,75.329 -39.812,150.687 -59.7,226.033c-1.017,3.863 -2.225,7.683 -3.121,11.571c-1.225,5.337 -4.475,7.708 -9.9,7.821c-14.658,0.3 -29.312,0.691 -43.962,1.229c-4.688,0.175 -7.675,-1.954 -9.217,-6.021c-2.121,-5.604 -3.9,-11.333 -5.762,-17.029c-53.396,-163.346 -106.738,-326.708 -160.267,-490.008c-3.929,-11.992 -9.108,-23.584 -13.854,-35.305c-7.434,-18.35 -21.709,-26.087 -40.9,-26.033c-1.996,0.008 -4.017,-0.112 -5.979,0.154c-1.255,0.171 -2.421,0.954 -3.625,1.463c-1.288,5.079 1.812,8.962 3.708,13.104c18.529,40.408 28.275,83.042 33.129,127.063c2.421,21.908 3.696,43.82 3.667,65.829c-0.017,11.712 -0.696,12.458 -12.309,12.695c-57.97,1.188 -115.945,2.321 -173.92,3.376c-23.992,0.437 -47.992,0.458 -71.98,0.999c-9.945,0.221 -11.42,1.838 -11.337,11.971c0.479,57.088 8.375,112.896 29.546,166.3c6.9,17.4 15.183,34.105 27.129,48.721c9.45,11.567 20.567,20.638 35.217,25.15c16.508,5.084 31.65,1.946 46.008,-6.525c11.662,-6.879 20.629,-16.771 28.817,-27.387c11.929,-15.475 20.095,-32.93 26.833,-51.134c11.379,-30.741 18.392,-62.587 23.792,-94.829c1.095,-6.546 1.333,-13.287 5.412,-19.596" style="fill-rule:nonzero;"/><path d="M5572.12,5064.09c4.429,-3.988 2.55,-8.142 2.496,-11.796c-1.175,-75.288 -2.492,-150.575 -3.767,-225.863c-1.562,-91.945 -3.045,-183.891 -4.704,-275.833c-0.491,-27.313 -1.491,-54.617 -2.204,-81.925c-0.283,-10.721 -1.721,-21.229 -5.004,-31.475c-3.096,-9.65 -9.154,-15.85 -19.275,-18.283c-13.679,-3.288 -27.575,-4.546 -41.542,-5.421c-3.983,-0.25 -8.021,0.233 -11.987,-0.146c-9.738,-0.929 -21.879,4.467 -28.659,-3.033c-6.487,-7.184 -2.475,-19.171 -2.616,-28.984c-0.367,-25.637 -2.592,-23.95 23.087,-24.375c79.954,-1.316 159.904,-2.675 239.854,-4.02c2.667,-0.046 5.334,-0.205 7.996,-0.188c13.059,0.079 13.329,0.213 13.571,13.525c0.221,11.983 0.179,23.975 -0.004,35.963c-0.054,3.729 -2.467,6.133 -6.263,6.375c-5.312,0.337 -10.645,0.37 -15.97,0.475c-18.03,0.345 -35.988,1.904 -53.617,5.508c-20.663,4.225 -25.704,9.833 -28.3,30.417c-1.413,11.204 -2.179,22.591 -2.033,33.883c0.816,62.633 1.937,125.262 3.083,187.887c1.854,101.267 3.887,202.53 5.692,303.796c0.937,52.638 1.454,105.284 2.329,157.921c0.821,49.304 1.946,98.6 2.766,147.9c0.359,21.346 1.221,19.575 -19.008,20.238c-8.654,0.283 -17.379,-0.384 -25.975,0.429c-9.342,0.887 -14.396,-3.254 -18.983,-10.95c-31.05,-52.075 -62.509,-103.909 -93.817,-155.829c-107.342,-178.021 -214.679,-356.046 -322.017,-534.071c-1.033,-1.713 -2.02,-3.459 -3.166,-5.092c-2.604,-3.708 -4.209,-11.137 -8.367,-10.012c-6.312,1.704 -2.929,8.916 -2.854,13.75c1.033,69.295 2.133,138.587 3.404,207.879c1.867,101.929 3.892,203.862 5.829,305.791c0.359,18.655 0.704,37.313 0.888,55.967c0.104,10.763 2.033,21.208 4.766,31.542c3.025,11.429 10.43,18.175 22.025,20.512c13.096,2.638 26.255,4.517 39.659,4.434c11.325,-0.071 22.654,0.058 33.979,0.145c4.529,0.034 7.942,1.913 8.121,6.792c0.521,13.975 0.891,27.958 1.004,41.938c0.042,4.779 -3.225,7.012 -7.821,7.145c-11.987,0.342 -23.975,0.688 -35.967,0.896c-74.62,1.3 -149.241,2.559 -223.862,3.825c-2.663,0.046 -5.338,0.15 -7.992,0.004c-6.496,-0.358 -8.812,-2.125 -9.008,-8.1c-0.442,-13.316 -0.533,-26.645 -0.596,-39.97c-0.025,-4.546 2.263,-7.6 7.067,-7.888c5.316,-0.317 10.646,-0.408 15.975,-0.483c16.679,-0.234 33.316,-1.013 49.712,-4.359c4.55,-0.933 8.988,-2.404 13.517,-3.454c9.729,-2.258 14.417,-9.383 16.554,-18.171c2.833,-11.666 4.35,-23.575 4.088,-35.654c-0.596,-27.308 -1.196,-54.621 -1.634,-81.933c-0.85,-53.304 -1.437,-106.617 -2.4,-159.921c-1.833,-101.267 -3.941,-202.525 -5.758,-303.792c-0.813,-45.308 -1.188,-90.625 -1.792,-135.937c-0.079,-5.996 -0.491,-11.992 -0.446,-17.988c0.042,-4.966 -1.825,-9.008 -4.879,-12.729c-11.841,-14.404 -26.187,-24.496 -45.229,-26.771c-15.221,-1.82 -30.404,-3.512 -45.821,-2.862c-12.15,0.508 -13.321,-0.925 -13.862,-13.713c-0.45,-10.645 -0.567,-21.32 -0.517,-31.979c0.038,-8.371 1.938,-10.283 10.804,-10.571c11.988,-0.387 23.988,-0.308 35.984,-0.491c35.979,-0.55 71.958,-1.142 107.941,-1.696c3.996,-0.063 7.996,0.062 11.992,0.012c5.108,-0.066 8.962,2.046 11.608,6.4c2.767,4.559 5.546,9.109 8.304,13.667c133.425,220.646 266.834,441.304 400.33,661.904c3.945,6.525 6.833,14.046 13.291,18.838" style="fill-rule:nonzero;"/><path d="M2928.73,6229.96l-1.358,0c-0,-25.979 -0.071,-51.962 0.021,-77.941c0.079,-23.346 -0.842,-46.613 -3.892,-69.792c-3.496,-26.546 -9.321,-52.458 -20.592,-76.883c-7.029,-15.221 -15.783,-29.317 -28.291,-40.788c-12.321,-11.3 -26.667,-16.987 -43.53,-17.046c-22.004,-0.075 -40.062,8.388 -55.233,23.834c-15.8,16.079 -25.442,35.695 -32.25,56.829c-11.708,36.346 -18.117,73.767 -20.062,111.796c-2.45,47.95 -2.405,95.925 3.77,143.683c4.284,33.117 10.934,65.675 23.425,96.817c5.73,14.287 12.646,27.887 22.271,40.008c24.679,31.088 61.575,33.746 91.334,16.179c16.208,-9.571 30.158,-21.966 40.541,-37.912c5.45,-8.375 10.204,-17.221 15.967,-25.363c8.054,-11.379 10.867,-23.554 10.308,-37.533c-1.4,-35.271 -1.691,-70.588 -2.429,-105.888m3.408,232.575c-7.925,2.863 -9.608,7.605 -12.745,10.888c-6.905,7.217 -13.438,14.804 -20.563,21.796c-50.171,49.246 -123.558,44.5 -171.292,12.408c-17.941,-12.062 -32.4,-27.617 -44.454,-45.45c-21.558,-31.887 -35.071,-67.221 -43.758,-104.45c-13.421,-57.5 -16.925,-115.879 -14.158,-174.708c2.008,-42.675 7.066,-84.938 18.145,-126.329c7.775,-29.042 17.95,-57.163 31.925,-83.83c10.913,-20.812 24.171,-39.996 41.817,-55.637c40.779,-36.146 88.071,-48.146 141.142,-36.075c19.112,4.35 35.8,14.204 51.133,26.304c2.092,1.65 4.15,3.35 6.317,4.9c1.562,1.117 3.154,2.404 5.341,1.396c2.234,-1.029 2.2,-3.129 2.184,-5.004c-0.121,-17.321 -0.213,-34.646 -0.55,-51.963c-1.054,-53.95 -2.142,-107.9 -3.396,-161.842c-0.183,-7.966 -1.05,-15.941 -2.121,-23.845c-0.692,-5.125 -3.871,-6.971 -8.546,-5.05c-9.229,3.791 -18.35,7.875 -27.366,12.154c-4.542,2.15 -7.592,1.258 -9.663,-3.179c-6.704,-14.371 -13.375,-28.763 -20.3,-43.671c4.592,-2.717 7.871,-4.934 11.375,-6.696c36.3,-18.238 72.617,-36.45 108.975,-54.567c11.792,-5.875 11.858,-5.741 20.421,2.763c16.017,15.904 15.862,15.904 16.279,38.096c1.9,101.237 3.992,202.47 5.813,303.712c0.937,51.958 1.258,103.929 2.2,155.888c1.966,108.566 4.12,217.133 6.312,325.7c0.204,9.975 1.004,19.954 1.963,29.887c0.458,4.746 4.02,6.642 8.77,4.679c9.225,-3.804 18.3,-7.975 27.355,-12.175c4.566,-2.12 7.729,-0.762 9.729,3.475c5.971,12.642 11.791,25.359 17.704,38.03c2.204,4.725 0.042,7.454 -4.042,9.516c-19.016,9.609 -37.996,19.304 -57.033,28.879c-20.225,10.171 -40.588,20.075 -60.7,30.467c-5.767,2.975 -9.958,2.175 -14.058,-2.442c-2.209,-2.483 -4.563,-4.891 -7.125,-7c-8.875,-7.312 -12.621,-16.391 -11.925,-28.045c0.55,-9.163 -0.634,-18.43 -1.105,-28.98" style="fill-rule:nonzero;"/><path d="M4283.45,6037.12c1.604,100.584 3.146,201.163 4.858,301.742c0.342,19.979 1.255,39.946 2.075,59.912c0.355,8.655 1.571,17.163 4.005,25.588c3.274,11.337 9.833,18.417 21.629,20.867c9.154,1.904 18.275,3.745 27.645,3.895c14.659,0.234 29.317,0.271 43.967,0.634c10.046,0.25 11.059,1.3 11.371,11.887c0.333,11.317 0.467,22.65 0.333,33.975c-0.108,9.321 -0.408,9.729 -10.508,10.292c-14.625,0.812 -29.275,1.346 -43.925,1.571c-59.287,0.916 -118.579,1.595 -177.863,2.52c-22.645,0.35 -45.279,1.23 -67.92,1.65c-12.554,0.234 -12.971,-0.166 -13.646,-13.512c-0.575,-11.308 -0.788,-22.642 -0.8,-33.963c-0.004,-6.241 2.1,-8.358 8.283,-8.75c14.625,-0.92 29.309,-1.162 43.888,-2.52c10.566,-0.984 21.091,-2.925 31.483,-5.159c10.629,-2.279 17.171,-8.987 20.283,-19.741c3.396,-11.742 3.996,-23.705 3.821,-35.634c-1.025,-71.271 -2.487,-142.537 -3.658,-213.812c-0.825,-49.959 -1.242,-99.925 -2.15,-149.888c-1.888,-103.9 -3.988,-207.796 -5.983,-311.696c-0.28,-14.654 -0.338,-29.316 -0.784,-43.966c-0.191,-6.329 -2.196,-8.213 -8.558,-8.4c-7.321,-0.213 -14.654,0.016 -21.979,0.116c-29.979,0.4 -59.963,0.625 -89.929,1.35c-9.959,0.242 -19.925,1.484 -29.809,2.821c-12.929,1.75 -21.65,9.013 -26.971,21.046c-5.441,12.313 -8.741,25.204 -10.937,38.317c-4.071,24.304 -7.542,48.712 -8.925,73.354c-0.113,1.996 -0.275,3.992 -0.438,5.983c-1.95,23.529 -1.95,23.509 -25.312,21.784c-7.308,-0.538 -14.646,-0.734 -21.933,-1.471c-7.042,-0.717 -8.95,-2.979 -8.688,-10.563c0.413,-11.983 1.025,-23.966 1.871,-35.929c3.825,-53.821 7.762,-107.637 11.662,-161.454c0.242,-3.321 0.392,-6.658 0.805,-9.958c1.445,-11.492 2.179,-12.48 13.4,-12.734c23.312,-0.525 46.637,-0.587 69.95,-0.987c98.579,-1.692 197.158,-3.454 295.737,-5.154c59.279,-1.021 118.563,-1.971 177.846,-2.946c2.662,-0.046 5.325,-0.071 7.983,-0.004c3.742,0.091 6.338,2.004 7.271,5.558c0.842,3.204 1.329,6.525 1.663,9.829c5.687,56.325 11.32,112.658 16.979,168.992c1.133,11.266 2.583,22.504 3.408,33.791c0.608,8.242 -0.537,9.7 -8.05,10.709c-12.533,1.679 -25.108,3.137 -37.708,4.225c-6.009,0.521 -8.238,-1.746 -9.042,-8.029c-2.962,-23.117 -5.329,-46.321 -8.854,-69.346c-2.213,-14.438 -5.867,-28.675 -9.338,-42.888c-1.245,-5.116 -3.933,-9.875 -5.808,-14.854c-6.108,-16.2 -18.3,-23.867 -35.071,-25.154c-3.321,-0.254 -6.654,-0.575 -9.979,-0.538c-40.637,0.471 -81.275,1.005 -121.908,1.525c-1.334,0.017 -2.663,0.113 -3.996,0.167c-4.688,0.2 -7.475,2.617 -7.8,7.292c-0.321,4.641 -0.392,9.321 -0.317,13.975c1.034,65.279 2,130.562 3.213,195.837c0.979,52.617 2.271,105.225 3.425,157.838c-0.092,0.004 -0.179,0.008 -0.267,0.008" style="fill-rule:nonzero;"/><path d="M1953.22,4802.61c1.966,116.567 3.95,233.13 5.887,349.696c0.188,11.363 1.483,22.542 3.696,33.704c3.083,15.55 11.667,24.367 27.633,27.071c19.842,3.359 39.734,4.117 59.738,3.742c17.2,-0.325 18.396,-1.308 18.846,18.887c0.175,7.992 0.62,15.975 0.733,23.967c0.162,11.254 -1.333,13.029 -12.179,13.275c-21.313,0.483 -42.634,0.642 -63.946,1.008c-72.604,1.234 -145.213,2.392 -217.813,3.813c-21.9,0.429 -20.754,-0.333 -20.8,-20.679c-0.02,-8.659 -0.37,-17.325 -0.154,-25.979c0.184,-7.317 2.017,-9.067 9.779,-9.455c10.646,-0.533 21.313,-0.57 31.963,-0.995c14.692,-0.588 29.075,-3.059 43.287,-6.888c10.155,-2.737 15.971,-9.404 18.434,-19.058c2.971,-11.642 4.625,-23.504 4.354,-35.6c-0.767,-34.634 -1.529,-69.263 -2.1,-103.896c-0.875,-53.292 -1.442,-106.592 -2.404,-159.879c-1.829,-101.238 -3.934,-202.471 -5.75,-303.713c-0.804,-44.629 -1.042,-89.271 -1.825,-133.904c-0.546,-31.179 1.308,-26.262 -27.413,-26.129c-31.979,0.146 -63.954,0.746 -95.933,1.2c-9.996,0.142 -19.863,1.033 -29.742,3.083c-12.275,2.546 -20.233,9.559 -25.133,20.596c-7.367,16.608 -10.917,34.267 -13.104,52.133c-3.154,25.771 -5.629,51.63 -8.35,77.459c-1.063,10.1 -2.125,11.441 -12.292,10.883c-11.962,-0.654 -23.883,-1.996 -35.821,-3.083c-4.596,-0.421 -7.321,-2.75 -7.175,-7.646c0.113,-3.996 0.192,-7.996 0.488,-11.979c4.796,-64.434 9.629,-128.867 14.45,-193.3c0.2,-2.659 0.287,-5.329 0.608,-7.975c0.833,-6.863 1.933,-8.25 8.563,-8.471c17.975,-0.6 35.958,-0.988 53.941,-1.304c78.596,-1.379 157.196,-2.692 235.796,-4.046c76.6,-1.321 153.2,-2.663 229.796,-4.004c11.987,-0.213 23.971,-0.575 35.954,-0.725c4.683,-0.059 7.271,2.491 7.796,7.191c2.371,21.18 4.992,42.334 7.121,63.538c4.716,47.054 9.187,94.133 13.758,141.204c0.321,3.317 0.788,6.625 0.908,9.946c0.134,3.654 -1.333,6.796 -5.2,7.3c-13.858,1.804 -27.75,3.396 -41.65,4.846c-3.662,0.383 -6.516,-1.417 -7.062,-5.342c-1.283,-9.233 -2.458,-18.483 -3.513,-27.746c-2.866,-25.154 -6.22,-50.225 -12.125,-74.883c-2.8,-11.692 -6.595,-23.017 -12.329,-33.663c-5.829,-10.829 -14.712,-16.97 -26.916,-18.166c-7.292,-0.717 -14.613,-1.729 -21.909,-1.646c-37.971,0.417 -75.937,1.133 -113.904,1.792c-2.646,0.045 -5.321,0.291 -7.929,0.762c-2.892,0.521 -4.7,2.567 -4.896,5.421c-0.321,4.633 -0.375,9.296 -0.3,13.942c1.363,83.929 2.775,167.858 4.15,251.787c0.558,33.971 1.05,67.942 1.571,101.917c0.137,-0.004 0.279,-0.009 0.417,-0.009" style="fill-rule:nonzero;"/><path d="M3392.01,5992.09c-7.35,-15.65 -13.879,-29.442 -20.287,-43.288c-1.963,-4.237 -0.884,-7.733 3.341,-10.033c1.754,-0.95 3.525,-1.879 5.304,-2.787c36.759,-18.796 73.484,-37.663 110.317,-56.321c10.383,-5.259 10.8,-4.929 18.958,3.112c0.475,0.467 0.854,1.046 1.375,1.446c12.479,9.675 18.009,21.883 16.613,38.083c-0.559,6.492 -3.6,14.525 3.033,20.421c6.709,-2.337 9.788,-8.658 14.329,-13.3c14.054,-14.358 29.159,-27.266 46.725,-37.229c29.213,-16.567 60.5,-20.375 92.8,-13.65c27.321,5.683 48.404,21.383 63.113,45.346c13.879,22.612 20.283,47.575 23.712,73.571c3.759,28.508 3.238,57.175 3.709,85.808c1.646,99.913 3.1,199.829 4.908,299.742c0.229,12.616 1.596,25.275 3.367,37.787c2.825,19.988 7.704,24.684 28.162,27c9.892,1.121 19.963,0.588 29.938,1.025c6.466,0.284 8.5,1.988 8.733,8.309c0.492,13.312 0.579,26.637 0.683,39.958c0.038,4.8 -2.771,7.196 -7.466,7.458c-2.663,0.15 -5.325,0.317 -7.988,0.367c-63.942,1.175 -127.879,2.362 -191.821,3.487c-16.816,0.296 -19.162,2.255 -19.004,-18.458c0.079,-9.987 -0.229,-19.975 -0.217,-29.967c0.005,-4.77 2.734,-7.32 7.413,-7.437c11.329,-0.288 22.625,-0.604 33.783,-3c16.159,-3.467 19.396,-6.946 22.029,-23.65c3.45,-21.875 2.221,-43.85 1.842,-65.821c-0.95,-55.287 -1.767,-110.575 -2.779,-165.858c-0.992,-53.95 -2.242,-107.892 -3.192,-161.842c-0.216,-12.087 -2.104,-23.904 -4.908,-35.554c-1.388,-5.771 -3.767,-11.392 -6.35,-16.763c-7.104,-14.762 -19.2,-21.533 -35.458,-21.145c-10.842,0.262 -21,3.033 -30.667,7.937c-12.596,6.388 -23.725,14.808 -34,24.367c-12.213,11.366 -23.008,24.033 -33.717,36.821c-6.412,7.658 -8.837,15.804 -8.6,25.662c0.767,31.967 0.884,63.95 1.429,95.925c1.367,79.929 2.909,159.854 4.175,239.783c0.213,13.384 1.359,26.617 3.796,39.73c3.004,16.183 6.829,20.258 23.284,22.52c9.845,1.355 19.933,0.921 29.908,1.363c7.95,0.354 9.883,1.792 10.125,9c0.425,12.646 0.55,25.308 0.429,37.962c-0.071,7.209 -1.829,8.717 -10.029,8.955c-13.983,0.412 -27.979,0.441 -41.967,0.716c-51.283,1.004 -102.566,2.154 -153.85,3.013c-18.308,0.304 -18.316,-0.009 -18.812,-18.834c-0.034,-1.333 -0.113,-2.67 -0.013,-3.995c0.75,-9.938 -4.183,-21.642 1.275,-29.38c6.05,-8.587 18.696,-2.579 28.238,-4.6c3.904,-0.825 7.883,-1.312 11.796,-2.133c16.629,-3.479 19.687,-6.171 22.3,-23.362c1.491,-9.825 1.87,-19.913 1.766,-29.875c-0.571,-54.625 -1.396,-109.246 -2.229,-163.867c-0.846,-55.288 -1.6,-110.575 -2.796,-165.854c-0.621,-28.629 -1.979,-57.242 -3.304,-85.85c-0.354,-7.629 -3.6,-9.809 -10.246,-7.154c-10.487,4.179 -20.729,8.962 -33.008,14.333" style="fill-rule:nonzero;"/><path d="M2992.24,5218c-2.604,7.808 -1.191,15.837 -1.275,23.783c-0.075,7.325 0.038,14.654 -0.12,21.979c-0.1,4.55 -2.417,7.5 -7.155,7.904c-3.312,0.279 -6.65,0.3 -9.975,0.359c-63.941,1.145 -127.883,2.283 -191.825,3.404c-2.662,0.046 -5.329,-0.004 -7.987,-0.125c-4.508,-0.209 -7.838,-2.192 -8.038,-7.017c-0.579,-13.967 -0.97,-27.946 -1.27,-41.921c-0.084,-3.783 2.17,-6.375 5.87,-6.791c7.267,-0.821 14.575,-1.296 21.88,-1.755c36.887,-2.329 33.791,-11.683 36.662,-35.629c2.792,-23.271 0.65,-46.591 0.338,-69.879c-0.742,-55.954 -1.68,-111.908 -2.725,-167.858c-0.917,-49.284 -2.08,-98.567 -3.138,-147.85c-0.3,-14.084 -2.471,-27.875 -7.262,-41.129c-9.334,-25.838 -26.992,-34.98 -53.33,-28.163c-12.487,3.229 -23.47,9.292 -33.775,16.792c-21.233,15.454 -38.166,35.083 -54.245,55.596c-4.517,5.758 -4.855,12.004 -4.746,18.804c0.612,37.971 0.904,75.946 1.521,113.916c1.195,73.267 2.587,146.534 3.754,219.805c0.225,14.029 1.316,27.95 3.666,41.762c3.046,17.929 6.309,20.867 23.809,24.263c10.595,2.054 21.258,1.154 31.879,1.804c4.558,0.279 7.458,2.312 7.754,7.175c0.079,1.329 0.217,2.658 0.204,3.987c-0.154,13.934 1.75,27.909 -0.742,41.8c-13.283,6.075 -27.383,3.004 -41.099,3.346c-53.938,1.346 -107.892,2.171 -161.842,3.167c-4.658,0.083 -9.321,0.083 -13.979,-0.046c-2.946,-0.079 -5.446,-1.658 -5.529,-4.608c-0.442,-15.284 -0.734,-30.575 -0.7,-45.863c0.008,-3.896 3.391,-5.283 6.966,-5.55c8.638,-0.646 17.284,-1.125 25.904,-1.912c25.725,-2.35 29.559,-7.746 31.192,-32.217c1.421,-21.225 0.933,-42.608 0.617,-63.917c-1.655,-110.571 -3.471,-221.146 -5.363,-331.716c-0.283,-16.58 -1.075,-33.171 -4.075,-49.771c-9.842,-1.3 -17.225,3.8 -24.846,7.45c-17.487,8.371 -16.366,8.8 -24.666,-8.638c-4.292,-9.016 -8.417,-18.112 -12.571,-27.196c-1.959,-4.275 -0.975,-7.716 3.187,-10.07c2.321,-1.313 4.675,-2.563 7.046,-3.775c34.992,-17.871 69.983,-35.734 104.983,-53.58c2.967,-1.512 6.05,-2.791 8.984,-4.358c3.4,-1.812 6.475,-1.254 9.046,1.308c6.133,6.105 12.021,12.455 18.179,18.53c3.166,3.125 3.691,6.975 3.787,10.987c0.23,9.325 0.205,18.654 0.517,27.975c0.079,2.433 -0.492,5.808 3.008,6.488c2.946,0.575 4.559,-2.055 6.38,-3.888c8.445,-8.5 16.466,-17.483 25.441,-25.383c21.934,-19.309 46.913,-32.579 76.3,-36.692c42.625,-5.962 94.654,7.454 119.042,66.642c11.6,28.15 15.6,57.833 16.417,87.904c1.154,42.621 1.275,85.267 1.97,127.896c1.18,71.937 2.363,143.875 3.796,215.808c0.263,13.296 1.679,26.575 2.654,39.854c0.242,3.317 0.617,6.654 1.3,9.9c3.405,16.246 7.092,19.788 23.505,22.404c9.875,1.575 19.787,2.7 29.845,1.88c5.342,-0.438 10.696,-0.184 15.396,3.141c0.034,0.042 -0.521,-0.516 -0.521,-0.516" style="fill-rule:nonzero;"/><path d="M4742.98,4948.02c-2.467,0.313 -4.642,0.038 -6.242,0.867c-40.429,20.891 -78.466,45.075 -110.225,78.279c-37.229,38.917 -46.396,85.492 -38.116,136.871c1.145,7.116 3.845,14.191 6.962,20.745c7.133,14.984 19.163,23.2 35.975,24.713c24.029,2.163 44.596,-5.175 62.254,-21.317c18.792,-17.183 34.05,-37.362 49.213,-57.654c4.325,-5.783 4.862,-12.021 4.737,-18.833c-0.829,-45.279 -1.283,-90.563 -2.358,-135.833c-0.221,-9.134 0.783,-18.567 -2.2,-27.838m101.996,276.683c9.487,-12.833 12.229,-23.854 16.187,-34.25c10.246,-26.883 3.121,-21.537 31.617,-22.941c9.608,-0.475 19.771,-3.234 29.162,1.937c1.054,9.583 -3.025,18.225 -5.216,27.171c-3.167,12.925 -6.704,25.779 -10.621,38.496c-4.171,13.541 -11.708,25.141 -20.854,36.037c-29.3,34.909 -100.85,36.025 -124.359,-20.412c-3.804,-9.129 -6.52,-18.713 -9.633,-27.775c-4.858,-0.571 -6.283,2.766 -8.225,5.162c-5.458,6.721 -10.467,13.838 -16.212,20.3c-37.796,42.509 -85.15,57.854 -140.559,47.421c-25.721,-4.842 -46.816,-18.5 -62.737,-39.729c-10.95,-14.6 -18.896,-30.713 -23.475,-48.229c-11.888,-45.5 -11.471,-90.934 2.396,-136.046c9.616,-31.288 26.716,-57.896 50.45,-80.308c23.337,-22.038 48.495,-41.763 76.337,-57.78c25.975,-14.941 52.338,-29.208 78.588,-43.67c9.333,-5.142 18.795,-10.05 28.258,-14.955c4.454,-2.308 7.287,-5.383 7.233,-10.791c-0.296,-30.65 0.067,-61.346 -4.491,-91.763c-1.875,-12.537 -5.725,-24.621 -11.013,-36.208c-5.262,-11.529 -13.683,-19.758 -25.817,-23.433c-24.504,-7.417 -48.675,-6.142 -72.183,4.2c-6.129,2.695 -11.65,6.545 -16.146,11.566c-7.6,8.484 -10.987,18.279 -7.404,29.475c2.221,6.946 5.05,13.721 7.983,20.409c4.563,10.391 8.884,20.795 10.625,32.137c4.259,27.675 -10.82,50.946 -38.116,56.788c-31.738,6.791 -54.313,-7.109 -65.217,-32.63c-21.879,-51.191 -6.142,-117.591 36.663,-153.016c12.412,-10.271 25.991,-18.696 41.012,-24.504c40.954,-15.834 83.042,-18.496 125.646,-8.65c38.571,8.916 66.908,31.77 85.275,66.804c11.904,22.696 17.971,47.133 21.275,72.437c3.721,28.517 3.183,57.184 3.667,85.817c1.762,104.592 3.466,209.179 5.183,313.771c0.183,11.229 1.137,22.346 4.721,37.162" style="fill-rule:nonzero;"/><path d="M3221.31,6114.75c-0.005,-0.479 -0.005,-0.954 -0.009,-1.434c21.25,0 42.504,0.025 63.754,-0.016c5.309,-0.013 10.625,-0.1 15.921,-0.421c3.725,-0.221 6.063,-2.379 6.329,-6.217c0.184,-2.641 0.2,-5.316 0.005,-7.954c-2.638,-35.279 -8.817,-69.792 -22.238,-102.733c-3.521,-8.638 -7.842,-16.809 -13.133,-24.525c-22.917,-33.459 -64.775,-29.5 -86.196,-6.3c-9.133,9.891 -15.988,21.171 -21.533,33.312c-9.705,21.25 -16.334,43.513 -20.684,66.396c-2.725,14.333 -4.491,28.858 -6.429,43.329c-0.667,4.979 1.633,7.475 6.533,7.859c3.305,0.258 6.638,0.283 9.955,0.212c22.575,-0.475 45.15,-1 67.725,-1.508m182.458,32.258c-0,4.662 0.05,9.329 -0.008,13.992c-0.271,21.475 2.983,21.3 -22.017,21.741c-67.304,1.184 -134.613,2.142 -201.917,3.234c-11.325,0.183 -22.654,0.475 -33.971,0.941c-10.312,0.421 -11.787,1.788 -11.666,11.554c0.137,11.33 0.337,22.684 1.204,33.971c3.442,44.7 11.104,88.538 27.65,130.484c5.637,14.295 12.217,28.108 20.717,40.941c5.916,8.938 12.658,17.179 21.154,23.821c22.362,17.475 49.15,18.063 72.158,1.392c15.983,-11.579 27.508,-27.046 36.913,-44.125c9.029,-16.4 15.533,-33.909 20.883,-51.809c7.262,-24.274 12.742,-48.975 16.725,-74.008c0.837,-5.254 1.954,-10.475 3.179,-15.654c0.867,-3.662 3.513,-5.483 7.238,-5.542c12.662,-0.195 25.325,-0.512 37.983,-0.425c5.929,0.042 7.867,2.555 7.95,8.892c0.029,1.996 -0.113,3.996 -0.25,5.992c-3.471,49.371 -11.25,97.912 -27.908,144.746c-7.85,22.075 -17.934,43.016 -31.063,62.466c-8.242,12.209 -17.667,23.367 -28.279,33.579c-54.458,52.434 -132.521,45.646 -179.688,9.263c-19.3,-14.888 -34.345,-33.354 -46.65,-54.221c-18.445,-31.279 -30.408,-65.054 -38.929,-100.208c-8.033,-33.146 -12.325,-66.867 -14.433,-100.784c-3.613,-58.062 -1.971,-115.912 10.479,-173.062c7.7,-35.338 19.25,-69.275 36.188,-101.3c11.291,-21.359 24.883,-41.075 42.845,-57.404c38.938,-35.396 84.346,-46.521 135.367,-34.863c21.258,4.859 39.408,15.867 55.375,30.579c17.379,16.017 30.542,35.155 41.3,56.046c20.083,39.004 30.763,80.829 36.404,124.021c2.413,18.479 5.175,36.996 5.067,55.75" style="fill-rule:nonzero;"/><path d="M6551.2,6114.72c-0.004,-0.508 -0.004,-1.021 -0.008,-1.529c25.283,-0 50.57,0.125 75.85,-0.079c7.591,-0.059 9.433,-2.088 9.12,-9.73c-1.629,-40.254 -9.312,-79.212 -25.95,-116.108c-3.558,-7.892 -8.258,-15.175 -14.025,-21.733c-12.912,-14.679 -28.995,-20.304 -48.325,-17.738c-13.187,1.755 -23.795,8.034 -32.908,17.267c-8.512,8.621 -14.8,18.8 -19.954,29.683c-16.146,34.075 -24.125,70.309 -28.217,107.555c-0.287,2.633 -0.433,5.329 -0.212,7.962c0.233,2.854 1.95,5.1 4.841,5.454c3.942,0.483 7.963,0.592 11.946,0.517c22.613,-0.45 45.229,-1.004 67.842,-1.521m181.637,30.408c0,9.321 0.192,18.646 -0.07,27.954c-0.171,6.188 -2.171,8.463 -8.338,8.838c-13.292,0.8 -26.604,1.363 -39.917,1.567c-58.616,0.916 -117.241,1.641 -175.858,2.5c-11.987,0.175 -23.975,0.483 -35.954,1.004c-7.713,0.329 -9.688,2.208 -9.713,9.437c-0.033,9.321 0.067,18.671 0.734,27.963c3.058,42.642 9.154,84.733 23.387,125.3c6.634,18.908 14.459,37.258 25.559,54.033c6.279,9.492 13.437,18.221 22.7,25.05c22.258,16.413 47.795,16.646 70.516,0.438c14.942,-10.663 25.842,-24.9 34.967,-40.567c9.775,-16.779 16.646,-34.825 22.304,-53.333c7.796,-25.509 13.604,-51.48 17.658,-77.846c0.709,-4.609 1.671,-9.179 2.675,-13.729c0.821,-3.725 3.459,-5.655 7.121,-5.725c13.317,-0.263 26.638,-0.521 39.954,-0.442c4.984,0.025 7.263,2.721 6.884,7.721c-4.338,57.325 -12.488,113.896 -34.7,167.487c-11.834,28.542 -27.817,54.413 -49.529,76.746c-56.913,58.546 -144.296,51.058 -194.717,3.588c-17.683,-16.646 -31.367,-36.188 -42.542,-57.588c-18.358,-35.142 -29.783,-72.621 -36.766,-111.496c-11.859,-65.979 -14.55,-132.383 -7.292,-199.025c5.446,-49.979 17.662,-98.25 40.054,-143.571c11.879,-24.041 26.221,-46.437 46.05,-64.812c39.183,-36.296 85.075,-47.858 136.85,-35.946c21.925,5.046 40.496,16.638 56.763,32.033c16.154,15.296 28.575,33.334 38.833,52.934c19.7,37.629 30.346,78.046 36.492,119.8c2.908,19.783 4.975,39.662 5.895,59.687" style="fill-rule:nonzero;"/><path d="M2359.79,4882.3l0,-2.07c25.909,-0 51.817,0.133 77.725,-0.075c8.83,-0.071 10.288,-1.809 10.08,-10.75c-0.563,-24.03 -4.771,-47.555 -10.542,-70.796c-5.138,-20.696 -11.863,-40.846 -23.729,-58.838c-23.6,-35.787 -65.434,-32.221 -88.575,-6.625c-8.571,9.475 -14.963,20.325 -20.179,31.859c-15.784,34.891 -23.467,71.82 -27.096,109.72c-0.513,5.342 1.337,7.505 6.591,7.525c25.242,0.109 50.484,0.05 75.725,0.05m136.609,124.671c5.671,-3.008 11.846,-2.658 17.696,-2.166c11.075,0.937 22.529,-3.325 33.25,2.316c1.954,10.638 0.254,21.254 -0.871,31.742c-4.284,39.808 -10.825,79.212 -23.688,117.308c-8.566,25.367 -19.591,49.534 -34.883,71.646c-7.992,11.558 -16.963,22.229 -27.079,31.992c-54.75,52.846 -135.125,45.991 -182.904,6.962c-21.03,-17.175 -36.75,-38.479 -49.417,-62.2c-18.358,-34.387 -30.063,-71.121 -37.196,-109.312c-12.933,-69.267 -15.775,-138.996 -7.492,-208.996c5.75,-48.613 18.142,-95.492 40.1,-139.525c12.292,-24.646 27.288,-47.417 48.03,-65.833c40.629,-36.071 87.583,-46.246 139.575,-31.955c26.5,7.284 47.445,23.696 64.816,44.746c19.342,23.438 32.646,50.179 42.725,78.634c14.346,40.516 21.104,82.525 23.821,125.241c0.933,14.621 0.883,29.304 1.054,43.967c0.059,4.704 -2.737,7.258 -7.521,7.346c-6,0.112 -12,0.146 -17.995,0.25c-74.634,1.312 -149.267,2.629 -223.9,3.946c-20.409,0.362 -20.43,0.358 -19.888,21.645c1.342,53 9.321,104.792 28.529,154.488c6.263,16.204 13.784,31.783 24.042,45.912c6.712,9.255 14.35,17.6 24.183,23.58c19.25,11.7 38.925,12.508 58.838,1.645c8.271,-4.512 15.275,-10.637 21.671,-17.52c13.791,-14.834 23.858,-31.967 31.616,-50.58c13.675,-32.804 21.525,-67.179 27.617,-102.02c1.375,-7.867 2.146,-15.834 5.271,-23.259" style="fill-rule:nonzero;"/><path d="M6762.47,5976.07c-9.434,-1.046 -16.117,3.896 -23.363,6.892c-4.3,1.775 -8.429,3.967 -12.733,5.733c-2.679,1.104 -5.679,0.634 -6.954,-1.987c-6.696,-13.75 -13.175,-27.609 -19.555,-41.509c-1.341,-2.92 0.817,-5.158 2.921,-6.754c2.1,-1.591 4.575,-2.716 6.946,-3.929c36.746,-18.808 73.483,-37.642 110.279,-56.358c9.604,-4.884 9.934,-4.7 17.284,2.3c2.408,2.296 4.458,5 7.02,7.096c8.896,7.279 12.746,16.27 11.684,27.937c-0.65,7.117 0.5,14.396 0.821,21.171c5.045,2.775 6.637,-0.967 8.716,-3.167c8.234,-8.708 15.854,-18.054 24.617,-26.175c20.096,-18.625 43.583,-30.475 71.308,-32.575c18.334,-1.387 35.913,1.559 51.992,10.896c27.458,15.942 39.583,47.338 29.508,77.479c-6.825,20.429 -20.371,34.375 -42.3,37.859c-22.746,3.612 -42.275,-2.355 -56.312,-21.825c-0.779,-1.08 -1.625,-2.155 -2.171,-3.355c-5.725,-12.608 -9.808,-13.762 -23.596,-5.216c-7.45,4.621 -13.171,11.204 -18.483,18.083c-14.296,18.508 -25.929,38.708 -37.654,58.867c-3.605,6.204 -3.588,12.604 -3.48,19.287c0.742,44.625 1.388,89.25 2.109,133.879c0.887,55.28 1.85,110.559 2.704,165.842c0.237,15.325 0.35,30.646 2.746,45.838c0.416,2.629 0.562,5.312 1.091,7.916c3.85,18.875 9.634,25.292 28.763,27.796c16.467,2.158 33.179,2.5 49.787,3.483c4.642,0.275 9.321,-0.22 13.967,0c3.542,0.171 6.721,1.788 6.842,5.767c0.446,14.629 0.779,29.271 0.733,43.908c-0.012,3.609 -2.937,5.867 -6.687,6.146c-4.642,0.346 -9.3,0.542 -13.955,0.625c-72.591,1.313 -145.187,2.634 -217.779,3.871c-22.871,0.388 -22.125,1.696 -22.129,-21.287c-0.004,-10.555 -1.833,-21.217 0.958,-31.7c9.496,-6.425 20.696,-2.188 30.784,-4.917c0.633,-0.171 1.321,-0.158 1.979,-0.242c24.862,-3.029 29.367,-7.062 30.621,-32.721c1.104,-22.595 0.866,-45.279 0.533,-67.912c-1.671,-112.567 -3.562,-225.125 -5.396,-337.688c-0.216,-13.266 -1.096,-26.458 -4.166,-39.354" style="fill-rule:nonzero;"/><path d="M3378.64,4406.25c0.133,-8.4 0.362,-15.646 2.662,-22.771c9.358,-29.025 35.688,-47.904 64.958,-46.333c29.267,1.571 55.35,25.15 60.009,55.192c3.562,22.991 -1.788,43.82 -18.659,60.591c-18.762,18.646 -41.312,23.959 -66.17,15.463c-25.046,-8.563 -38.492,-27.35 -42.309,-53.242c-0.479,-3.279 -0.379,-6.642 -0.491,-8.9" style="fill-rule:nonzero;"/><path d="M1353.11,6966.43c-0,2.5 0.654,4.654 1.979,6.458c1.316,1.804 3.016,2.708 5.1,2.708c5.554,0 8.333,-2.916 8.333,-8.75c0,-2.916 -0.796,-5.658 -2.392,-8.229c-1.6,-2.566 -3.437,-3.854 -5.52,-3.854c-2.084,0 -3.855,1.179 -5.317,3.542c-1.454,2.362 -2.183,5.071 -2.183,8.125m37.079,-60.834l42.504,110c0.55,1.53 0.833,3.059 0.833,4.584c0,4.308 -2.016,8.021 -6.041,11.146c-4.03,3.125 -8.825,4.687 -14.38,4.687c-8.054,0 -14.995,-3.054 -20.833,-9.167c-6.25,-6.666 -11.112,-10.625 -14.583,-11.875c-1.663,-0.695 -6.529,-1.179 -14.584,-1.458c-8.745,-0.279 -15.416,0.558 -19.995,2.5c-2.921,1.25 -4.763,2.292 -5.525,3.125c-0.763,0.833 -3.646,3.683 -8.646,8.542c-5.971,5.558 -12.638,8.333 -20,8.333c-12.5,0 -18.75,-5.137 -18.75,-15.417c-0,-4.304 0.554,-7.916 1.671,-10.833l39.995,-106.25c5.142,-13.608 14.171,-20.417 27.084,-20.417c9.308,0 16.6,2.43 21.875,7.292c3.612,3.333 6.737,8.404 9.375,15.208" style="fill-rule:nonzero;"/><path d="M1441.23,6952.89c0,-12.221 4.821,-22.5 14.479,-30.833c9.65,-8.334 21.904,-12.5 36.771,-12.5c15.138,-0 27.15,2.291 36.038,6.875c8.47,4.583 12.712,10.487 12.712,17.708c0,4.308 -1.704,8.613 -5.108,12.917c-3.404,4.308 -5.034,7.221 -4.892,8.75c0.275,2.362 1.525,5 3.75,7.916c1.663,1.809 3.333,3.613 4.996,5.417c6.387,7.917 9.587,15.417 9.587,22.5c0,13.75 -4.966,24.967 -14.895,33.646c-9.934,8.679 -23.025,13.021 -39.271,13.021c-16.667,-0 -29.934,-2.779 -39.796,-8.334c-9.583,-5.137 -14.371,-11.804 -14.371,-20c0,-5.416 2.292,-10.383 6.871,-14.895c4.587,-4.513 6.879,-7.467 6.879,-8.855c0,-2.358 -0.975,-4.862 -2.917,-7.5c-3.754,-5.416 -5.7,-8.195 -5.837,-8.333c-3.333,-5.696 -4.996,-11.525 -4.996,-17.5" style="fill-rule:nonzero;"/><path d="M1559.56,6952.89c-0,-12.221 4.821,-22.5 14.479,-30.833c9.65,-8.334 21.904,-12.5 36.771,-12.5c15.137,-0 27.15,2.291 36.037,6.875c8.471,4.583 12.713,10.487 12.713,17.708c-0,4.308 -1.704,8.613 -5.108,12.917c-3.405,4.308 -5.034,7.221 -4.892,8.75c0.275,2.362 1.525,5 3.75,7.916c1.662,1.809 3.333,3.613 4.996,5.417c6.387,7.917 9.587,15.417 9.587,22.5c0,13.75 -4.966,24.967 -14.896,33.646c-9.933,8.679 -23.025,13.021 -39.27,13.021c-16.667,-0 -29.934,-2.779 -39.796,-8.334c-9.584,-5.137 -14.371,-11.804 -14.371,-20c-0,-5.416 2.292,-10.383 6.871,-14.895c4.587,-4.513 6.879,-7.467 6.879,-8.855c-0,-2.358 -0.975,-4.862 -2.917,-7.5c-3.754,-5.416 -5.7,-8.195 -5.837,-8.333c-3.334,-5.696 -4.996,-11.525 -4.996,-17.5" style="fill-rule:nonzero;"/><path d="M1732.06,6992.68c-0,3.612 2.5,5.417 7.5,5.417c5.275,-0 7.912,-1.942 7.912,-5.834c0,-2.775 -2.495,-4.166 -7.5,-4.166c-2.495,-0 -4.446,0.52 -5.829,1.562c-1.392,1.042 -2.083,2.054 -2.083,3.021m-5,-43.333c-0,2.783 1.175,4.933 3.537,6.458c1.946,1.25 4.1,1.875 6.459,1.875c7.225,-0 10.837,-2.775 10.837,-8.333c0,-2.638 -1.183,-4.792 -3.546,-6.459c-1.946,-1.25 -4.233,-1.875 -6.87,-1.875c-3.059,0 -5.559,0.871 -7.501,2.604c-1.95,1.742 -2.916,3.646 -2.916,5.73m11.25,87.083c-19.725,-0 -35.142,-6.317 -46.254,-18.958c-9.996,-11.25 -14.996,-25.346 -14.996,-42.292c-0,-19.025 5.762,-34.583 17.287,-46.667c10.971,-11.387 24.513,-17.083 40.625,-17.083c18.054,-0 32.571,5.625 43.542,16.875c9.862,10.142 14.792,22.292 14.792,36.458c-0,5.975 -1.946,12.084 -5.83,18.334c-1.391,2.225 -2.083,4.862 -2.083,7.916c0,1.946 0.346,4.1 1.042,6.459c0.691,2.362 1.042,4.791 1.042,7.291c-0,8.892 -5.351,16.529 -16.046,22.917c-9.863,5.833 -20.9,8.75 -33.121,8.75" style="fill-rule:nonzero;"/><path d="M1983.31,6960.39l-0,47.5c-0,18.613 -7.917,27.917 -23.75,27.917c-16.667,-0 -25,-10.05 -25,-30.158l-0,-31c-0,-4.746 -0.767,-8.796 -2.292,-12.15c-1.529,-3.346 -3.404,-5.025 -5.629,-5.025c-5.829,-0 -8.746,5.445 -8.746,16.337l0,31.838c0,20.108 -8.058,30.158 -24.166,30.158c-16.667,-0 -25,-10 -25,-30l-0,-30.833c-0,-11.667 -2.784,-17.5 -8.334,-17.5c-5.558,-0 -8.333,5.833 -8.333,17.5l-0,30.833c-0,9.308 -2.017,16.529 -6.042,21.667c-4.166,5.558 -10.208,8.333 -18.129,8.333c-8.746,-0 -15.033,-2.675 -18.85,-8.033c-3.821,-5.355 -5.729,-13.667 -5.729,-24.938l-0,-63.021c-0,-19.2 8.608,-28.8 25.833,-28.8c4.721,0 7.984,0.175 9.792,0.521c1.8,0.35 4.371,0.521 7.704,0.521c3.196,-0 7.325,-0.55 12.4,-1.667c5.067,-1.108 10.379,-1.666 15.938,-1.666c5.55,-0 11.458,1.041 17.708,3.125c6.25,2.083 11.037,3.125 14.371,3.125c3.612,-0 8.441,-1.042 14.483,-3.125c6.042,-2.084 12.188,-3.125 18.438,-3.125c15.55,-0 26.8,4.516 33.745,13.541c6.388,8.196 9.588,20.904 9.588,38.125" style="fill-rule:nonzero;"/><path d="M2040.38,6975.18c0,7.917 1.663,14.309 5,19.167c2.913,4.167 6.25,6.25 10,6.25c4.583,-0 8.363,-2.254 11.354,-6.771c2.984,-4.512 4.475,-10.312 4.475,-17.396c0,-6.387 -1.246,-11.804 -3.746,-16.25c-2.916,-5 -6.808,-7.5 -11.666,-7.5c-4.309,0 -7.85,1.875 -10.629,5.625c-3.192,4.167 -4.788,9.792 -4.788,16.875m-0.833,-74.583c0.691,2.5 2.083,5.696 4.166,9.583c1.525,1.529 3.471,2.5 5.834,2.917c1.804,0.279 6.25,0.417 13.329,0.417c9.587,-0.001 18.75,2.362 27.504,7.083c4.167,3.054 7.363,5.554 9.583,7.5c11.109,10.137 16.667,25.554 16.667,46.25c0,19.446 -5,35.208 -15,47.292c-10,12.083 -22.917,18.124 -38.754,18.124c-3.329,0.001 -8.263,-0.558 -14.788,-1.666c-6.533,-1.113 -10.487,-1.667 -11.875,-1.667l-15.833,0c-10.558,0 -17.642,-2.908 -21.25,-8.729c-3.058,-4.704 -4.583,-13.296 -4.583,-25.762l-0,-94.75c-0,-18.838 7.362,-28.259 22.083,-28.259c6.942,0 11.942,1.667 14.996,5c2.637,2.779 5.279,8.334 7.921,16.667" style="fill-rule:nonzero;"/><path d="M2176.84,6907.68l0,103.334c0,8.333 -2.158,15 -6.462,20c-4.721,5.554 -11.321,8.333 -19.792,8.333c-7.079,0 -12.846,-2.362 -17.287,-7.083c-5.142,-5.555 -7.713,-13.75 -7.713,-24.584l0.421,-104.583c0,-8.192 1.942,-14.792 5.829,-19.792c4.304,-5.691 10.554,-8.541 18.75,-8.541c17.5,-0 26.254,10.975 26.254,32.916" style="fill-rule:nonzero;"/><path d="M2273.93,6908.72c6.383,0 11.666,1.633 15.833,4.896c4.167,3.262 6.25,7.467 6.25,12.604c0,6.113 -0.417,10.417 -1.25,12.917l-21.254,65.416c-8.192,25.417 -14.65,41.596 -19.371,48.542c-8.612,12.917 -21.183,19.375 -37.708,19.375c-17.779,-0 -26.667,-7.517 -26.667,-22.558c0,-5.846 3.192,-11.384 9.583,-16.6c6.388,-5.225 9.58,-9.717 9.58,-13.475c-0,-2.925 -7.496,-28.546 -22.496,-76.863c-1.667,-5.429 -2.504,-10.167 -2.504,-14.204c-0,-6.262 1.908,-11.175 5.729,-14.725c3.821,-3.546 8.854,-5.325 15.104,-5.325c11.254,0 19.304,3.95 24.171,11.846c1.667,3.387 3.367,6.842 5.104,10.371c1.733,3.521 3.646,5.283 5.729,5.283c1.109,0 2.775,-1.942 5,-5.833c1.804,-3.192 3.609,-6.388 5.417,-9.584c5.417,-8.054 13.333,-12.083 23.75,-12.083" style="fill-rule:nonzero;"/><path d="M2425.91,6938.73c-0,-3.616 -0.696,-5.429 -2.084,-5.429c-1.387,0 -3.196,1.042 -5.416,3.125c-2.917,2.783 -5.346,4.725 -7.292,5.838c-3.888,2.083 -8.542,3.125 -13.954,3.125c-15.559,-0 -23.338,-6.946 -23.338,-20.834c0,-13.054 5.554,-24.1 16.667,-33.129c10.417,-8.467 22.362,-12.704 35.837,-12.704c17.359,-0 30.967,5.354 40.83,16.058c8.612,9.463 12.916,20.934 12.916,34.421c0,13.492 -3.746,26.15 -11.246,37.971c-0.558,0.829 -3.475,4.796 -8.754,11.892c-3.333,4.45 -5,7.575 -5,9.383c0,2.783 1.809,4.937 5.421,6.467c2.775,1.254 5.55,2.433 8.333,3.545c6.663,4.455 9.996,10.017 9.996,16.688c0,14.746 -9.441,22.112 -28.333,22.112l-54.167,0c-7.083,0 -13.021,-1.945 -17.812,-5.841c-4.788,-3.896 -7.188,-8.767 -7.188,-14.617c0,-9.321 3.404,-17.533 10.213,-24.629c6.383,-5.567 12.846,-11.133 19.371,-16.7c9.166,-8.625 15.554,-15.517 19.17,-20.671c3.884,-5.7 5.83,-11.058 5.83,-16.071" style="fill-rule:nonzero;"/><path d="M2533.41,6956.64l-0,14.166c-0,7.084 1.216,12.884 3.645,17.396c2.43,4.517 5.521,6.771 9.275,6.771c3.884,0 7.009,-3.192 9.375,-9.583c2.359,-6.388 3.538,-15.275 3.538,-26.667c-0,-21.387 -4.167,-32.083 -12.5,-32.083c-8.892,-0 -13.333,10 -13.333,30m69.17,3.75c0,22.916 -4.516,41.387 -13.541,55.416c-10.142,15.559 -24.517,23.334 -43.129,23.334c-17.638,-0 -31.53,-7.5 -41.667,-22.5c-9.721,-14.305 -14.583,-33.055 -14.583,-56.25c-0,-26.388 5.904,-46.734 17.708,-61.042c10.137,-12.358 22.987,-18.542 38.542,-18.542c17.779,0 31.67,6.946 41.666,20.834c10,13.891 15.004,33.471 15.004,58.75" style="fill-rule:nonzero;"/><path d="M2661.32,6938.73c0,-3.616 -0.696,-5.429 -2.083,-5.429c-1.388,0 -3.196,1.042 -5.417,3.125c-2.916,2.783 -5.346,4.725 -7.291,5.838c-3.888,2.083 -8.542,3.125 -13.955,3.125c-15.558,-0 -23.337,-6.946 -23.337,-20.834c-0,-13.054 5.554,-24.1 16.667,-33.129c10.416,-8.467 22.362,-12.704 35.837,-12.704c17.358,-0 30.967,5.354 40.829,16.058c8.613,9.463 12.917,20.934 12.917,34.421c-0,13.492 -3.746,26.15 -11.246,37.971c-0.558,0.829 -3.475,4.796 -8.754,11.892c-3.333,4.45 -5,7.575 -5,9.383c-0,2.783 1.808,4.937 5.421,6.467c2.775,1.254 5.55,2.433 8.333,3.545c6.663,4.455 9.996,10.017 9.996,16.688c-0,14.746 -9.442,22.112 -28.333,22.112l-54.167,0c-7.083,0 -13.021,-1.945 -17.813,-5.841c-4.787,-3.896 -7.187,-8.767 -7.187,-14.617c-0,-9.321 3.404,-17.533 10.212,-24.629c6.384,-5.567 12.846,-11.133 19.371,-16.7c9.167,-8.625 15.554,-15.517 19.171,-20.671c3.883,-5.7 5.829,-11.058 5.829,-16.071" style="fill-rule:nonzero;"/><path d="M2775.07,6885.39c16.109,0 24.167,9.725 24.167,29.167l0,98.75c0,8.333 -2.188,14.725 -6.558,19.167c-4.38,4.445 -10.246,6.666 -17.609,6.666c-15.695,0 -23.612,-8.608 -23.75,-25.833l-0.416,-50.833c-0.138,-9.025 -1.804,-15.138 -5,-18.334c-1.663,-1.666 -4.029,-3.191 -7.084,-4.583c-3.75,-1.525 -5.695,-2.358 -5.833,-2.5c-6.112,-4.025 -9.167,-8.608 -9.167,-13.75c0,-9.167 4.584,-15.692 13.75,-19.583c3.196,-1.388 10.838,-5.834 22.917,-13.334c5.417,-3.333 10.279,-5 14.583,-5" style="fill-rule:nonzero;"/><path d="M2929.98,6957.68c0,8.059 -2.291,14.517 -6.875,19.375c-4.583,4.863 -11.183,7.292 -19.791,7.292c-7.363,0 -13.338,-2.292 -17.917,-6.875c-5,-4.721 -7.5,-11.317 -7.5,-19.792c-0,-7.775 2.008,-14.025 6.042,-18.75c4.445,-5.275 11.179,-7.916 20.208,-7.916c7.917,-0 14.2,2.291 18.854,6.875c4.65,4.583 6.979,11.183 6.979,19.791" style="fill-rule:nonzero;"/><path d="M3068.63,6966.43c0,2.5 0.654,4.654 1.979,6.458c1.317,1.804 3.017,2.708 5.1,2.708c5.554,0 8.334,-2.916 8.334,-8.75c-0,-2.916 -0.796,-5.658 -2.392,-8.229c-1.6,-2.566 -3.438,-3.854 -5.521,-3.854c-2.083,0 -3.854,1.179 -5.317,3.542c-1.454,2.362 -2.183,5.071 -2.183,8.125m37.079,-60.834l42.504,110c0.55,1.53 0.834,3.059 0.834,4.584c-0,4.308 -2.017,8.021 -6.042,11.146c-4.029,3.125 -8.825,4.687 -14.379,4.687c-8.054,0 -14.996,-3.054 -20.833,-9.167c-6.25,-6.666 -11.113,-10.625 -14.584,-11.875c-1.662,-0.695 -6.529,-1.179 -14.583,-1.458c-8.746,-0.279 -15.417,0.558 -19.996,2.5c-2.921,1.25 -4.762,2.292 -5.525,3.125c-0.762,0.833 -3.646,3.683 -8.646,8.542c-5.971,5.558 -12.637,8.333 -20,8.333c-12.5,0 -18.75,-5.137 -18.75,-15.417c0,-4.304 0.554,-7.916 1.671,-10.833l39.996,-106.25c5.142,-13.608 14.171,-20.417 27.083,-20.417c9.309,0 16.6,2.43 21.875,7.292c3.613,3.333 6.738,8.404 9.375,15.208" style="fill-rule:nonzero;"/><path d="M3223.83,7033.51c-2.5,-0 -6.842,0.554 -13.021,1.666c-6.179,1.113 -11.283,1.667 -15.312,1.667c-13.471,-0 -23.821,-4.446 -31.042,-13.333c-6.525,-7.917 -9.792,-18.334 -9.792,-31.25l0,-55.417c0,-8.613 2.363,-15.208 7.088,-19.792c4.021,-4.029 9.025,-6.041 14.996,-6.041c16.666,-0 25,9.166 25,27.5l-0,34.166c-0,11.388 2.916,17.084 8.754,17.084c2.775,-0 4.996,-1.875 6.662,-5.625c1.671,-3.75 2.5,-8.405 2.5,-13.959l0,-31.666c0,-8.334 2.013,-15 6.042,-20c4.029,-5 9.929,-7.5 17.708,-7.5c15.559,-0 23.338,9.862 23.338,29.583l-0,67.5c-0,8.196 -2.225,14.55 -6.671,19.062c-4.446,4.517 -10.137,6.771 -17.079,6.771l-7.5,0c-1.95,0 -3.646,-0.071 -5.108,-0.208c-1.455,-0.138 -3.646,-0.208 -6.563,-0.208" style="fill-rule:nonzero;"/><path d="M3277.58,6952.89c-0,-12.221 4.821,-22.5 14.479,-30.833c9.65,-8.334 21.904,-12.5 36.771,-12.5c15.137,-0 27.15,2.291 36.037,6.875c8.471,4.583 12.713,10.487 12.713,17.708c-0,4.308 -1.704,8.613 -5.109,12.917c-3.404,4.308 -5.033,7.221 -4.891,8.75c0.275,2.362 1.525,5 3.75,7.916c1.662,1.809 3.333,3.613 4.996,5.417c6.387,7.917 9.587,15.417 9.587,22.5c0,13.75 -4.967,24.967 -14.896,33.646c-9.933,8.679 -23.025,13.021 -39.271,13.021c-16.666,-0 -29.933,-2.779 -39.795,-8.334c-9.584,-5.137 -14.371,-11.804 -14.371,-20c-0,-5.416 2.291,-10.383 6.871,-14.895c4.587,-4.513 6.879,-7.467 6.879,-8.855c-0,-2.358 -0.975,-4.862 -2.917,-7.5c-3.754,-5.416 -5.7,-8.195 -5.837,-8.333c-3.334,-5.696 -4.996,-11.525 -4.996,-17.5" style="fill-rule:nonzero;"/><path d="M3459.46,6909.97c0.967,1.946 2.292,3.821 3.955,5.625c2.083,2.221 3.262,3.542 3.545,3.959c2.775,3.887 4.167,7.22 4.167,10c0,6.112 -3.058,12.637 -9.167,19.583c-3.891,4.308 -5.837,10.279 -5.837,17.917c-0,5.833 0.279,12.083 0.833,18.75c0.279,3.612 3.125,8.75 8.542,15.416c5.421,6.667 8.125,12.363 8.125,17.084c-0,13.887 -8.471,20.833 -25.413,20.833c-9.45,-0 -17.641,-2.642 -24.587,-7.917c-8.746,-6.666 -13.471,-16.387 -14.163,-29.166c-0.42,-11.946 -0.975,-26.388 -1.666,-43.334c-0.142,-1.804 -0.975,-4.304 -2.5,-7.5c-0.421,-0.971 -2.504,-4.446 -6.25,-10.416c-1.392,-3.196 -2.084,-5.834 -2.084,-7.917c0,-5.279 1.25,-10.138 3.746,-14.583c1.946,-3.055 3.888,-6.113 5.838,-9.167c0.833,-3.333 2.637,-8.196 5.416,-14.583c5,-7.775 11.384,-11.667 19.163,-11.667c6.529,-0 11.671,1.458 15.417,4.375c2.92,2.221 5.487,5.696 7.712,10.417c1.663,4.029 3.4,8.125 5.208,12.291" style="fill-rule:nonzero;"/><path d="M3486.12,6897.05c0,-5.696 2.221,-10.866 6.667,-15.521c4.442,-4.65 10,-6.979 16.667,-6.979c6.666,0 12.291,2.154 16.875,6.459c4.583,4.308 6.875,9.791 6.875,16.458c-0,3.333 -0.417,6.425 -1.25,9.271c-0.834,2.846 -1.25,5.175 -1.25,6.979c-0,2.637 0.691,6.667 2.083,12.083c1.667,6.529 2.5,13.471 2.5,20.834l0,65.416c0,8.196 -2.154,14.863 -6.458,20c-4.446,5.554 -10.625,8.334 -18.542,8.334c-7.083,-0 -12.917,-1.946 -17.5,-5.834c-5.833,-5 -8.75,-12.775 -8.75,-23.333l0.417,-68.333c-0,-5.138 0.696,-10.242 2.083,-15.313c1.388,-5.071 2.083,-8.854 2.083,-11.354c0,-2.5 -0.416,-5.483 -1.25,-8.958c-0.833,-3.471 -1.25,-6.875 -1.25,-10.209" style="fill-rule:nonzero;"/><path d="M3659.45,6962.89l-0,45.833c-0,9.029 -2.184,15.938 -6.559,20.729c-4.379,4.792 -10.108,7.188 -17.187,7.188c-16.667,-0 -25,-9.584 -25,-28.75l-0,-27.084c-0,-14.72 -2.784,-22.083 -8.334,-22.083c-5.283,0 -7.92,7.363 -7.92,22.083l-0,27.084c-0,8.75 -2.221,15.729 -6.663,20.937c-4.45,5.209 -10.417,7.813 -17.921,7.813c-16.112,-0 -24.166,-10.554 -24.166,-31.667l-0,-64.167c-0,-19.166 8.612,-28.75 25.833,-28.75c2.225,0 4.687,0.138 7.4,0.417c2.704,0.279 6.35,0.417 10.937,0.417c2.775,-0 7.009,-0.554 12.709,-1.667c5.691,-1.112 10.9,-1.667 15.625,-1.667c27.496,0 41.246,17.78 41.246,53.334" style="fill-rule:nonzero;"/><path d="M3672.99,7037.89c0,-2.78 -0.975,-7.221 -2.916,-13.334c-1.95,-6.112 -2.917,-11.108 -2.917,-15c-0,-7.779 2.008,-14.096 6.042,-18.958c4.579,-5.417 11.175,-8.125 19.791,-8.125c18.054,-0 27.084,11.112 27.084,33.333c-0,16.529 -3.755,29.513 -11.25,38.959c-6.392,7.916 -13.75,11.875 -22.084,11.875c-4.45,-0 -8.058,-1.321 -10.837,-3.959c-2.78,-2.641 -4.167,-5.766 -4.167,-9.375c0,-2.221 0.213,-4.583 0.629,-7.083c0.413,-2.5 0.625,-5.279 0.625,-8.333" style="fill-rule:nonzero;"/><path d="M3831.23,7012.68l-0,-73.333c-0,-6.25 -1.355,-10.833 -4.063,-13.75c-2.708,-2.917 -8.021,-5.417 -15.937,-7.5c-10.834,-2.917 -16.25,-8.613 -16.25,-17.083c-0,-11.667 8.75,-17.501 26.25,-17.501l62.916,0.001c18.054,-0.001 27.084,5.975 27.084,17.916c-0,9.167 -5.28,14.721 -15.834,16.667c-7.916,1.529 -13.3,3.854 -16.146,6.979c-2.845,3.125 -4.27,7.883 -4.27,14.271l-0,73.75c-0,18.058 -6.946,27.083 -20.834,27.083c-15.279,0 -22.916,-9.167 -22.916,-27.5" style="fill-rule:nonzero;"/><path d="M3957.27,6992.68c0,3.612 2.5,5.417 7.5,5.417c5.275,-0 7.913,-1.942 7.913,-5.834c-0,-2.775 -2.496,-4.166 -7.5,-4.166c-2.496,-0 -4.446,0.52 -5.829,1.562c-1.392,1.042 -2.084,2.054 -2.084,3.021m-5,-43.333c0,2.783 1.175,4.933 3.538,6.458c1.946,1.25 4.1,1.875 6.458,1.875c7.225,-0 10.838,-2.775 10.838,-8.333c-0,-2.638 -1.184,-4.792 -3.546,-6.459c-1.946,-1.25 -4.234,-1.875 -6.871,-1.875c-3.058,0 -5.558,0.871 -7.5,2.604c-1.95,1.742 -2.917,3.646 -2.917,5.73m11.25,87.083c-19.725,-0 -35.141,-6.317 -46.254,-18.958c-9.996,-11.25 -14.996,-25.346 -14.996,-42.292c0,-19.025 5.763,-34.583 17.288,-46.667c10.971,-11.387 24.512,-17.083 40.625,-17.083c18.054,-0 32.571,5.625 43.541,16.875c9.863,10.142 14.792,22.292 14.792,36.458c0,5.975 -1.946,12.084 -5.829,18.334c-1.392,2.225 -2.083,4.862 -2.083,7.916c-0,1.946 0.345,4.1 1.041,6.459c0.692,2.362 1.042,4.791 1.042,7.291c-0,8.892 -5.35,16.529 -16.046,22.917c-9.862,5.833 -20.9,8.75 -33.121,8.75" style="fill-rule:nonzero;"/><path d="M4051.64,6910.6c4.166,-0 8.75,0.971 13.75,2.917c0.137,-0 2.708,1.32 7.708,3.958c2.917,1.529 5.763,2.292 8.542,2.292c2.083,-0 4.337,-0.625 6.771,-1.875c2.429,-1.25 4.758,-2.43 6.979,-3.542c5.971,-2.5 10.971,-3.75 15,-3.75c6.25,-0 11.425,1.387 15.521,4.167c4.095,2.779 6.145,6.25 6.145,10.416c0,4.721 -0.625,8.579 -1.875,11.563c-1.25,2.987 -5.208,9.966 -11.875,20.937c-3.054,5 -4.583,9.446 -4.583,13.334c0,4.166 3.542,12.187 10.625,24.062c7.083,11.875 10.625,19.829 10.625,23.854c0,12.225 -7.083,18.334 -21.25,18.334c-6.392,-0 -13.054,-2.363 -20,-7.084c-2.5,-1.804 -4.933,-3.612 -7.292,-5.416c-2.225,-1.388 -4.1,-2.084 -5.625,-2.084c-1.945,0 -4.583,1.25 -7.916,3.75c-5.834,4.446 -10.142,7.292 -12.917,8.542c-3.333,1.525 -7.367,2.292 -12.083,2.292c-6.804,-0.001 -12.05,-1.596 -15.729,-4.792c-3.684,-3.196 -5.521,-7.292 -5.521,-12.292c-0,-5 3.887,-13.887 11.666,-26.666c6.388,-10.555 9.584,-17.78 9.584,-21.667c-0,-3.888 -0.975,-7.779 -2.917,-11.667c-3.196,-5.137 -6.321,-10.208 -9.375,-15.208c-4.029,-6.804 -6.042,-12.571 -6.042,-17.292c0,-5.833 2.292,-10.279 6.875,-13.333c3.888,-2.5 8.959,-3.75 15.209,-3.75" style="fill-rule:nonzero;"/><path d="M4186.64,6998.3c0,6.667 3.196,10 9.588,10c3.333,0 6.175,-1.212 8.541,-3.645c2.359,-2.43 3.538,-5.242 3.538,-8.438c-0,-5.275 -2.779,-7.917 -8.333,-7.917c-4.167,0 -7.571,1.321 -10.209,3.959c-2.083,2.221 -3.125,4.237 -3.125,6.041m70.004,-32.916l0,46.25c0,17.641 -8.058,25.833 -24.17,24.583l-16.246,-1.25c-3.2,-0.275 -8.267,0.35 -15.213,1.875c-7.5,1.529 -12.708,2.292 -15.625,2.292c-12.079,-0 -22.258,-3.713 -30.521,-11.146c-8.262,-7.429 -12.395,-16.354 -12.395,-26.771c-0,-9.167 1.25,-15.971 3.754,-20.417l8.333,-12.083c2.358,-3.333 3.467,-5.971 3.333,-7.917c-0.145,-1.25 -1.358,-4.062 -3.645,-8.437c-2.292,-4.375 -3.442,-8.504 -3.442,-12.396c-0,-9.304 5.071,-16.942 15.212,-22.917c9.3,-5.554 20.346,-8.333 33.121,-8.333c21.388,0 36.321,4.167 44.792,12.5c8.471,8.333 12.712,23.058 12.712,44.167" style="fill-rule:nonzero;"/><path d="M4268.52,6952.89c-0,-12.221 4.821,-22.5 14.479,-30.833c9.65,-8.334 21.904,-12.5 36.771,-12.5c15.137,-0 27.15,2.291 36.037,6.875c8.471,4.583 12.713,10.487 12.713,17.708c-0,4.308 -1.704,8.613 -5.108,12.917c-3.405,4.308 -5.034,7.221 -4.892,8.75c0.275,2.362 1.525,5 3.75,7.916c1.662,1.809 3.333,3.613 4.996,5.417c6.387,7.917 9.587,15.417 9.587,22.5c0,13.75 -4.966,24.967 -14.896,33.646c-9.933,8.679 -23.025,13.021 -39.27,13.021c-16.667,-0 -29.934,-2.779 -39.796,-8.334c-9.584,-5.137 -14.371,-11.804 -14.371,-20c-0,-5.416 2.292,-10.383 6.871,-14.895c4.587,-4.513 6.879,-7.467 6.879,-8.855c-0,-2.358 -0.975,-4.862 -2.917,-7.5c-3.754,-5.416 -5.7,-8.195 -5.837,-8.333c-3.334,-5.696 -4.996,-11.525 -4.996,-17.5" style="fill-rule:nonzero;"/><path d="M4506.34,6957.68c0,8.059 -2.291,14.517 -6.875,19.375c-4.583,4.863 -11.183,7.292 -19.791,7.292c-7.363,0 -13.338,-2.292 -17.917,-6.875c-5,-4.721 -7.5,-11.317 -7.5,-19.792c0,-7.775 2.008,-14.025 6.042,-18.75c4.446,-5.275 11.179,-7.916 20.208,-7.916c7.917,-0 14.2,2.291 18.854,6.875c4.65,4.583 6.979,11.183 6.979,19.791" style="fill-rule:nonzero;"/><path d="M4625.61,6958.1c0,14.309 3.196,25.346 9.584,33.125c5.833,7.363 13.75,11.042 23.75,11.042c10.416,0 18.854,-3.817 25.312,-11.458c6.459,-7.638 9.688,-17.709 9.688,-30.209c-0,-11.529 -2.784,-21.25 -8.334,-29.166c-6.391,-9.167 -15.416,-13.75 -27.083,-13.75c-9.446,-0 -17.292,3.783 -23.542,11.354c-6.25,7.571 -9.375,17.258 -9.375,29.062m111.667,2.084c0,23.887 -7.362,43.404 -22.083,58.541c-14.721,15.142 -33.196,22.709 -55.417,22.709c-21.25,-0 -39.412,-7.534 -54.479,-22.604c-15.071,-15.071 -22.604,-33.367 -22.604,-54.896c-0,-23.888 6.25,-43.192 18.75,-57.917c14.862,-17.5 34.721,-26.25 59.583,-26.25c20.833,0 38.679,7.642 53.542,22.917c15.133,15.696 22.708,34.862 22.708,57.5" style="fill-rule:nonzero;"/><path d="M4853.53,7006.98c-0,4.425 -2.083,8.92 -6.25,13.483c-4.167,4.562 -9.304,8.225 -15.417,10.991c-8.333,3.871 -17.221,5.805 -26.666,5.805c-17.5,-0 -32.013,-6.034 -43.542,-18.096c-11.529,-12.063 -17.292,-27.246 -17.292,-45.55c0,-17.888 5.484,-32.792 16.459,-44.721c11.529,-12.617 26.595,-18.925 45.212,-18.925c12.913,0 23.988,2.883 33.225,8.646c9.238,5.766 13.854,12.604 13.854,20.521c0,4.445 -1.737,8.333 -5.208,11.666c-3.888,3.613 -8.683,5.417 -14.375,5.417c-4.029,0 -8.225,-0.971 -12.604,-2.917c-4.375,-1.941 -8.092,-2.916 -11.146,-2.916c-5.417,-0 -9.825,2.016 -13.229,6.041c-3.404,4.029 -5.1,9.375 -5.1,16.042c-0,7.5 1.662,13.542 4.996,18.125c3.337,4.583 7.916,6.875 13.754,6.875c3.883,0 8.121,-1.108 12.704,-3.333c4.583,-2.221 8.958,-3.334 13.125,-3.334c5.137,0 9.342,1.559 12.604,4.667c3.263,3.112 4.896,6.95 4.896,11.512" style="fill-rule:nonzero;"/><path d="M4925.41,6909.97c0.967,1.946 2.292,3.821 3.954,5.625c2.084,2.221 3.263,3.542 3.546,3.959c2.775,3.887 4.167,7.22 4.167,10c-0,6.112 -3.059,12.637 -9.167,19.583c-3.892,4.308 -5.837,10.279 -5.837,17.917c-0,5.833 0.279,12.083 0.833,18.75c0.279,3.612 3.125,8.75 8.542,15.416c5.42,6.667 8.125,12.363 8.125,17.084c-0,13.887 -8.471,20.833 -25.413,20.833c-9.45,-0 -17.642,-2.642 -24.587,-7.917c-8.746,-6.666 -13.471,-16.387 -14.163,-29.166c-0.421,-11.946 -0.975,-26.388 -1.667,-43.334c-0.141,-1.804 -0.975,-4.304 -2.5,-7.5c-0.42,-0.971 -2.504,-4.446 -6.25,-10.416c-1.391,-3.196 -2.083,-5.834 -2.083,-7.917c0,-5.279 1.25,-10.138 3.746,-14.583c1.946,-3.055 3.887,-6.113 5.837,-9.167c0.834,-3.333 2.638,-8.196 5.417,-14.583c5,-7.775 11.383,-11.667 19.163,-11.667c6.529,-0 11.67,1.458 15.416,4.375c2.921,2.221 5.488,5.696 7.713,10.417c1.662,4.029 3.4,8.125 5.208,12.291" style="fill-rule:nonzero;"/><path d="M5001.24,7009.55c0,8.059 -2.292,14.513 -6.871,19.375c-4.587,4.863 -11.183,7.292 -19.791,7.292c-7.367,-0 -13.338,-2.292 -17.921,-6.875c-4.996,-4.721 -7.5,-11.317 -7.5,-19.792c-0,-7.779 2.012,-14.029 6.041,-18.75c4.446,-5.279 11.18,-7.916 20.209,-7.916c7.916,-0 14.2,2.291 18.854,6.875c4.65,4.583 6.979,11.183 6.979,19.791" style="fill-rule:nonzero;"/><path d="M5127.19,6885.39c16.108,0 24.167,9.725 24.167,29.167l-0,98.75c-0,8.333 -2.188,14.725 -6.559,19.167c-4.379,4.445 -10.246,6.666 -17.608,6.666c-15.696,0 -23.613,-8.608 -23.75,-25.833l-0.417,-50.833c-0.137,-9.025 -1.804,-15.138 -5,-18.334c-1.662,-1.666 -4.029,-3.191 -7.083,-4.583c-3.75,-1.525 -5.696,-2.358 -5.833,-2.5c-6.113,-4.025 -9.167,-8.608 -9.167,-13.75c-0,-9.167 4.583,-15.692 13.75,-19.583c3.196,-1.388 10.837,-5.834 22.917,-13.334c5.416,-3.333 10.279,-5 14.583,-5" style="fill-rule:nonzero;"/><path d="M5194.68,6977.68c-0,2.916 2.258,6.633 6.771,11.145c4.512,4.513 8.233,6.771 11.15,6.771c6.383,0 9.583,-4.446 9.583,-13.333c-0,-8.888 -3.892,-13.333 -11.667,-13.333c-3.337,-0 -6.808,1.008 -10.416,3.02c-3.613,2.013 -5.421,3.925 -5.421,5.73m45.833,-95c6.671,-0 12.225,1.908 16.667,5.729c4.441,3.821 6.671,8.437 6.671,13.854c-0,4.308 -1.534,8.333 -4.588,12.083c-1.387,1.667 -4.304,4.238 -8.75,7.709c-3.054,2.637 -4.579,4.654 -4.579,6.041c-0,1.946 2.217,5.209 6.662,9.792c5.838,5.971 10.005,11.179 12.5,15.625c4.446,7.917 6.667,16.946 6.667,27.083c0,16.946 -5.208,30.763 -15.625,41.459c-10.971,11.529 -26.042,17.291 -45.208,17.291c-16.388,0 -29.304,-5 -38.746,-15c-7.225,-7.5 -10.975,-15.279 -11.254,-23.333c-0.138,-5.417 0.971,-10.067 3.333,-13.958c1.113,-1.805 3.333,-4.238 6.671,-7.292c2.496,-2.221 3.746,-4.167 3.746,-5.833c-0,-1.388 -1.6,-4.584 -4.788,-9.584c-3.2,-5 -4.654,-10.971 -4.379,-17.916c0.275,-7.363 1.254,-16.53 2.917,-27.5c1.804,-11.805 3.471,-19.305 5,-22.5c4.583,-9.167 12.221,-13.75 22.916,-13.75l44.167,-0Z" style="fill-rule:nonzero;"/><path d="M5284.68,7037.89c0,-2.78 -0.975,-7.221 -2.917,-13.334c-1.95,-6.112 -2.916,-11.108 -2.916,-15c-0,-7.779 2.008,-14.096 6.041,-18.958c4.58,-5.417 11.175,-8.125 19.792,-8.125c18.054,-0 27.083,11.112 27.083,33.333c0,16.529 -3.754,29.513 -11.25,38.959c-6.391,7.916 -13.75,11.875 -22.083,11.875c-4.45,-0 -8.058,-1.321 -10.837,-3.959c-2.78,-2.641 -4.167,-5.766 -4.167,-9.375c0,-2.221 0.212,-4.583 0.629,-7.083c0.413,-2.5 0.625,-5.279 0.625,-8.333" style="fill-rule:nonzero;"/><path d="M5457.71,6885.39c16.108,0 24.166,9.725 24.166,29.167l0,98.75c0,8.333 -2.187,14.725 -6.558,19.167c-4.379,4.445 -10.246,6.666 -17.608,6.666c-15.696,0 -23.613,-8.608 -23.75,-25.833l-0.417,-50.833c-0.137,-9.025 -1.804,-15.138 -5,-18.334c-1.662,-1.666 -4.029,-3.191 -7.083,-4.583c-3.75,-1.525 -5.696,-2.358 -5.834,-2.5c-6.112,-4.025 -9.166,-8.608 -9.166,-13.75c-0,-9.167 4.583,-15.692 13.75,-19.583c3.195,-1.388 10.837,-5.834 22.916,-13.334c5.417,-3.333 10.279,-5 14.584,-5" style="fill-rule:nonzero;"/><path d="M5547.08,6986.43c0,4.725 2.084,7.083 6.25,7.083c1.667,0 3.125,-0.691 4.38,-2.083c1.249,-1.388 1.87,-3.054 1.87,-5c0,-4.721 -2.083,-7.083 -6.25,-7.083c-4.166,-0 -6.25,2.362 -6.25,7.083m54.167,-71.25c0,3.617 -2.779,9.167 -8.333,16.667c-1.946,2.641 -2.913,4.583 -2.913,5.833c0,2.225 1.596,5.35 4.788,9.375c4.304,5.558 7.225,10 8.754,13.333c3.187,6.529 4.787,13.821 4.787,21.875c0,15.7 -4.446,28.75 -13.333,39.167c-10.142,11.95 -24.446,17.917 -42.917,17.917c-19.308,-0 -34.096,-7.15 -44.371,-21.459c-9.312,-13.054 -13.962,-30.625 -13.962,-52.708c0,-32.917 7.637,-56.458 22.917,-70.625c10.137,-9.304 22.779,-13.958 37.92,-13.958c14.996,-0 26.942,4.166 35.83,12.5c7.22,6.95 10.833,14.308 10.833,22.083" style="fill-rule:nonzero;"/><path d="M5743.86,7038.72c-17.083,-0 -31.388,-5 -42.917,-15c-11.946,-10.417 -17.916,-23.75 -17.916,-40c-0,-7.917 1.358,-14.825 4.062,-20.729c2.708,-5.9 8.025,-13.438 15.938,-22.604c5.554,-6.388 8.333,-12.084 8.333,-17.084c-0,-2.362 -0.138,-4.233 -0.413,-5.625c-0.283,-1.387 -0.42,-2.987 -0.42,-4.791c-0,-14.167 4.791,-25.209 14.375,-33.125c8.47,-7.084 19.233,-10.625 32.291,-10.625c13.888,-0 25.138,4.066 33.754,12.204c8.609,8.133 12.913,18.387 12.913,30.762c-0,4.454 -1.392,9.842 -4.167,16.171c-2.779,6.329 -4.166,10.392 -4.166,12.2c-0,2.925 4.583,5.425 13.75,7.508c4.72,1.117 8.679,3.792 11.879,8.034c3.187,4.237 4.787,9.212 4.787,14.912c0,1.95 -0.412,4.734 -1.25,8.346c-0.833,3.617 -1.246,6.258 -1.246,7.925c0,3.892 2.084,8.625 6.25,14.183c3.05,4.175 4.58,8.905 4.58,14.188c-0,7.367 -2.642,13 -7.913,16.896c-4.308,3.196 -9.587,4.796 -15.837,4.796c-5.555,-0 -11.284,-0.592 -17.188,-1.771c-5.904,-1.179 -10.033,-1.771 -12.396,-1.771c-1.804,-0 -6.946,0.833 -15.416,2.5c-8.471,1.667 -15.692,2.5 -21.667,2.5" style="fill-rule:nonzero;"/><path d="M5961.89,6885.39c16.109,0 24.167,9.725 24.167,29.167l0,98.75c0,8.333 -2.187,14.725 -6.558,19.167c-4.379,4.445 -10.246,6.666 -17.609,6.666c-15.695,0 -23.612,-8.608 -23.75,-25.833l-0.416,-50.833c-0.138,-9.025 -1.804,-15.138 -5,-18.334c-1.663,-1.666 -4.029,-3.191 -7.084,-4.583c-3.75,-1.525 -5.695,-2.358 -5.833,-2.5c-6.112,-4.025 -9.167,-8.608 -9.167,-13.75c0,-9.167 4.584,-15.692 13.75,-19.583c3.196,-1.388 10.838,-5.834 22.917,-13.334c5.417,-3.333 10.279,-5 14.583,-5" style="fill-rule:nonzero;"/><path d="M6082.51,6884.76c6.945,-0 12.712,2.016 17.291,6.041c4.584,4.03 6.879,8.959 6.879,14.792c0,7.779 -2.02,15.279 -6.041,22.5c-4.588,6.667 -9.1,13.333 -13.542,20c-11.112,16.946 -20.283,41.113 -27.504,72.5c-2.779,11.946 -11.246,17.917 -25.417,17.917c-14.996,-0 -22.5,-6.529 -22.5,-19.584c0,-6.108 1.875,-14.65 5.629,-25.625c3.33,-9.304 7.146,-17.983 11.459,-26.041c10.55,-19.859 15.829,-31.113 15.829,-33.75c-0,-5.555 -5.558,-8.334 -16.667,-8.334c-20.554,0 -30.833,-6.525 -30.833,-19.583c-0,-6.25 2.083,-11.283 6.25,-15.104c4.167,-3.821 9.587,-5.729 16.25,-5.729l62.917,-0Z" style="fill-rule:nonzero;"/><path d="M6166.88,7009.55c-0,8.059 -2.292,14.513 -6.871,19.375c-4.588,4.863 -11.184,7.292 -19.792,7.292c-7.367,-0 -13.337,-2.292 -17.921,-6.875c-4.996,-4.721 -7.5,-11.317 -7.5,-19.792c0,-7.779 2.013,-14.029 6.042,-18.75c4.446,-5.279 11.179,-7.916 20.208,-7.916c7.917,-0 14.2,2.291 18.854,6.875c4.65,4.583 6.98,11.183 6.98,19.791" style="fill-rule:nonzero;"/><path d="M6320.12,6911.85l0,82.5c0,14.446 -3.892,25.696 -11.667,33.75c-7.779,8.054 -18.612,12.083 -32.5,12.083c-12.358,0 -21.283,-1.633 -26.766,-4.895c-5.492,-3.263 -8.234,-8.438 -8.234,-15.521c0,-8.888 4.305,-16.109 12.921,-21.667c6.25,-4.025 10.309,-7.533 12.184,-10.521c1.879,-2.987 2.812,-7.396 2.812,-13.229l0,-67.5c0,-8.75 2.221,-15.587 6.671,-20.521c4.442,-4.929 10.417,-7.396 17.917,-7.396c9.72,0 16.591,2.534 20.625,7.605c4.025,5.07 6.037,13.508 6.037,25.312" style="fill-rule:nonzero;"/><path d="M6378.86,6974.56c0,6.25 1.667,11.491 5,15.729c3.334,4.237 7.5,6.354 12.5,6.354c4.588,-0 8.575,-2.188 11.98,-6.563c3.404,-4.375 5.108,-9.687 5.108,-15.937c-0,-6.25 -1.529,-11.492 -4.588,-15.729c-3.054,-4.238 -7.358,-6.354 -12.912,-6.354c-4.725,-0 -8.683,1.945 -11.879,5.833c-3.471,4.304 -5.209,9.862 -5.209,16.667m83.755,-0.834c-0,18.613 -5.7,34.029 -17.088,46.25c-11.946,13.054 -27.637,19.584 -47.083,19.584c-21.804,-0 -38.888,-6.25 -51.25,-18.75c-11.663,-11.667 -17.5,-27.221 -17.5,-46.667c-0,-19.446 6.212,-35.208 18.65,-47.292c12.425,-12.083 28.296,-18.125 47.604,-18.125c18.883,0 34.65,5.904 47.287,17.709c12.921,12.362 19.38,28.125 19.38,47.291" style="fill-rule:nonzero;"/><path d="M6472.2,6897.05c0,-5.696 2.221,-10.866 6.667,-15.521c4.442,-4.65 10,-6.979 16.667,-6.979c6.666,0 12.291,2.154 16.875,6.459c4.583,4.308 6.875,9.791 6.875,16.458c-0,3.333 -0.417,6.425 -1.25,9.271c-0.834,2.846 -1.25,5.175 -1.25,6.979c-0,2.637 0.691,6.667 2.083,12.083c1.667,6.529 2.5,13.471 2.5,20.834l0,65.416c0,8.196 -2.154,14.863 -6.458,20c-4.446,5.554 -10.625,8.334 -18.542,8.334c-7.083,-0 -12.917,-1.946 -17.5,-5.834c-5.833,-5 -8.75,-12.775 -8.75,-23.333l0.417,-68.333c-0,-5.138 0.696,-10.242 2.083,-15.313c1.388,-5.071 2.083,-8.854 2.083,-11.354c0,-2.5 -0.416,-5.483 -1.25,-8.958c-0.833,-3.471 -1.25,-6.875 -1.25,-10.209" style="fill-rule:nonzero;"/><path d="M6645.53,6962.89l0,45.833c0,9.029 -2.183,15.938 -6.558,20.729c-4.379,4.792 -10.109,7.188 -17.188,7.188c-16.666,-0 -25,-9.584 -25,-28.75l0,-27.084c0,-14.72 -2.783,-22.083 -8.333,-22.083c-5.283,0 -7.921,7.363 -7.921,22.083l0,27.084c0,8.75 -2.221,15.729 -6.662,20.937c-4.45,5.209 -10.417,7.813 -17.921,7.813c-16.113,-0 -24.167,-10.554 -24.167,-31.667l0,-64.167c0,-19.166 8.613,-28.75 25.833,-28.75c2.225,0 4.688,0.138 7.4,0.417c2.705,0.279 6.35,0.417 10.938,0.417c2.775,-0 7.008,-0.554 12.708,-1.667c5.692,-1.112 10.9,-1.667 15.625,-1.667c27.496,0 41.246,17.78 41.246,53.334" style="fill-rule:nonzero;"/><path d="M6773.98,6916.51l-0,55.642c-0,7.196 1.837,13.283 5.521,18.267c3.679,4.983 8.508,7.47 14.483,7.47c6.108,0 11.108,-2.216 14.996,-6.662c3.887,-4.446 5.837,-10.833 5.837,-19.167l0,-55.833c0,-13.471 1.663,-22.95 4.996,-28.442c3.338,-5.483 9.446,-8.229 18.334,-8.229c9.304,0 15.733,2.642 19.27,7.917c3.542,5.283 5.317,15.141 5.317,29.583l0,56.667c0,25.141 -8.821,43.475 -26.462,55.004c-12.221,8.05 -26.321,12.083 -42.288,12.083c-26.254,0 -45.421,-9.283 -57.504,-27.85c-5.696,-8.862 -9.1,-20.841 -10.204,-35.946c-0.142,-1.658 -0.213,-14.475 -0.213,-38.441l0,-22.025c0,-12.604 1.596,-21.921 4.792,-27.95c3.196,-6.025 8.821,-9.042 16.875,-9.042c9.858,0 16.7,2.667 20.521,7.996c3.821,5.329 5.729,14.983 5.729,28.958" style="fill-rule:nonzero;"/><path d="M6874.19,6952.89c0,-12.221 4.821,-22.5 14.479,-30.833c9.65,-8.334 21.905,-12.5 36.771,-12.5c15.138,-0 27.15,2.291 36.038,6.875c8.471,4.583 12.712,10.487 12.712,17.708c0,4.308 -1.704,8.613 -5.108,12.917c-3.404,4.308 -5.033,7.221 -4.892,8.75c0.275,2.362 1.525,5 3.75,7.916c1.663,1.809 3.334,3.613 4.996,5.417c6.388,7.917 9.588,15.417 9.588,22.5c-0,13.75 -4.967,24.967 -14.896,33.646c-9.934,8.679 -23.025,13.021 -39.271,13.021c-16.667,-0 -29.933,-2.779 -39.796,-8.334c-9.583,-5.137 -14.371,-11.804 -14.371,-20c0,-5.416 2.292,-10.383 6.871,-14.895c4.588,-4.513 6.879,-7.467 6.879,-8.855c0,-2.358 -0.975,-4.862 -2.916,-7.5c-3.755,-5.416 -5.7,-8.195 -5.838,-8.333c-3.333,-5.696 -4.996,-11.525 -4.996,-17.5" style="fill-rule:nonzero;"/><path d="M7043.15,7009.55c-0,8.059 -2.292,14.513 -6.871,19.375c-4.587,4.863 -11.183,7.292 -19.792,7.292c-7.366,-0 -13.337,-2.292 -17.92,-6.875c-4.996,-4.721 -7.5,-11.317 -7.5,-19.792c-0,-7.779 2.012,-14.029 6.041,-18.75c4.446,-5.279 11.179,-7.916 20.209,-7.916c7.916,-0 14.2,2.291 18.854,6.875c4.65,4.583 6.979,11.183 6.979,19.791" style="fill-rule:nonzero;"/></g></g></svg>