<?xml version="1.0" encoding="UTF-8" standalone="no"?><!DOCTYPE svg PUBLIC "-//W3C//DTD SVG 1.1//EN" "http://www.w3.org/Graphics/SVG/1.1/DTD/svg11.dtd"><svg width="100%" height="100%" viewBox="0 0 144688 144688" version="1.1" xmlns="http://www.w3.org/2000/svg" xmlns:xlink="http://www.w3.org/1999/xlink" xml:space="preserve" xmlns:serif="http://www.serif.com/" style="fill-rule:evenodd;clip-rule:evenodd;stroke-miterlimit:10;"><rect id="Page-1" serif:id="Page 1" x="0" y="0" width="144676" height="144676" style="fill:none;"/><g><g id="Layer-1" serif:id="Layer 1"><rect x="0" y="0" width="144676" height="144676" style="fill:none;stroke:#fff;stroke-width:72.42px;"/><path d="M88897.9,24482.8c3.475,33.491 -1.821,70.954 11.562,99.896c900.608,1955.66 1851.29,3884.85 3034.88,5689.38c444.792,678.179 926.929,1328.42 1473.6,1929.05c359.304,394.742 747.171,758.092 1181.42,1069.95c311.337,223.592 641.929,412.534 1001.67,548.175c723.437,272.934 1446.46,271.409 2169.55,-1.441c481.841,-181.859 907.187,-457.984 1304.33,-780.971c514.32,-418.333 959.633,-903.717 1373.92,-1418.91c763.821,-949.859 1405.89,-1980.03 2003.68,-3039.27c682.654,-1209.63 1294.86,-2454.86 1878.56,-3714.7c179.254,-386.788 114.929,-375.867 525.171,-238.28c175.35,58.888 350.4,119.063 523.646,183.959c123.837,46.371 141.496,73.629 115.312,209.479c-74.441,386.075 -154.233,770.987 -233.229,1156.11c-286.092,1394.53 -510.121,2798.98 -650.812,4215.62c-90.417,910.521 -128.267,1824.35 -77.692,2738.78c37.758,682.587 127.462,1358.73 333.904,2014.46c97.517,309.983 221.146,608.592 382.746,890.85c493.054,861.475 1240.95,1345.99 2212.9,1508.32c636.791,106.266 1268.88,64.304 1899.74,-37.692c1194.79,-193.212 2330.14,-586.512 3445.75,-1041.51c1576.6,-643.088 3090.19,-1416.46 4581.79,-2234.38c212.971,-116.75 424.046,-237.063 638.162,-351.717c98.384,-52.658 138.542,-45.783 209.359,43.404c172.671,217.308 340.208,438.729 508.816,659.217c41.371,54.046 32.917,110.175 -12.95,154.879c-66.25,64.529 -138.158,123.196 -207.308,184.671c-1298.11,1153.73 -2564.17,2340.5 -3731.77,3628.26c-614.671,677.884 -1197.2,1381.8 -1711.53,2139.97c-377.604,556.717 -715.121,1135.71 -957.742,1765.35c-184.029,477.637 -310.695,968.316 -313.3,1485.31c-3.195,635.992 191.409,1204.64 571.113,1712.67c266.337,356.338 595.483,645.609 957.967,898.575c553.75,386.442 1159,673.838 1786.3,916.825c1038.35,402.117 2113,677.95 3201.18,902.55c1359.95,280.679 2731.84,487.346 4111.91,640.763c344.896,38.354 689.013,83.058 1033.85,121.529c95.125,10.575 147.138,53.246 151.913,150.696c7.379,150.175 31.458,301.283 21.404,450.225c-39.358,584.929 43.038,472.429 -478.942,532.762c-999.425,115.604 -1998.56,234.459 -2992.19,394.825c-1588.54,256.371 -3163.92,567.709 -4686.21,1104.3c-622.988,219.621 -1227.73,479.759 -1795.3,821.042c-308.367,185.471 -600.104,393.163 -864.721,637.292c-897.796,828.125 -1200.75,1836.3 -913.558,3022.93c117.758,486.546 306.925,945.383 538.487,1387.38c355.679,678.821 790,1306.13 1262,1908.06c794.133,1012.88 1675.64,1946.32 2593.91,2845.92c735.746,720.921 1492.46,1419.41 2266.34,2099.32c52.166,45.779 104.896,91.354 152.775,141.425c43.629,45.484 57.516,101.7 16.146,156.021c-175.275,229.967 -351.859,458.908 -529.08,687.292c-40.729,52.521 -96.512,62.5 -154.079,32.466c-102.587,-53.383 -203.125,-110.52 -304.341,-166.579c-1487.76,-824.512 -2995.43,-1609.24 -4562.21,-2275.4c-990.816,-421.3 -1998.4,-794.704 -3047.6,-1045.57c-688.508,-164.637 -1383.96,-271.337 -2095.55,-249.429c-313.871,9.704 -621.371,51.442 -925.488,128.559c-856.633,217.225 -1486.48,723.3 -1909.29,1493.63c-235.608,429.325 -387.379,889.391 -490.679,1366.53c-167.446,773.087 -216.059,1556.72 -211.875,2345.48c6.579,1241.04 144.829,2470.05 326.321,3695.61c169.566,1144.46 384.479,2280.38 630.712,3410.59c14.754,67.638 25.763,136.717 30.971,205.659c4.687,62.933 -24.738,109.808 -87.967,131.579c-251.375,86.666 -501.666,176.721 -754.341,259.55c-142.292,46.666 -171.667,31.387 -240.592,-113.142c-243.854,-511.492 -479.963,-1026.75 -728.817,-1535.8c-747.312,-1529.08 -1549.25,-3027.78 -2515.77,-4432.42c-512.655,-745.087 -1069.88,-1453.99 -1732.5,-2074.08c-398.784,-373.196 -830.067,-701.321 -1320.66,-947.85c-968.975,-486.908 -1934.46,-478.504 -2898.73,12.084c-457.396,232.708 -862.638,538.925 -1239.51,884.116c-574.358,526.179 -1066.98,1123.99 -1523.64,1752.31c-770.4,1059.97 -1425.71,2190.47 -2039.79,3345.85c-488.646,919.495 -942.346,1856.34 -1379.64,2801.22c-29.079,62.934 -55.691,127.171 -86.65,189.304c-77.55,155.746 -94.183,165 -270.762,108.663c-209.271,-66.7 -417.1,-138.175 -623.854,-212.238c-217.796,-78.054 -221.129,-85.658 -177.363,-296.095c49.413,-237.692 103.3,-474.53 152.05,-712.375c300.054,-1462.17 552.95,-2932.22 707.604,-4417.46c106.771,-1025.75 145.33,-2054.9 82.621,-3085.14c-43.696,-718.092 -157.341,-1425.12 -408.646,-2104.1c-100.691,-272.067 -224.825,-532.621 -380.345,-777.709c-466.284,-734.65 -1135.99,-1171 -1982.78,-1340.85c-561.354,-112.62 -1127.33,-105.675 -1693.07,-37.029c-1285.82,156.092 -2499.86,567.775 -3693.51,1047.95c-1622.97,652.934 -3176.88,1448.94 -4709.42,2288.49c-202.9,111.112 -404.084,225.471 -607.709,335.141c-106.479,57.292 -143.733,53.959 -209.566,-29.375c-172.155,-217.795 -339.413,-439.516 -508.684,-659.566c-52.725,-68.509 -35.658,-127.534 24.029,-180.921c68.942,-61.7 138.021,-123.333 207.242,-184.825c1263.89,-1122.4 2495.66,-2278.08 3637.08,-3526.68c633.038,-692.571 1232.86,-1412.12 1763.31,-2187.36c386.496,-564.671 731.979,-1152.71 979.604,-1792.83c184.529,-477.275 305.833,-967.083 311.404,-1485.38c8.317,-770.696 -268.004,-1421.81 -782.987,-1981.48c-307.863,-334.638 -665.292,-608.159 -1052.95,-843.838c-636.059,-386.633 -1318.42,-669.983 -2020.24,-910.433c-942.642,-322.917 -1908.65,-557.659 -2884.41,-751.804c-1236.77,-246.184 -2482.64,-436.2 -3736.11,-575.888c-390.766,-43.558 -781.391,-88.404 -1171.95,-134.55c-137.012,-16.212 -154.67,-34.65 -167.258,-173.104c-24.079,-265.696 -21.042,-531.617 1.667,-797.379c6.875,-80.888 51.721,-122.763 131.583,-131.946c390.779,-44.863 781.542,-88.767 1171.96,-136.008c1918.54,-232.271 3826.6,-522.413 5693.17,-1039.41c781.25,-216.371 1546.51,-476.65 2279.29,-827.116c387.083,-185.192 758.47,-396.634 1105.9,-648.58c263.02,-190.833 505.279,-405.312 719.412,-650.691c620.729,-711.371 818.575,-1538.84 665.867,-2457.75c-86.009,-517.358 -273.004,-1002.6 -504.134,-1471.72c-339.041,-688.075 -765.625,-1320.31 -1230.6,-1927.74c-634.116,-828.267 -1333.04,-1599.67 -2061.13,-2345.56c-938.142,-961.146 -1922.95,-1872.9 -2927.95,-2763.23c-240.379,-212.967 -239.721,-188.087 -50.642,-435.921c119.359,-156.387 237.5,-313.712 360.609,-467.083c115.016,-143.367 133.975,-147.567 287.691,-64.513c254.409,137.5 505.779,280.592 759.842,418.68c1382.52,751.737 2783.56,1465.64 4238,2070.18c940.679,391.058 1896.34,737.987 2890.62,969.55c643.887,149.945 1293.47,254.337 1957.33,246.458c337.017,-3.996 668.612,-48.908 995.592,-129.496c791.145,-194.879 1401.55,-639.462 1831.8,-1330.8c335.208,-538.7 514.896,-1134.33 633.979,-1751.44c147.708,-765.345 171.942,-1539.65 161.892,-2315.83c-15.992,-1228.87 -158.58,-2445.88 -343.613,-3659.29c-169.2,-1109.38 -381.946,-2210.37 -617.483,-3307.22c-9.688,-45.209 -20.104,-90.417 -26.042,-136.129c-10.121,-78.559 20.054,-130.434 99.479,-157.05c186.338,-62.5 372.242,-126.596 556.2,-195.817c105.609,-39.792 228.229,-44.2 309.254,-139.254l69.442,-0l-0.012,-0Z" style="fill-rule:nonzero;"/><path d="M41233.9,47800c702.692,-16.129 1484.51,-86.233 2253.9,-264.254c1335.94,-309.096 2564.31,-849.825 3643.73,-1706.16c742.779,-589.254 1357.78,-1288.33 1798.54,-2132.31c582.33,-1115.15 768.163,-2291.37 532.121,-3530.52c-160.958,-844.55 -518.091,-1602.07 -1024.45,-2291.67c-576.041,-784.583 -1295.87,-1412.47 -2123.7,-1917.74c-1476.06,-900.975 -3093.41,-1321.11 -4809.62,-1393.32c-812.567,-34.2 -1618.06,42.187 -2414.27,200.608c-1273.59,253.317 -2458.7,725.762 -3525.61,1473.96c-913.054,640.329 -1664.42,1429.53 -2188.96,2422.15c-435.604,824.292 -657.983,1704.79 -634.754,2635.14c26.908,1078.47 363.854,2065.02 966.65,2959.78c659.792,979.233 1530.45,1726.77 2553.25,2301.86c1516.86,852.95 3159.43,1218.54 4973.17,1242.48m-2686.93,16981.8c0,-2337.52 0.434,-4675 -0.366,-7012.5c-0.209,-505.209 36.546,-412.534 -418.317,-465.713c-1207.55,-141.129 -2401.77,-352.862 -3577.25,-666.371c-2654.08,-707.9 -5112.96,-1827.99 -7321.71,-3473.02c-1649.31,-1228.3 -3056.49,-2686.04 -4153.78,-4432.12c-927.587,-1476.06 -1561.7,-3068 -1859.08,-4788.12c-190.262,-1100.12 -227.154,-2207.19 -118.787,-3319.51c261.583,-2684.83 1319.24,-5036.46 2990.09,-7127.58c1442.07,-1804.78 3210.22,-3225.05 5213.12,-4360.83c1956.75,-1109.51 4043.91,-1876.08 6237.58,-2362.34c2193.92,-486.321 4415.38,-656.896 6655.46,-541.667c3525.82,181.283 6871.96,1042.97 9989.58,2727.29c1566.55,846.283 2999.34,1878.83 4266.79,3132.08c1550.28,1532.98 2764.33,3291.39 3527.43,5344.62c388.667,1045.8 636.633,2124.06 737.692,3237.13c252.325,2779.15 -384.113,5351.83 -1792.53,7744c-1034.79,1757.45 -2395.47,3228.3 -3996.37,4481.62c-2009.05,1572.92 -4253.71,2693.42 -6682.58,3454.27c-1416.1,443.646 -2861.47,752.329 -4336.79,917.971c-160.887,18.092 -321.616,37.829 -482.208,58.525c-132.237,17.067 -152.133,37.463 -157.846,178.088c-4.616,115.541 -2.308,231.425 -2.308,347.083c-0.071,4640.33 -0.071,9280.67 -0,13921c-0,185.033 4.704,369.654 -55.054,549.704c-40.571,122.308 -93.609,236.392 -173.313,337.379c-112.571,142.796 -255.575,233.142 -440.471,246.529c-80.658,5.85 -161.595,10.555 -242.483,10.625c-960.433,0.796 -1920.94,0.659 -2881.35,0.363c-69.375,-0 -138.821,-2.013 -208.196,-4.546c-269.896,-9.917 -454.129,-151.979 -578.921,-381.008c-78.421,-143.888 -127.379,-297.884 -133.454,-462.675c-4.342,-115.588 -4.342,-231.404 -4.342,-347.084c-0.225,-2314.38 -0.158,-4628.75 -0.158,-6943.12" style="fill-rule:nonzero;"/><path d="M34859.4,72350.4c-836.371,-12.221 -1601.04,-185.467 -2354.38,-419.775c-1266.63,-394.029 -2454.86,-953.783 -3557.43,-1692.2c-452.621,-303.092 -878.996,-639.758 -1258.25,-1032.76c-241.842,-250.663 -459.5,-520.125 -620.817,-830.959c-107.204,-206.666 -187.708,-421.875 -200.521,-658.279c-13.454,-247.242 26.98,-479.375 137.742,-705.296c681.858,-1391.34 1753.18,-2339.41 3228.58,-2809.6c3037.33,-967.95 6224.83,908.125 6868.54,4029.08c218.975,1061.56 110.104,2088.33 -278.354,3097.72c-192.567,500.225 -545.571,786.25 -1044.41,924.046c-315.608,87.242 -638.887,97.517 -920.729,98.021" style="fill-rule:nonzero;"/><path d="M45004.5,69193.7c10.992,-2547.52 1811.7,-4767 4321.08,-5237.04c1937.07,-362.775 3606.77,196.616 4990.25,1612.99c417.675,427.604 500.433,919.634 380.641,1471.28c-81.666,375.8 -243.35,721.65 -431.058,1055.71c-233.142,414.775 -508.75,800.263 -814.025,1164.06c-1028.28,1225.61 -2233.08,2243.33 -3618.7,3043.68c-572.55,330.729 -1170.58,605.258 -1821.48,747.029c-272.204,59.325 -546.371,84.929 -826.25,62.588c-404.15,-32.346 -725.538,-203.992 -979.1,-520.625c-506.925,-632.95 -862.325,-1339.78 -1048.59,-2128.61c-55.641,-235.675 -92.237,-476.787 -122.187,-717.308c-22.796,-183.021 -21.267,-369.063 -30.592,-553.75" style="fill-rule:nonzero;"/><path d="M69424.9,93388.7c-0,32.917 -0.642,55.625 0.296,78.355c0.433,11.195 3.975,22.341 6.079,33.487c10.121,53.092 56.996,71.617 97.792,33.558c32.275,-30.087 66.2,-65.104 81.458,-104.737c17.362,-45.071 -72.846,-134.55 -128.263,-131.513c-66.041,3.68 -51.716,59.825 -57.362,90.85m4192.12,-5747.75c12.292,-337.45 -32.692,-704.704 -96.65,-1069.01c-70.017,-398.575 -167.308,-790.867 -335.783,-1161.73c-115.605,-254.638 -259.634,-489.584 -466.942,-681.513c-129.271,-119.633 -274.896,-207.604 -446.25,-255.346c-613.371,-170.937 -1231.93,101.7 -1513.82,672.879c-113.508,229.896 -173.246,475.855 -213.767,728.3c-100.262,623.992 -50.554,1244.65 36.459,1864.15c48.246,343.68 128.333,680.921 248.925,1007.1c104.737,283.492 247.671,544.638 438.575,781.892c571.979,710.729 1621.25,456.963 1968.68,-119.062c138.892,-230.259 237.121,-473.75 298.317,-734.6c77.258,-329.2 89.2,-663.196 82.258,-1033.06m-1495.73,9567.92c499.929,7.308 993.629,-44.342 1478.8,-163.492c441.183,-108.437 858.075,-274.079 1226.06,-548.608c496.375,-370.296 707.313,-866.392 662.675,-1479.6c-27.987,-384.325 -218.092,-654.15 -571.529,-797.604c-170.225,-69.013 -350.917,-118.058 -531.042,-155.663c-545.779,-114.079 -1099.53,-141.42 -1656.02,-134.545c-647.795,8.02 -1296.01,12.429 -1937.36,-99.188c-105.175,-18.296 -177.013,11.217 -246.754,82.396c-300.696,306.792 -578.471,631.512 -777.692,1015.05c-63.662,122.533 -122.917,250.363 -161.317,382.446c-157.916,543.404 -36.391,1074.95 486.542,1432.73c202.554,138.592 421.65,238.417 655.454,309.754c447.917,136.634 908.854,159.792 1372.19,156.321m-15743.8,-8099.12c0,-104.304 2.033,-277.846 -0.362,-451.3c-7.813,-555.121 -8.246,-1110.47 -59.534,-1664.22c-41.733,-451.162 -127.741,-892.358 -283.991,-1318.35c-108.3,-295.296 -252.675,-571.25 -459.634,-810.4c-161.896,-187.062 -352.225,-332.325 -598.162,-394.962c-427.084,-108.734 -801.65,1.212 -1131.73,276.908c-320.454,267.708 -514.325,621.008 -646.704,1010.19c-190.9,561.129 -299.046,1140.12 -353.733,1729.1c-91.283,983.075 -67.204,1964.41 66.042,2942.41c75.158,551.65 200.02,1091.44 418.041,1606.56c90.571,213.908 201.388,415.729 343.471,600.541c456.804,594.271 1158.12,567.359 1613.99,281.542c276.996,-173.679 520.054,-386.354 697.05,-665.729c111.337,-175.85 214.566,-356.979 329.216,-530.588c86.875,-131.512 114.517,-269.687 110.384,-426.146c-18.663,-705.295 -29.446,-1410.82 -44.342,-2185.56m-4413.5,4083.27c-39.496,-95.992 -72.621,-195.313 -119.567,-287.538c-383.108,-753.262 -567.862,-1561.2 -668.195,-2393.3c-69.442,-575.954 -81.3,-1154.24 -69.442,-1733.08c22.133,-1082.55 173.471,-2143.32 550.137,-3164.58c120.367,-326.233 262.363,-642.5 440.471,-941.612c148.575,-249.567 318.854,-484.013 529.288,-684.896c737.341,-703.925 1606.27,-925.209 2592.59,-685.696c261.004,63.437 493.575,196.042 711.959,351.425c56.495,40.296 109.516,85.433 165.729,126.075c44.916,32.412 86.146,96.146 146.271,71.408c82.966,-34.15 47.15,-120.158 48.245,-183.596c2.309,-127.029 -8.404,-254.27 -10.487,-381.441c-16.717,-1006.58 -32.342,-2013.16 -49.2,-3019.67c-4.046,-241.108 -14.1,-481.771 -81.442,-719.979c-267.45,-4.342 -453.558,193.35 -701.979,239.721c-156.892,-232.571 -245.504,-496.892 -367.9,-743.784c-29.737,-60.037 -13.383,-112.258 41.233,-149.654c28.421,-19.462 60.33,-34.079 91.284,-49.567c651.683,-325.954 1303.02,-652.845 1955.8,-976.77c164.2,-81.459 171.233,-76.459 299.983,49.341c24.808,24.217 44.496,54.463 71.613,75.363c178.891,137.954 230.329,314.1 232.866,542.033c20.171,1839.63 53.888,3679.18 84.842,5518.75c21.771,1295.73 46.079,2591.44 68.733,3887.15c23.646,1353.6 45.054,2707.26 71.25,4060.77c5.279,276.041 26.979,551.875 61.996,826.979c181.858,23.871 309.742,-64.967 442.346,-128.838c301.492,-145.037 283.192,-145.695 428.75,155.225c35.296,72.917 67.117,147.571 106.042,218.405c34.062,61.979 129.983,61.475 175.208,4.687c52.15,-65.454 76.962,-140.696 90.121,-222.225c33.279,-205.867 59.529,-411.962 55.191,-621.442c-16.129,-775.033 -31.391,-1550.07 -44.983,-2325.17c-16.354,-937.067 -29.671,-1874.27 -46.371,-2811.34c-10.487,-590.054 -20.696,-1180.12 -38.766,-1769.9c-15.055,-488.716 -30.384,-495.504 -456.825,-294.046c-341.075,161.096 -295.867,197.188 -466.442,-169.27c-73.192,-157.188 -145.817,-314.738 -217.083,-472.884c-9.046,-20.104 -7.813,-44.771 -11.492,-68.071c46.442,-72.258 125.362,-97.866 196.612,-134.325c628.18,-321.25 1255.78,-643.52 1885.12,-962.533c188.592,-95.625 190.763,-91.283 329.288,43.908c309.167,301.805 312.775,301.734 320.154,750.796c14.479,879.342 21.2,1758.84 37.121,2638.09c33.279,1839.41 69.875,3678.75 106.542,5518.08c4.341,219.688 21.791,437.5 68.37,654.584c40.296,187.566 151.405,278.575 326.459,309.183c252.462,44.112 507.083,37.462 761.508,20.537c93.021,-6.216 143.942,-66.7 171.442,-148.662c52.083,-154.792 77.171,-314.671 76.825,-477.867c-1.304,-497.533 0.708,-995.225 -7.104,-1492.69c-25.38,-1631.28 -52.88,-3262.58 -83.696,-4893.79c-6.579,-346.858 -27.846,-693.575 -48.388,-1040.07c-10.121,-169.567 -58.662,-197.483 -224.391,-130.937c-139.321,55.92 -273.438,124.704 -410.155,187.204c-76.458,34.95 -135.991,12.883 -171.079,-61.563c-103.662,-219.616 -206.229,-439.737 -306.058,-661.091c-27.067,-59.825 -4.425,-113.559 49.117,-149.305c38.333,-25.541 80.795,-45.141 121.962,-66.25c618.054,-315.695 1236.11,-631.304 1854.38,-946.479c51.508,-26.266 103.958,-50.779 156.979,-73.646c47.084,-20.241 91.354,-8.816 126.875,25.68c99.392,96.787 196.771,195.745 295.729,292.966c69.721,68.438 101.563,148.525 100.605,248.125c-1.646,173.475 4.708,347.017 10.645,520.4c0.571,18.229 17.292,43.767 33.28,51.217c16.7,7.742 49.687,5.867 61.7,-5.938c66.112,-64.512 127.604,-133.75 191.25,-200.729c240.312,-252.9 499.933,-482.137 807.379,-651.475c482.275,-265.558 990.729,-370.8 1539.34,-264.55c532.413,103.021 935.696,382.9 1209.13,848.888c226.491,386.146 330.729,810.625 386.787,1250.59c69.079,541.442 55.275,1085.85 64.6,1629.34c29.079,1700.73 53.888,3401.47 85.209,5102.12c3.837,207.538 28.212,415.871 59.112,621.392c48.613,323.262 119.358,390.971 439.583,434.233c148.371,20.038 299.134,24.308 449.084,28.788c42.237,1.3 94.546,-1.584 120.521,-55.471c14.458,-61.492 -31.684,-104.321 -57.955,-152.134c-275.45,-501.008 -279.216,-1015.83 -78.333,-1540c104.238,-272.066 255.921,-518.3 432.067,-749.358c105.037,-137.796 214.341,-272.346 318.075,-403.854c13.591,-101.354 -59.463,-151.842 -107.5,-211.946c-467.954,-585.954 -717.154,-1261.15 -825.159,-1995.88c-105.4,-717.45 -90.712,-1430.7 73.421,-2137.95c157.413,-678.525 466.946,-1277.12 942.638,-1790.73c968.908,-1046.21 2452.26,-1091.28 3410.09,-573.35c40.659,21.996 83.992,40.659 120.954,67.934c94.463,69.808 184.83,64.012 291.667,18.871c234.083,-98.8 471.063,-193.071 712.379,-272.134c352.934,-115.658 715.784,-189.166 1089.41,-192.554c103.958,-0.867 209.062,-1.092 311.771,12.363c601.35,79.062 724.391,700.383 523.295,1049.98c-126.008,219.112 -330.295,319.737 -571.25,344.842c-264.616,27.625 -530.675,40.437 -796.075,60.766c-148.941,11.354 -300.208,14.167 -444.879,98.734c24.009,58.229 40.938,113.35 68.071,162.829c429.604,784.15 565.246,1632.9 548.458,2513.38c-10.783,570.471 -97.5,1128.33 -305.695,1663.7c-165.367,425.138 -398.23,808.317 -698.284,1151.34c-895.604,1023.66 -2199.43,1171.14 -3226.2,761.212c-338.766,-135.346 -338.766,-135.921 -547.17,171.371c-78.125,115.158 -150.175,233.579 -190.609,368.267c-68.004,226.629 -9.687,409.287 183.596,548.108c162.983,117.046 352.133,168.975 546.579,208.125c411.25,82.896 827.988,88.542 1244.36,90.483c497.62,2.396 995.154,-1.733 1491.48,44.342c450.729,41.821 894.166,118.925 1321.82,271.058c130.575,46.442 260.646,96.354 385.784,155.521c759.775,359.079 1148.3,975.329 1232.5,1797.67c102.066,996.596 -220.992,1846.65 -905.679,2563.23c-812.342,850.329 -1813.14,1345.92 -2969.18,1528.05c-795.416,125.367 -1590.42,121.596 -2378.75,-65.745c-373.696,-88.838 -728.296,-227.067 -1061.72,-417.763c-733.646,-419.771 -1106.18,-1062.57 -1155.73,-1897.5c-39.791,-670.137 138.455,-1282.03 515.625,-1836.65c64.946,-95.487 129.775,-191.2 193.488,-287.554c4.933,-7.379 0.662,-20.833 0.662,-32.758c-46.875,-73.509 -122.329,-46.738 -185.262,-45.871c-937.204,13.092 -1874.27,28.787 -2811.4,44.062c-80.959,1.305 -161.979,8.021 -242.709,5.28c-110.158,-3.838 -155.229,-40.159 -158.7,-140.921c-7.812,-231.196 -7.741,-462.675 -11.441,-694.079c-1.3,-83.559 42.329,-128.109 121.683,-138.092c68.717,-8.542 138.021,-12.588 207.104,-17.654c103.871,-7.746 208.4,-9.846 311.563,-22.779c339.771,-42.692 414.425,-119.009 460.066,-452.484c44.205,-322.483 35.871,-646.475 30.592,-970.346c-18.158,-1110.68 -35.867,-2221.35 -55.833,-3332.03c-14.913,-832.967 -32.779,-1665.8 -49.638,-2498.7c-5.416,-267.933 -44.704,-530.887 -138.816,-782.258c-159.638,-426.075 -465.121,-579.129 -909.205,-467.221c-182.22,45.921 -347.654,126.146 -502.1,230.033c-418.837,281.53 -745.016,655.521 -1049.48,1051.79c-70.466,91.65 -66.908,192.275 -65.329,296.737c6.738,451.234 11.146,902.484 18.525,1353.73c23.942,1469.32 49.479,2938.65 72.758,4408c4.43,278.208 22.796,554.321 71.48,828.833c37.325,210.367 151.179,319.238 365.883,351.858c196.25,29.809 391.996,26.771 588.108,36.025c78.925,3.767 130.713,38.421 137.517,122.971c2.829,34.584 7.742,69.234 7.308,103.817c-3.175,230.246 28.075,461.287 -13.75,690.746c-217.291,116.825 -452.254,52.658 -678.316,58.596c-959.98,25.104 -1920.28,39.2 -2880.48,56.425c-125.729,2.308 -244.791,-1.875 -370.521,-53.092c-110.745,-45.138 -250,-27.413 -376.512,-25.763c-752.029,10.067 -1504.06,23.73 -2256.08,35.588c-69.375,1.162 -138.975,0.521 -208.196,-3.471c-46.667,-2.675 -89.046,-18.142 -110.971,-66.321c-22.066,-48.471 -9.391,-130 -84.133,-130.729c-53.525,-0.433 -110.017,28.579 -160.729,53.542c-300.921,148.075 -599.688,300.712 -901.109,447.762c-165.437,80.659 -177.812,75.609 -304.758,-41.079c-8.542,-7.812 -16.929,-15.779 -25.033,-24.096c-315.4,-323.716 -276.113,-225.033 -288.334,-660.154c-3.541,-126.442 -0.504,-253.042 -0.504,-369.567c-92.971,-47.241 -119.654,13.296 -155.175,53.159c-115.45,129.496 -228.662,261.075 -345.987,388.887c-945.021,1029.58 -2513.75,868.125 -3350.77,82.188c-186.421,-175.067 -352.5,-366.613 -497.117,-577.688c-44.341,-64.687 -70.158,-147.796 -155.45,-177.379l9.617,9.688l0,-0.021Z" style="fill-rule:nonzero;"/><path d="M41414.6,114356c7.883,-16.425 21.2,-32.62 21.77,-49.27c0.434,-10.696 -17.866,-22.05 -27.779,-33.196c-4.046,9.254 -12.725,19.166 -11.354,27.483c3.108,18.733 11.146,36.683 17.363,54.983m-3034.79,-4468.67c-222.013,80.796 -387.742,184.825 -556.058,281.683c-523.005,301.146 -1010.14,649.375 -1433.16,1084.13c-659.512,677.725 -841.942,1491.46 -688.367,2399.3c22.709,134.479 75.434,267.654 135.559,391.129c101.266,208.037 268.8,340.066 502.029,387.083c149.375,30.088 295.137,36.821 446.683,13.317c297.309,-46.234 544.204,-184.759 760.992,-385.575c289.721,-268.367 528.071,-580.659 770.4,-890.467c113.783,-145.487 156.108,-297.104 151.333,-479.325c-17.95,-681.633 -19.025,-1363.72 -41.525,-2045.14c-7.954,-240.088 19.896,-484.309 -47.883,-756.146m4635.71,-4205.42c94.842,-28.437 129.859,-121.6 187.796,-187.067c208.038,-235.037 428.958,-454.429 699.354,-618.42c422.171,-256.075 873.492,-358.142 1363.58,-259.688c232.205,46.579 438.942,144.879 616.025,301.354c408.784,361.042 486.475,996.529 194.096,1456.3c-352.725,554.621 -1205.73,540.663 -1554.48,73.213c-48.317,-64.738 -87.812,-135.921 -133.821,-202.484c-67.5,-97.791 -120.658,-109.008 -235.171,-60.17c-153.787,65.675 -271.062,177.445 -374.637,302.654c-288.925,349.325 -512.813,741.391 -735.4,1134.18c-48.383,85.438 -49.688,175.417 -47.446,268.596c10.713,439.462 22.133,878.975 29.233,1318.51c15.038,937.204 25.521,1874.42 41.875,2811.56c9.48,543.679 26.042,1087.24 40.8,1630.85c4.409,162.116 28.421,321.108 63.367,480.537c51.288,234.238 190.471,360.971 420.575,398.229c286.163,46.3 575.45,79.567 863.925,68.213c478.729,-18.875 443.367,-2.675 444.6,454.562c0.275,127.259 4.546,254.5 2.742,381.671c-1.146,81.734 -51.492,127.742 -129.617,134.546c-92.033,7.954 -184.829,8.388 -277.275,10.054c-1180.05,20.538 -2360.1,42.171 -3540.16,59.234c-144.459,2.1 -266.996,40.295 -389.896,116.683c-310.625,193.075 -651.979,226.129 -1003.47,148.075c-429.983,-95.488 -712.1,-368.629 -876.667,-767.571c-61.266,-148.504 -103.508,-304.825 -152.987,-453.35c-101.646,-19.008 -119.583,63.092 -159.288,110.175c-97.012,114.946 -182.445,240.017 -283.941,350.554c-665.938,724.896 -1484.08,995.867 -2448.85,796.304c-448.055,-92.675 -807.43,-334.566 -1080,-704.083c-180.85,-245.225 -312.134,-515.692 -389.459,-808.437c-205.662,-778 -200.679,-1556.86 26.317,-2329.93c163.35,-556.145 462.604,-1031.68 884.55,-1429.34c397.133,-374.129 825.746,-706.734 1294.63,-987.55c556.063,-333.038 1127.17,-638.317 1701.39,-938.3c363.212,-189.809 310.9,-124.704 312.5,-526.684c1.596,-405.175 -12.517,-809.758 -58.092,-1213.04c-28.783,-255.138 -95.987,-498.558 -194.079,-735.104c-105.679,-254.846 -294.408,-404.792 -560.104,-471.354c-323.717,-81.163 -643.596,-61.13 -960.504,26.7c-156.842,43.475 -302.379,116.825 -425.071,227.5c-179.392,161.891 -252.238,357.641 -171.717,593.179c41.009,119.929 91.492,236.979 143.438,352.775c80.8,180.208 149.671,362.937 175.346,560.696c61.77,476.425 -226.13,873.7 -699.217,956.529c-442.204,77.483 -804.829,-41.6 -1036.96,-445.746c-55.695,-97.083 -122.829,-126.304 -224.095,-120.229c-612.067,36.825 -684.83,135.991 -706.321,664.5c-21.113,519.666 -6.513,1041.16 1.371,1561.7c17.45,1145.33 34.15,2290.8 66.841,3435.7c6.3,219.687 -64.741,365.52 -215.121,514.32c-1134.41,1122.47 -2495.09,1730.7 -4086.88,1827.05c-743.716,44.984 -1479.25,2.38 -2203.06,-187.225c-1304.75,-341.645 -2336.37,-1088.25 -3163.92,-2135.12c-634.846,-803.021 -1030.96,-1722.8 -1299.12,-2702.48c-270.259,-987.254 -396.842,-1994.7 -421.146,-3016.77c-27.638,-1162.12 59.166,-2312.22 349.166,-3441.77c267.221,-1040.87 690.034,-2011.08 1315.11,-2888.89c626.737,-880.208 1427.15,-1542.76 2443.94,-1925.85c791.596,-298.246 1614.36,-395.471 2455.94,-342.812c323.35,20.262 645.4,55.329 962.325,127.466c510.921,116.388 998.404,287.171 1441.48,577.1c161.666,105.763 321.896,224.55 530.312,279.946c69.359,-199.792 65.609,-396.404 51.721,-588.75c-20.696,-286.458 42.171,-286.317 291.371,-284.65c161.962,1.163 324.079,-5.646 485.971,-2.467c129.916,2.534 155.229,27.067 166.375,167.03c40.362,507.45 79.496,1015.05 114.946,1522.87c91.008,1304.25 179.825,2608.65 269.462,3912.97c2.379,34.654 4.775,69.375 4.479,104.029c-0.575,80.296 -39.637,123.838 -128.612,126.513c-219.704,6.666 -439.6,11.579 -659.359,9.77c-124.062,-1.004 -147.791,-28.575 -166.595,-170.137c-56.355,-424.183 -110.4,-848.663 -201.459,-1267.43c-123.279,-566.913 -286.683,-1120.02 -550.866,-1639.62c-126.371,-248.625 -274.013,-483 -456.667,-694.146c-351.058,-405.975 -789.704,-677.017 -1304.97,-815.975c-776.7,-209.496 -1556.86,-206.892 -2331.09,12.725c-616.184,174.775 -1133.84,513.163 -1566.04,985.175c-443.733,484.583 -757.971,1048.61 -1009.2,1649.74c-341.421,816.979 -534.129,1671.58 -637.934,2549.41c-102.291,865.296 -103.3,1732.71 -55.554,2599.6c51.717,938.3 201.163,1862.64 485.817,2761.08c295.275,932.067 764.825,1757.23 1492.12,2424.85c661.737,607.412 1436.27,953.629 2329.93,1050.49c725.191,78.559 1431.86,19.896 2120.3,-224.254c476.354,-168.908 888.454,-441.337 1254.7,-787.604c99.6,-94.183 137.796,-195.471 134.687,-336.529c-30.658,-1388.16 -51.925,-2776.47 -79.929,-4164.63c-3.471,-172.884 -21.771,-346.721 -48.75,-517.659c-33.35,-211.146 -156.754,-354.375 -363.437,-424.321c-264.6,-89.412 -536.163,-138.387 -814.013,-163.925c-692.708,-63.662 -1386.85,-61.337 -2081.23,-53.887c-314.896,3.4 -319.742,8.175 -317.346,-295.575c1.65,-214.913 -61.425,-435.258 34.429,-645.625c202.396,-65.379 411.388,-33.488 617.046,-37.1c1712.24,-30.45 3424.55,-55.346 5136.88,-84.133c348.525,-5.867 301.946,-13.246 342.45,-300.642c109.079,-773.438 542.671,-1309.83 1207.1,-1680.26c327.188,-182.434 682.358,-286.025 1051.88,-336.009c461.804,-62.429 924.183,-65.696 1379.69,46.009c691.837,169.633 1203.35,572.254 1524.53,1210.71c194.654,386.946 296.808,800.646 349.6,1228.46c54.046,437.413 55.487,877.084 62.154,1316.84c28.35,1874.27 57.362,3748.54 90.192,5622.83c3.037,172.521 33.941,344.758 54.983,516.704c1.875,15.417 26.612,38.263 41.892,39.2c19.166,1.163 48.175,-11.283 58.004,-27.116c110.833,-178.388 166.3,-380.35 239.216,-574.725c123.63,-329.584 51.738,-310.121 429.48,-318.438c115.745,-2.533 231.545,0 347.154,-4.271c259.616,-9.616 266.491,-10.85 262.95,-284.791c-7.238,-555.33 -25.171,-1110.45 -34.375,-1665.73c-15.538,-948.712 -25.171,-1897.57 -42.309,-2846.28c-13.316,-740.296 -30.175,-1480.67 -53.383,-2220.76c-12.883,-410.313 -42.604,-425.35 -416.896,-249.567c-389.825,183.158 -335.779,203.925 -519.233,-184.463c-69.079,-146.425 -135.054,-294.341 -201.963,-441.77c-22.933,-50.488 -0.366,-90.209 38.334,-118.784c36.962,-27.187 78.558,-48.541 119.566,-69.583c648.663,-331.892 1297.24,-664.063 1946.84,-994.221c143.525,-72.917 152.121,-68.35 271.633,41.529c331.738,304.825 330.434,304.896 347.429,777.05c2.675,74.809 -32.916,161.025 51.288,228.525" style="fill-rule:nonzero;"/><path d="M95847.9,108752c-0.067,-8.384 -0.067,-16.771 -0.138,-25.242c380.713,0 761.425,0.296 1142.07,-0.208c80.729,-0.071 161.683,-0.296 242.116,-5.642c61.771,-4.2 109.6,-32.708 116.184,-102.067c3.312,-34.287 5.275,-69.237 2.741,-103.454c-48.679,-659.358 -161.233,-1304.97 -429.183,-1914.7c-50.783,-115.383 -116.321,-225.85 -186.633,-330.887c-399.079,-595.988 -1147.2,-519.53 -1518.59,-93.817c-153.421,175.85 -271.042,372.325 -365.958,584.062c-151.613,338.4 -259.754,691.334 -332.671,1053.52c-54.621,271.063 -89.413,546.167 -128.838,820.038c-12.587,87.083 27.205,132.516 109.584,139.391c57.379,4.775 115.241,6.146 172.829,4.913c392.204,-8.021 784.358,-17.133 1176.49,-25.904m2180.28,-3054.83c69.221,-174.984 35.866,-323.213 41.371,-466.717c5.937,-154.375 23.212,-179.621 181.72,-184.829c231.771,-7.671 461.075,-25.746 688.871,-74.288c512.588,-109.237 845.625,-403.8 977.204,-917.258c89.409,-348.729 147.067,-701.596 154.742,-1062.2c4.113,-196.683 9.754,-393.367 19.167,-589.842c3.766,-77.987 47.95,-130.071 130.85,-131.721c242.916,-4.929 485.833,-10.416 728.733,-9.045c105.988,0.575 135.5,36.6 143.958,151.841c5.938,80.642 4.913,161.892 6.3,242.829c11.355,671.009 22.571,1342.08 33.7,2013.09c0.588,34.721 -0.366,69.513 1.667,104.167c10.417,179.046 31.683,202.987 200.083,208.262c104.03,3.267 208.267,0.071 312.434,-1.162c497.533,-5.642 995.154,-13.159 1492.76,-16.7c161.025,-1.163 181.288,18.8 185.696,176.146c7.812,277.55 13.021,555.329 14.029,833.037c0.729,182.429 -30.521,215.071 -228.146,220.279c-381.733,10.05 -763.679,12.5 -1145.47,17.792c-173.613,2.379 -347.221,2.883 -520.763,6.146c-276.112,5.054 -278.004,5.712 -276.271,299.325c2.329,393.454 5.8,786.979 12.588,1180.35c24.6,1411.46 45.141,2823.06 79.358,4234.38c12.658,519.741 20.263,1042.1 119.583,1555.62c35.071,181.216 76.892,362.204 132.45,537.987c87.309,276.179 258.609,453.333 571.542,472.5c321.25,19.6 528.854,-128.317 665.713,-401.179c131.441,-261.858 189.6,-544.846 230.191,-832.171c95.763,-677.746 112.621,-1359.9 118.196,-2042.9c3.696,-460.225 -69.15,-461.737 441.196,-463.767c23.142,-0.07 46.287,0.434 69.446,-0.366c452.691,-16.338 444.287,-52.725 439.671,415.225c-7.1,717.312 -10.938,1434.53 -93.246,2149.01c-41.167,356.925 -99.621,709.634 -186.063,1058.16c-16.562,66.704 -28.712,135.208 -34.583,203.558c-3.038,35.958 24.896,66.337 63.892,63.525c68.854,-5 137.654,-14.913 205.729,-27.133c154.65,-27.85 245.866,-124.846 274.15,-275.68c40.521,-216.508 58.383,-435.833 55.346,-656.179c-7.171,-509.116 -16.721,-1018.16 -24.967,-1527.19c-33.488,-2071.11 -66.404,-4142.15 -100.4,-6213.25c-22.429,-1365.23 -44.842,-2730.47 -71.404,-4095.62c-4.479,-231.042 -27.05,-462.034 -46.875,-692.571c-11.721,-136.563 -48.246,-157.396 -182.292,-99.533c-148.437,64.166 -291.579,140.4 -438.283,208.77c-82.254,38.4 -132.671,22.134 -174.409,-49.62c-11.579,-19.963 -23.366,-40.296 -31.545,-61.717c-90.417,-236.617 -234.442,-451.392 -286.963,-703.404c170.871,-202.117 427.017,-260.138 647.571,-375.867c471.058,-247.187 950.817,-477.658 1425.12,-718.821c113.283,-57.654 205.016,-72.483 307.291,29.792c381.009,380.575 322.346,225.054 331.684,739.304c32.625,1804.83 64.516,3609.72 98.004,5414.5c1.392,77.688 -22.567,164.129 53.179,227.775c106.042,-35.362 154.217,-134.896 224.825,-208.4c257.95,-268.508 535.888,-510.992 865.888,-688.579c534.583,-287.621 1097.52,-348.158 1680.85,-193.733c433.733,114.879 761.129,379.708 997.741,758.541c192.934,308.821 304.117,649.167 368.575,1003.98c49.621,273 82.242,548.609 86.65,827.621c25.834,1642.93 53.684,3285.88 83.925,4928.75c9.321,508.975 28.279,1017.73 42.013,1526.61c4.775,174.412 30.816,345.054 75.312,513.891c35.888,136.146 115.521,216.942 253.038,255.434c181.425,50.779 365.087,55.121 550.558,54.754c309.546,-0.5 320.833,-15.329 320.242,330.729c-0.071,46.304 -0.209,92.588 0.433,138.892c7.604,574.287 79.933,497.829 -519.462,509.754c-890.763,17.796 -1781.53,36.112 -2672.31,53.821c-115.658,2.325 -231.404,3.629 -347.133,3.991c-361.475,1.146 -367.121,48.613 -370.313,-346.941c-1.008,-127.242 -5.641,-254.55 -5.92,-381.788c-0.434,-230.558 4.704,-231.633 224.529,-246.025c161.25,-10.575 322.121,-29.079 482.571,-48.612c56.787,-6.946 113.212,-23.509 167.395,-42.534c93.159,-32.779 152.917,-98.02 179.896,-195.383c59.325,-213.975 76.825,-432.587 74.584,-653.212c-6.075,-601.717 -11.425,-1203.49 -21.338,-1805.12c-18.383,-1110.67 -37.483,-2221.35 -60.987,-3331.96c-10.263,-485.675 -30.159,-971.283 -49.688,-1456.75c-8.542,-209.842 -57.225,-412.758 -143.454,-604.442c-146.338,-325.679 -362.188,-451.891 -717.45,-424.116c-224.758,17.5 -424.983,104.079 -614.217,221.425c-308.596,191.337 -561.704,444.512 -799.775,714.341c-374.271,424.25 -377.812,424.825 -368.491,985.588c30.312,1828.06 63.3,3656.04 97.379,5483.96c3.471,184.984 16.996,370.017 34.358,554.184c9.688,102.933 37.396,204.15 55.85,306.287c28.492,158.054 129.913,239.442 281.25,265.833c90.85,15.917 182.292,31.613 274.079,37.984c103.734,7.241 208.196,2.604 312.292,5.575c182.204,5.208 194.15,14.962 198.854,200.883c5.208,208.179 7.883,416.513 4.621,624.704c-1.65,111.321 -33.854,140.992 -148.354,144.534c-265.988,8.245 -532.204,11.283 -798.334,16.425c-856.041,16.7 -1712.08,36.595 -2568.28,46.875c-130.783,1.579 -275.746,54.529 -394.237,-67.346c-51.579,-53.038 -104.254,8.887 -147.934,40.712c-462.395,336.596 -986.475,385.85 -1525.54,296.009c-502.742,-83.684 -894.896,-360.455 -1181.72,-783.334c-190.746,-281.183 -314.079,-592.016 -398.937,-918.562c-140.4,-540.138 -204.934,-1090.85 -215.35,-1648.07c-25.467,-1365.16 -48.975,-2730.4 -75.088,-4095.49c-12.812,-671.004 -29.512,-1341.88 -44.771,-2012.8c-0.8,-34.65 -3.979,-69.234 -7.45,-103.73c-6.946,-69.1 -52.446,-105.333 -115.241,-104.325c-335.142,5.367 -670.28,13.317 -1005.28,25.242c-55.416,1.963 -71.683,52.604 -55.987,101.563c21.125,65.833 48.679,129.708 75.083,193.804c257.884,625.296 398.579,1278.58 474.534,1948.56c43.125,380.071 70.466,760.504 67.341,1142.8c-1.941,238.212 -7.375,244.792 -255.641,256.804c-196.459,9.479 -393.23,13.246 -589.842,16.058c-1029.79,14.83 -2059.67,28.075 -3089.48,43.042c-196.684,2.829 -393.371,8.246 -589.846,17.358c-127.879,5.938 -164.2,44.43 -160.796,170.642c12.292,451.25 33.558,902.067 103.8,1348.89c93.75,596.283 236.617,1179.32 483.213,1732.86c132.445,297.242 286.891,581.809 520.329,814.446c221.929,221.217 480.971,354.896 804.912,343.038c242.829,-8.905 448.788,-103.159 632.379,-252.759c264.463,-215.487 460.209,-486.041 615.088,-787.762c228.942,-445.954 369.862,-922.588 478.229,-1408.85c65.383,-293.246 110.242,-590.988 167.883,-886.059c32.775,-167.1 59.896,-188.958 229.25,-193.141c185.105,-4.705 370.296,-7.538 555.4,-5.142c136.146,1.667 167.259,33.996 166.892,160.087c-0.292,80.938 -4.337,162.1 -11.942,242.692c-62.708,669.046 -160,1332.33 -349.237,1978.87c-146.925,501.892 -343.679,982.362 -632.379,1421.44c-140.346,213.404 -300.434,409.95 -480.329,591.945c-977.067,988.505 -2450.31,855.467 -3304.83,93.109c-324.221,-289.221 -574.08,-633.613 -776.475,-1014.48c-306.513,-576.667 -505.871,-1191.41 -630.071,-1830.58c-244.721,-1259.7 -285.659,-2528.37 -126.875,-3800.35c105.312,-843.475 335.779,-1653.37 733.212,-2410.75c200.521,-382.313 440.4,-735.383 761.421,-1026.11c677.308,-613.212 1466.95,-804.983 2352.07,-599.166c467.241,108.716 837.829,380.208 1154.08,732.116c74.879,83.267 148.437,167.692 244.446,276.338" style="fill-rule:nonzero;"/><path d="M90649.1,109113c-11.288,-214.771 -13.75,-388.383 -30.609,-560.692c-51.721,-530.158 -146.7,-1051.5 -337.883,-1551.72c-103.8,-271.63 -235.971,-526.475 -427.742,-747.671c-147.066,-169.567 -322.325,-298.613 -538.125,-363.875c-598.004,-180.763 -1242.19,94.775 -1525.24,652.416c-132.225,260.5 -191.98,541.525 -234.15,829.217c-77.917,531.617 -40.088,1061.77 21.041,1589.55c51.804,447.55 146.421,888.246 320.538,1308.02c106.979,258.021 247.1,493.35 427.587,708.262c527.413,627.884 1560.4,443.142 1924.84,-141.283c135.992,-218.092 233.075,-449.654 296.875,-697.692c90.054,-350.416 94.325,-708.125 102.867,-1024.53m-1486.91,9520.33c394.308,-13.02 832.9,-41.737 1264.19,-130.854c513.454,-106.196 1001.88,-277.566 1427.73,-596.716c520.4,-390.055 720.05,-913.855 648.141,-1550.71c-35.158,-310.904 -193.212,-542.9 -472.571,-680.625c-133.541,-65.904 -277.933,-114.808 -422.308,-153.004c-631.804,-167.1 -1280.1,-185.033 -1927.45,-181.196c-323.854,1.875 -646.929,-1.233 -970.279,-13.821c-254.183,-9.841 -509.912,-10.991 -758.525,-70.45c-203.646,-48.7 -356.337,9.754 -483.8,172.95c-149.308,191.113 -316.2,368.717 -461.167,562.867c-159.495,213.471 -290.362,445.675 -366.525,703.992c-209.133,709.27 52.013,1174.48 512.013,1482.71c243.404,163.125 511.858,266.058 795.279,331.892c384.688,89.254 775.817,120.366 1215.28,122.97m-4798.46,-7424.62c-0.938,-801.283 -111.546,-1802.38 -284.567,-2544.2c-126.387,-541.458 -295,-1069.08 -561.858,-1559.97c-183.088,-337.029 -399.667,-649.963 -699.354,-896.267c-639.396,-525.4 -1500.94,-455.729 -2050.21,164.271c-186.062,210.071 -319.083,452.325 -428.316,708.767c-191.98,450.745 -296.65,924.845 -339.55,1409.36c-115.088,1301.74 9.408,2584.43 352.725,3844.48c127.812,469.046 304.829,921.075 556.77,1339.78c161.546,268.592 345.921,520.4 590.713,720.258c339.567,277.209 721.579,390.192 1162.99,320.542c453.992,-71.617 787.188,-311.858 1040.36,-680.35c218.387,-317.983 357.275,-672.15 454.496,-1042.88c156.321,-596.217 216.216,-1203.85 205.8,-1783.79m1522.36,-2737.71c25.817,-242.396 46.004,-483.8 77.967,-723.592c111.408,-835.937 414.933,-1591.08 1000.87,-2207.26c849.825,-893.662 1881.08,-1119.7 3048.54,-768.733c153.438,46.162 302.88,118.558 440.105,201.891c141.562,86.025 262.012,101.288 417.1,26.13c312.566,-151.405 642.795,-260.78 982.133,-338.471c293.837,-67.346 589.912,-120.017 893.3,-105.763c80.592,3.767 162.829,6.875 240.675,25.467c341.512,81.442 536.233,323.629 544.983,668.679c8.838,348.613 -170.85,590.642 -513.887,689.829c-168.246,48.679 -341.146,57.654 -515.329,61.338c-287.1,5.937 -574.584,14.321 -846.721,105.9c-21.475,100.625 38.7,164.204 75.383,233.941c426.579,812.43 555.85,1685.4 518.525,2589.12c-24.533,593.608 -133.108,1171.16 -379.204,1717.88c-177.517,394.325 -409.721,751.025 -710.433,1061.93c-839.184,867.759 -2042.9,1119.65 -3159.22,662.692c-310.904,-127.242 -313.004,-128.7 -495.729,135.85c-65.538,94.754 -127.1,194.217 -175.35,298.542c-148.646,321.525 -65.467,558.871 244.429,724.233c208.192,111.183 436.421,154.517 666.025,180.625c460.137,52.45 921.804,76.688 1385.92,64.463c637.45,-16.63 1272.43,12.725 1898.51,150.175c340.208,74.654 669.342,179.983 982.779,333.904c651.7,320.037 1029.38,849.55 1154.24,1553.25c157.62,888.021 -35.521,1704.35 -578.563,2426.28c-595.346,791.371 -1384.55,1321.48 -2311.93,1648.07c-729.029,256.808 -1484.45,340.712 -2255.07,312.067c-464.912,-17.292 -920.85,-80.067 -1365.59,-220.921c-243.629,-77.188 -477.209,-176.421 -702.259,-296.371c-783.783,-417.813 -1182.73,-1081.23 -1230.54,-1958.68c-34.358,-631.442 127.604,-1214.34 471.492,-1746.1c246.595,-381.3 549.27,-715 871.754,-1032.34c106.041,-104.375 110.383,-122.396 -3.471,-217.95c-582.692,-488.941 -664.863,-1330.44 -385.854,-1973.09c130.141,-299.775 306.929,-569.584 507.883,-825.017c78.333,-99.533 158.717,-197.346 248.838,-309.238c-116.163,-161.683 -238.125,-313.158 -339.409,-477.362c-108.875,-176.717 -206.441,-361.7 -293.979,-549.979c-80.954,-174.134 -142.062,-357.363 -218.975,-554.621c-83.975,84.912 -49.758,167.537 -49.392,239.725c3.613,696.475 -51.875,1386.85 -200.016,2068.5c-143.525,660.454 -375.8,1286.89 -719.913,1869.93c-153.283,259.771 -331.025,501.3 -532.121,727.063c-1236.11,1388.02 -3516.7,1395.99 -4773.29,-32.983c-528.996,-601.563 -885.767,-1296.44 -1125.14,-2054.6c-227.725,-721.355 -341.354,-1462.24 -362.983,-2218.68c-24.809,-870.658 9.912,-1734.96 223.887,-2584.86c170.85,-678.667 429.759,-1319.08 817.917,-1903.58c359.237,-540.796 813.229,-977.775 1410.02,-1250.14c1110.95,-506.804 2704.7,-423.316 3771.34,795.363c551.425,629.983 902.988,1366.83 1143.53,2161.38c50.258,165.883 89.113,335.225 134.55,502.604c11.125,41.229 4.688,93.75 71.683,113.504" style="fill-rule:nonzero;"/><path d="M102222,87354.6l-0,-28.421c334.545,-0.017 669.112,0.712 1003.68,-0.367c126.962,-0.433 253.908,-2.325 380.641,-8.608c103.734,-5.208 134.117,-43.267 136.65,-155.454c0.575,-23 0.505,-46.229 -1.3,-69.167c-48.612,-623.767 -150.975,-1235.81 -391.633,-1818.28c-79.792,-193.142 -174.775,-376.875 -316.492,-532.692c-110.02,-121.096 -235.454,-219.046 -395.541,-268.821c-380.209,-118.191 -705.588,-17.133 -986.109,248.7c-187.137,177.38 -309.308,400.33 -412.9,633.905c-212.1,478.162 -333.125,981.408 -411.25,1496.3c-18.941,125.433 -33.766,251.529 -47.95,377.604c-7.604,67.567 24.946,112.571 93.175,118.279c80.138,6.808 161.096,6.65 241.667,6.721c369.15,0.658 738.213,0.296 1107.36,0.296m7185.83,3833.77c59.025,-30.52 75.883,-85.433 90.779,-142.066c272.708,-1040.15 544.775,-2080.59 819.517,-3120.22c33.783,-128.109 24.962,-247.554 -12.796,-374.063c-201.913,-675.85 -396.129,-1353.96 -597.083,-2030.09c-59.392,-199.654 -139.03,-392.084 -239.15,-575.817c-82.534,-151.546 -205,-249.358 -371.825,-288.125c-78.334,-18.158 -159.13,-35.796 -238.855,-35.796c-335.433,0 -671.145,1.142 -1006.3,13.729c-125.783,4.775 -251.441,37.121 -375.137,65.609c-77.258,17.796 -117.329,81.6 -101.633,157.641c37.395,180.9 72.987,363.559 129.408,539.063c595.121,1849.23 1194.08,3697.25 1792.33,5545.5c27.775,85.8 43.679,177.45 110.746,244.654m-4805.83,-1684.76c257.954,-43.175 523.875,-23.279 788.77,-21.771c71.98,0.433 100.259,54.687 95.05,117.987c-23.716,288.125 -42.379,577.05 -79.062,863.646c-86.738,678.821 -230.608,1344.69 -486.979,1982.34c-195.884,487.275 -454.359,936.129 -813.575,1322.78c-305.121,328.421 -660.954,586.371 -1096.79,702.467c-770.4,205.296 -1491.25,88.108 -2142.07,-386.129c-371.755,-270.834 -645.625,-627.534 -870.955,-1023.51c-346.945,-609.6 -562.433,-1267.59 -695.75,-1952.55c-242.916,-1247.69 -285.52,-2504.85 -130.57,-3765.7c99.391,-808.383 312.133,-1587.67 675.554,-2321.34c185.991,-375.504 405.246,-729.6 701.754,-1027.78c713.179,-717.017 1564.17,-953.771 2543.47,-697.05c426.808,111.842 769.1,366.387 1063.96,688.229c75.958,82.9 150.313,167.238 222.363,247.533c89.55,-39.2 60.695,-105.17 66.841,-156.962c5.346,-45.658 0.504,-92.517 1.734,-138.75c5.937,-232.413 9.916,-238.854 226.425,-246.388c312.204,-10.762 624.412,-21.841 936.7,-26.041c902.554,-12.067 1805.62,-6.075 2707.6,-34.496c1179.92,-37.188 2359.97,-44.063 3540,-62.363c46.304,-0.712 92.537,-4.408 138.821,-4.112c223.887,1.233 230.4,5.85 236.475,236.179c5.504,208.038 8.475,416.304 6.808,624.342c-0.592,79.791 -50.071,125.296 -132.604,128.541c-184.671,7.38 -369.792,-0.208 -553.021,39.584c-259.413,56.337 -284.863,79.271 -241.617,350.033c27.275,170.504 73.284,338.767 120.746,505.279c161.6,567.204 328.196,1132.97 491.754,1699.58c330.367,1144.32 659.792,2288.92 990.225,3433.23c28.354,98.383 61.425,195.466 91.513,290.866c88.108,-14.029 96.65,-72.829 110.746,-128.904c276.337,-1099.03 552.308,-2198.12 829.929,-3296.79c178.454,-706.317 361.704,-1411.46 537.916,-2118.28c41.809,-167.741 73.925,-339.27 92.796,-511.058c18.959,-172.242 -29.287,-230.558 -206.004,-254.342c-160.087,-21.562 -322.85,-23.958 -484.533,-31.545c-80.8,-3.838 -161.892,1.008 -242.829,-0.571c-68.284,-1.371 -109.809,-43.267 -112.275,-106.563c-9.913,-254.204 -16.859,-508.541 -18.942,-762.866c-0.658,-78.646 49.046,-126.092 130.783,-130.73c57.654,-3.245 115.521,-4.775 173.384,-5.641c914.062,-14.254 1828.12,-29.654 2742.19,-41.596c308.888,-4.046 310.85,-0.142 320.975,295.937c6.371,185.05 7.517,370.225 7.879,555.417c0.225,77.758 -34.862,132.446 -120.658,137.15c-92.379,5.142 -184.967,7.379 -277.346,12.658c-317.412,18.159 -554.617,153.142 -662.621,466.65c-71.387,207.534 -149.304,414.063 -202.533,626.459c-723.021,2882.65 -1441.04,5766.5 -2163.79,8649.21c-95.395,380.504 -36.229,357.642 -451.82,360.904c-173.455,1.371 -346.93,5.071 -520.4,10.488c-97.221,3.037 -149.009,-49.846 -175.417,-134.325c-34.496,-110.4 -65.538,-221.788 -97.933,-332.759c-366.113,-1254.41 -732.571,-2508.68 -1097.74,-3763.32c-25.608,-88.179 -41.079,-179.463 -121.233,-283.854c-38.7,113.87 -74.95,202.983 -99.392,295.362c-346.425,1307.8 -691.183,2616.1 -1036.46,3924.18c-17.659,67.067 -38.63,133.388 -54.188,200.888c-21.267,92.654 -77.687,133.821 -171.875,135.779c-254.479,5.208 -508.887,12 -763.229,21.338c-81.388,3.037 -133.246,-33.921 -160.017,-104.53c-36.821,-97.291 -67.708,-196.754 -100.033,-295.641c-927.013,-2835.87 -1853.09,-5672 -2782.41,-8507.08c-68.212,-208.195 -158.125,-409.445 -240.52,-612.937c-129.063,-318.575 -376.892,-452.896 -710.071,-451.958c-34.654,0.137 -69.738,-1.946 -103.8,2.67c-21.792,2.971 -42.034,16.563 -62.938,25.4c-22.358,88.18 31.459,155.592 64.375,227.5c321.688,701.53 490.888,1441.7 575.159,2205.95c42.029,380.35 64.166,760.766 63.662,1142.87c-0.296,203.334 -12.083,216.284 -213.696,220.4c-1006.43,20.625 -2012.94,40.292 -3019.45,58.609c-416.529,7.587 -833.195,7.954 -1249.65,17.345c-172.654,3.838 -198.262,31.909 -196.821,207.83c8.317,991.112 145.4,1960 512.95,2887.15c119.792,302.083 263.596,592.1 470.992,845.85c164.063,200.816 357.063,358.296 611.404,436.629c286.596,88.267 549.479,33.787 798.75,-113.279c202.467,-119.429 358.142,-291.163 500.296,-475.471c207.1,-268.663 348.871,-571.7 465.85,-887.742c197.554,-533.696 319.304,-1086.58 413.054,-1646.34c19.013,-113.646 23.146,-230.675 93.959,-340.209" style="fill-rule:nonzero;"/><path d="M96744.1,90511.2c76.891,-69.237 44.27,-141.354 43.333,-204.791c-20.4,-1307.08 -43.267,-2614.15 -65.4,-3921.23c-27.117,-1596.27 -52.867,-3192.55 -81.667,-4788.75c-8.525,-474.183 -25.887,-948.212 -38.262,-1422.31c-4.917,-186.129 -29.879,-368.558 -86.875,-546.442c-53.75,-167.533 -158.925,-275.175 -334.638,-317.412c-237.483,-57.083 -478.733,-78.925 -721.216,-94.117c-69.15,-4.337 -139.255,4.046 -208.109,-2.533c-169.062,-16.129 -379.841,77.55 -497.55,-52.658c-112.621,-124.721 -42.971,-332.83 -45.416,-503.192c-6.371,-445.088 -45,-415.8 400.816,-423.179c1388.09,-22.846 2776.11,-46.442 4164.13,-69.792c46.3,-0.796 92.604,-3.558 138.816,-3.262c226.721,1.37 231.409,3.695 235.609,234.808c3.837,208.037 3.108,416.233 -0.071,624.358c-0.938,64.738 -42.829,106.475 -108.729,110.675c-92.225,5.854 -184.813,6.425 -277.259,8.25c-313.021,5.988 -624.791,33.054 -930.85,95.625c-358.733,73.35 -446.25,170.709 -491.321,528.071c-24.529,194.513 -37.829,392.204 -35.295,588.246c14.166,1087.38 33.629,2174.69 53.525,3261.93c32.187,1758.11 67.483,3516.15 98.82,5274.25c16.267,913.854 25.242,1827.85 40.434,2741.69c14.254,855.97 33.783,1711.8 48.021,2567.71c6.233,370.587 21.195,339.842 -330,351.354c-150.246,4.913 -301.721,-6.667 -450.955,7.446c-162.187,15.4 -249.933,-56.492 -329.566,-190.104c-539.063,-904.079 -1085.22,-1803.98 -1628.77,-2705.36c-1863.58,-3090.65 -3727.07,-6181.38 -5590.58,-9272.08c-17.934,-29.742 -35.071,-60.054 -54.967,-88.404c-45.208,-64.375 -73.071,-193.35 -145.258,-173.821c-109.584,29.583 -50.85,154.792 -49.55,238.717c17.933,1203.04 37.033,2406.03 59.1,3609.01c32.412,1769.6 67.566,3539.27 101.196,5308.88c6.233,323.871 12.22,647.796 15.416,971.65c1.804,186.854 35.296,368.192 82.742,547.604c52.521,198.417 181.079,315.538 382.379,356.109c227.363,45.8 455.817,78.42 688.525,76.979c196.617,-1.234 393.3,1.008 589.913,2.516c78.629,0.592 137.883,33.213 140.991,117.917c9.046,242.625 15.467,485.383 17.429,728.092c0.73,82.971 -55.987,121.737 -135.779,124.046c-208.108,5.937 -416.233,11.945 -624.429,15.554c-1295.49,22.571 -2590.99,44.429 -3886.49,66.408c-46.233,0.796 -92.675,2.604 -138.75,0.067c-112.779,-6.213 -152.987,-36.892 -156.391,-140.625c-7.671,-231.179 -9.25,-462.584 -10.346,-693.921c-0.433,-78.925 39.287,-131.946 122.692,-136.946c92.291,-5.504 184.825,-7.083 277.341,-8.383c289.567,-4.063 578.404,-17.588 863.059,-75.679c78.991,-16.196 156.041,-41.738 234.67,-59.967c168.905,-39.2 250.292,-162.896 287.396,-315.467c49.184,-202.533 75.521,-409.287 70.971,-618.991c-10.346,-474.1 -20.762,-948.284 -28.367,-1422.45c-14.758,-925.417 -24.95,-1850.99 -41.666,-2776.41c-31.825,-1758.11 -68.421,-3516.06 -99.967,-5274.17c-14.117,-786.6 -20.625,-1573.35 -31.112,-2360.02c-1.371,-104.096 -8.525,-208.192 -7.742,-312.292c0.729,-86.212 -31.683,-156.387 -84.704,-220.987c-205.575,-250.071 -454.638,-425.279 -785.225,-464.775c-264.254,-31.596 -527.85,-60.971 -795.504,-49.688c-210.938,8.821 -231.267,-16.058 -240.663,-238.071c-7.812,-184.812 -9.842,-370.141 -8.975,-555.191c0.663,-145.329 33.646,-178.525 187.571,-183.525c208.125,-6.721 416.458,-5.346 624.721,-8.525c624.637,-9.55 1249.27,-19.825 1873.98,-29.446c69.375,-1.092 138.821,1.079 208.196,0.208c88.679,-1.146 155.591,35.521 201.529,111.113c48.037,79.15 96.283,158.141 144.166,237.275c2316.41,3830.66 4632.54,7661.54 6950.17,11491.4c68.492,113.283 118.629,243.854 230.75,327.05" style="fill-rule:nonzero;"/><path d="M50851.6,110752l-23.58,-0c0,-451.025 -1.229,-902.121 0.367,-1353.14c1.371,-405.312 -14.617,-809.254 -67.571,-1211.67c-60.691,-460.87 -161.821,-910.729 -357.5,-1334.78c-122.029,-264.254 -274.008,-508.975 -491.162,-708.125c-213.904,-196.183 -462.967,-294.912 -755.729,-295.937c-382.013,-1.304 -695.521,145.625 -958.909,413.783c-274.304,279.15 -441.7,619.704 -559.891,986.617c-203.267,631.004 -314.534,1280.67 -348.3,1940.9c-42.534,832.467 -41.755,1665.37 65.45,2494.5c74.375,574.95 189.829,1140.19 406.683,1680.85c99.479,248.037 219.55,484.146 386.65,694.583c428.454,539.721 1069.01,585.867 1585.66,280.884c281.388,-166.163 523.575,-381.355 703.834,-658.196c94.621,-145.396 177.154,-298.975 277.208,-440.329c139.825,-197.55 188.663,-408.921 178.958,-651.613c-24.308,-612.346 -29.358,-1225.49 -42.17,-1838.33m59.166,4037.76c-137.587,49.704 -166.808,132.033 -221.266,189.029c-119.88,125.296 -233.3,257.013 -357,378.404c-871.021,854.963 -2145.11,772.567 -2973.82,215.417c-311.475,-209.412 -562.5,-479.462 -771.771,-789.062c-374.271,-553.596 -608.871,-1167.03 -759.687,-1813.37c-233.005,-998.263 -293.838,-2011.79 -245.8,-3033.12c34.862,-740.884 122.675,-1474.62 315.016,-2193.21c134.984,-504.2 311.634,-992.412 554.254,-1455.38c189.463,-361.321 419.638,-694.375 725.992,-965.921c707.967,-627.533 1529.01,-835.866 2450.38,-626.304c331.809,75.521 621.529,246.6 887.725,456.667c36.321,28.646 72.05,58.162 109.671,85.071c27.121,19.391 54.758,41.737 92.725,24.237c38.788,-17.867 38.196,-54.325 37.917,-86.875c-2.1,-300.712 -3.696,-601.496 -9.546,-902.137c-18.3,-936.63 -37.188,-1873.26 -58.958,-2809.76c-3.18,-138.3 -18.23,-276.754 -36.825,-413.979c-12.013,-88.975 -67.205,-121.021 -148.367,-87.671c-160.225,65.817 -318.579,136.717 -475.104,211.005c-78.854,37.329 -131.809,21.841 -167.763,-55.188c-116.387,-249.5 -232.204,-499.358 -352.429,-758.179c79.721,-47.171 136.65,-85.658 197.483,-116.25c630.209,-316.633 1260.71,-632.813 1891.92,-947.342c204.725,-102 205.871,-99.671 354.534,47.967c278.071,276.112 275.379,276.112 282.621,661.387c32.987,1757.59 69.304,3515.11 100.92,5272.79c16.267,902.05 21.838,1804.33 38.192,2706.39c34.133,1884.83 71.529,3769.67 109.583,5654.5c3.546,173.175 17.434,346.42 34.084,518.87c7.95,82.396 69.791,115.313 152.254,81.234c160.158,-66.042 317.708,-138.454 474.912,-211.371c79.271,-36.808 134.188,-13.229 168.909,60.329c103.662,219.479 204.704,440.258 307.362,660.242c38.263,82.033 0.729,129.408 -70.175,165.208c-330.137,166.825 -659.654,335.138 -990.154,501.371c-351.129,176.579 -704.654,348.525 -1053.82,528.942c-100.121,51.65 -172.883,37.762 -244.062,-42.396c-38.35,-43.109 -79.221,-84.913 -123.7,-121.529c-154.079,-126.942 -219.113,-284.563 -207.029,-486.892c9.55,-159.079 -11.009,-319.963 -19.184,-503.125" style="fill-rule:nonzero;"/><path d="M74371.2,107404c27.85,1746.25 54.621,3492.41 84.342,5238.58c5.937,346.859 21.787,693.509 36.025,1040.14c6.162,150.262 27.275,297.971 69.529,444.237c56.841,196.825 170.712,319.738 375.504,362.275c158.925,33.055 317.275,65.017 479.95,67.621c254.496,4.063 508.975,4.704 763.317,11.009c174.408,4.337 191.995,22.566 197.412,206.37c5.779,196.475 8.108,393.23 5.779,589.842c-1.875,161.825 -7.083,168.908 -182.429,178.683c-253.908,14.096 -508.246,23.367 -762.587,27.275c-1029.29,15.9 -2058.66,27.688 -3087.9,43.75c-393.142,6.075 -786.092,21.355 -1179.17,28.646c-217.95,4.063 -225.192,-2.883 -236.908,-234.583c-9.984,-196.321 -13.68,-393.092 -13.888,-589.638c-0.071,-108.35 36.458,-145.104 143.8,-151.908c253.908,-15.975 508.838,-20.175 761.946,-43.75c183.437,-17.083 366.162,-50.783 546.579,-89.567c184.529,-39.566 298.108,-156.025 352.133,-342.725c58.959,-203.854 69.375,-411.545 66.338,-618.645c-17.796,-1237.35 -43.175,-2474.6 -63.504,-3712.02c-14.325,-867.342 -21.563,-1734.81 -37.329,-2602.22c-32.775,-1803.82 -69.234,-3607.57 -103.871,-5411.38c-4.863,-254.412 -5.867,-508.958 -13.613,-763.3c-3.312,-109.879 -38.125,-142.587 -148.575,-145.833c-127.1,-3.696 -254.408,0.279 -381.579,2.012c-520.471,6.946 -1041.03,10.854 -1561.27,23.438c-172.9,4.204 -345.92,25.766 -517.516,48.979c-224.463,30.379 -375.871,156.475 -468.25,365.379c-94.459,213.767 -151.75,437.571 -189.875,665.225c-70.679,421.946 -130.938,845.696 -154.95,1273.51c-1.963,34.655 -4.775,69.305 -7.604,103.871c-33.855,408.492 -33.855,408.142 -439.446,378.196c-126.875,-9.342 -254.271,-12.742 -380.779,-25.537c-122.259,-12.45 -155.384,-51.721 -150.834,-183.388c7.171,-208.037 17.796,-416.075 32.484,-623.767c66.404,-934.391 134.754,-1868.69 202.462,-2803.02c4.204,-57.655 6.808,-115.592 13.979,-172.884c25.084,-199.512 37.829,-216.666 232.638,-221.075c404.721,-9.112 809.671,-10.191 1214.41,-17.133c1711.44,-29.375 3422.88,-59.967 5134.33,-89.479c1029.15,-17.729 2058.38,-34.221 3087.61,-51.146c46.212,-0.8 92.445,-1.233 138.591,-0.071c64.967,1.579 110.038,34.792 126.234,96.492c14.616,55.625 23.075,113.283 28.87,170.641c98.734,977.867 196.53,1955.87 294.775,2933.89c19.671,195.588 44.846,390.692 59.167,586.65c10.554,143.088 -9.321,168.4 -139.758,185.917c-217.584,29.15 -435.9,54.462 -654.65,73.354c-104.325,9.042 -143.021,-30.313 -156.979,-139.396c-51.425,-401.333 -92.517,-804.183 -153.717,-1203.92c-38.421,-250.662 -101.858,-497.829 -162.117,-744.583c-21.616,-88.821 -68.283,-171.442 -100.833,-257.883c-106.042,-281.25 -317.708,-414.359 -608.871,-436.7c-57.658,-4.413 -115.521,-9.984 -173.25,-9.342c-705.5,8.179 -1411.02,17.45 -2116.46,26.475c-23.159,0.296 -46.229,1.962 -69.375,2.9c-81.388,3.471 -129.771,45.433 -135.417,126.596c-5.571,80.575 -6.804,161.825 -5.5,242.625c17.95,1133.31 34.721,2266.7 55.779,3399.95c16.996,913.491 39.429,1826.83 59.463,2740.24c-1.596,0.071 -3.109,0.142 -4.638,0.142" style="fill-rule:nonzero;"/><path d="M33915.9,85971.6c34.129,2023.73 68.575,4047.4 102.204,6071.12c3.262,197.275 25.746,391.354 64.166,585.138c53.525,269.966 202.55,423.037 479.738,469.983c344.479,58.317 689.829,71.475 1037.12,64.967c298.608,-5.646 319.375,-22.709 327.187,327.895c3.038,138.75 10.763,277.346 12.725,416.096c2.813,195.379 -23.141,226.196 -211.441,230.467c-370.017,8.387 -740.175,11.146 -1110.17,17.5c-1260.48,21.425 -2521.06,41.529 -3781.47,66.2c-380.209,7.446 -360.313,-5.783 -361.109,-359.013c-0.35,-150.329 -6.425,-300.779 -2.675,-451.025c3.196,-127.029 35.017,-157.412 169.775,-164.145c184.825,-9.255 370.017,-9.896 554.913,-17.275c255.071,-10.209 504.775,-53.109 751.508,-119.584c176.304,-47.516 277.275,-163.266 320.038,-330.871c51.579,-202.116 80.295,-408.054 75.587,-618.054c-13.312,-601.283 -26.542,-1202.48 -36.458,-1803.75c-15.188,-925.208 -25.034,-1850.55 -41.734,-2775.68c-31.754,-1757.6 -68.3,-3515.12 -99.829,-5272.79c-13.958,-774.809 -18.087,-1549.85 -31.683,-2324.72c-9.479,-541.3 22.708,-455.938 -475.921,-453.625c-555.187,2.533 -1110.31,12.95 -1665.5,20.833c-173.542,2.462 -344.846,17.933 -516.354,53.521c-213.108,44.204 -351.271,165.958 -436.338,357.571c-127.9,288.333 -189.533,594.912 -227.5,905.087c-54.758,447.413 -97.725,896.354 -144.966,1344.78c-18.454,175.346 -36.892,198.629 -213.404,188.942c-207.671,-11.354 -414.634,-34.654 -621.892,-53.525c-79.792,-7.309 -127.1,-47.746 -124.567,-132.746c1.963,-69.375 3.334,-138.817 8.475,-207.967c83.263,-1118.65 167.171,-2237.28 250.867,-3355.9c3.471,-46.162 4.983,-92.517 10.554,-138.454c14.463,-119.15 33.563,-143.229 148.667,-147.067c312.062,-10.416 624.271,-17.15 936.475,-22.637c1364.51,-23.942 2729.1,-46.738 4093.68,-70.242c1329.86,-22.937 2659.72,-46.233 3989.51,-69.517c208.109,-3.695 416.167,-9.983 624.205,-12.587c81.3,-1.021 126.233,43.25 135.345,124.846c41.163,367.708 86.667,734.966 123.63,1103.09c81.875,816.909 159.495,1634.25 238.854,2451.46c5.571,57.583 13.679,115.016 15.762,172.671c2.329,63.437 -23.141,117.987 -90.275,126.737c-240.591,31.321 -481.771,58.958 -723.091,84.133c-63.575,6.646 -113.125,-24.604 -122.605,-92.745c-22.275,-160.296 -42.675,-320.884 -60.991,-481.7c-49.754,-436.7 -107.984,-871.963 -210.5,-1300.06c-48.613,-202.983 -114.5,-399.6 -214.046,-584.425c-101.2,-188.004 -255.417,-294.616 -467.292,-315.383c-126.6,-12.446 -253.7,-30.017 -380.366,-28.575c-659.217,7.238 -1318.35,19.671 -1977.5,31.113c-45.938,0.779 -92.38,5.05 -137.655,13.229c-50.208,9.041 -81.6,44.562 -85,94.112c-5.575,80.434 -6.512,161.388 -5.208,242.05c23.663,1457.1 48.175,2914.2 72.046,4371.29c9.687,589.775 18.229,1179.55 27.275,1769.39c2.379,-0.067 4.846,-0.155 7.242,-0.155" style="fill-rule:nonzero;"/><path d="M58894.9,106622c-127.604,-271.704 -240.954,-511.146 -352.204,-751.529c-34.079,-73.559 -15.346,-134.255 58.004,-174.184c30.45,-16.496 61.196,-32.621 92.083,-48.387c638.175,-326.317 1275.76,-653.871 1915.23,-977.796c180.259,-91.3 187.5,-85.571 329.134,54.029c8.245,8.108 14.825,18.158 23.87,25.104c216.65,167.971 312.655,379.913 288.421,661.163c-9.708,112.708 -62.5,252.171 52.654,354.533c116.475,-40.575 169.93,-150.312 248.767,-230.904c243.996,-249.271 506.233,-473.367 811.2,-646.338c507.171,-287.62 1050.35,-353.733 1611.11,-236.979c474.325,98.663 840.35,371.234 1095.71,787.259c240.954,392.57 352.137,825.954 411.667,1277.28c65.262,494.929 56.216,992.62 64.391,1489.72c28.579,1734.6 53.821,3469.26 85.209,5203.83c3.979,219.029 27.708,438.804 58.458,656.025c49.042,347.012 133.75,428.541 488.921,468.75c171.737,19.462 346.579,10.208 519.758,17.796c112.258,4.929 147.571,34.512 151.613,144.254c8.541,231.108 10.054,462.446 11.858,693.712c0.662,83.334 -48.108,124.934 -129.617,129.479c-46.233,2.605 -92.45,5.505 -138.679,6.371c-1110.1,20.4 -2220.12,41.009 -3330.23,60.542c-291.942,5.137 -332.671,39.146 -329.929,-320.454c1.371,-173.384 -3.975,-346.788 -3.767,-520.259c0.088,-82.812 47.467,-127.083 128.696,-129.116c196.687,-5 392.796,-10.484 586.512,-52.084c280.538,-60.187 336.738,-120.587 382.446,-410.587c59.896,-379.775 38.563,-761.288 31.979,-1142.73c-16.491,-959.846 -30.675,-1919.71 -48.245,-2879.48c-17.221,-936.634 -38.921,-1873.12 -55.417,-2809.76c-3.75,-209.845 -36.525,-415 -85.208,-617.258c-24.096,-100.192 -65.4,-197.775 -110.242,-291.025c-123.333,-256.283 -333.333,-373.833 -615.592,-367.1c-188.229,4.55 -364.583,52.658 -532.412,137.796c-218.679,110.904 -411.892,257.083 -590.279,423.037c-212.03,197.33 -399.442,417.242 -585.363,639.255c-111.321,132.95 -153.421,274.375 -149.304,445.52c13.312,554.984 15.346,1110.24 24.808,1665.37c23.734,1387.65 50.504,2775.24 72.484,4162.9c3.695,232.362 23.591,462.104 65.9,689.758c52.154,280.954 118.558,351.7 404.237,390.971c170.921,23.525 346.058,15.992 519.238,23.667c138.02,6.146 171.579,31.108 175.779,156.25c7.379,219.546 9.55,439.375 7.45,659.062c-1.234,125.154 -31.754,151.334 -174.117,155.467c-242.758,7.154 -485.746,7.658 -728.592,12.429c-890.333,17.433 -1780.66,37.396 -2671.01,52.313c-317.846,5.275 -317.987,-0.159 -326.596,-326.98c-0.591,-23.145 -1.962,-46.354 -0.229,-69.358c13.021,-172.537 -72.621,-375.729 22.138,-510.071c105.033,-149.079 324.583,-44.775 490.241,-79.862c67.779,-14.321 136.859,-22.775 204.792,-37.029c288.7,-60.4 341.787,-107.138 387.154,-405.592c25.883,-170.571 32.467,-345.713 30.658,-518.663c-9.912,-948.35 -24.233,-1896.63 -38.695,-2844.91c-14.688,-959.863 -27.78,-1919.7 -48.542,-2879.41c-10.783,-497.034 -34.358,-993.788 -57.363,-1490.45c-6.145,-132.445 -62.5,-170.295 -177.883,-124.2c-182.062,72.55 -359.875,155.592 -573.054,248.838" style="fill-rule:nonzero;"/><path d="M51954.5,93183.3c-45.208,135.554 -20.679,274.946 -22.137,412.9c-1.3,127.166 0.658,254.408 -2.084,381.579c-1.733,78.992 -41.962,130.208 -124.216,137.221c-57.5,4.846 -115.454,5.208 -173.179,6.233c-1110.09,19.879 -2220.19,39.633 -3330.3,59.096c-46.213,0.8 -92.517,-0.067 -138.663,-2.171c-78.262,-3.625 -136.075,-38.054 -139.546,-121.821c-10.054,-242.483 -16.841,-485.175 -22.05,-727.796c-1.458,-65.675 37.675,-110.675 101.909,-117.9c126.162,-14.254 253.037,-22.5 379.862,-30.466c640.4,-40.434 586.65,-202.829 636.492,-618.559c48.471,-404.012 11.287,-808.875 5.871,-1213.18c-12.884,-971.425 -29.167,-1942.85 -47.313,-2914.2c-15.916,-855.625 -36.108,-1711.23 -54.479,-2566.84c-5.208,-244.513 -42.896,-483.942 -126.075,-714.046c-162.05,-448.575 -468.612,-607.292 -925.867,-488.942c-216.787,56.063 -407.466,161.321 -586.37,291.529c-368.63,268.3 -662.605,609.079 -941.755,965.209c-78.42,99.966 -84.287,208.404 -82.395,326.458c10.625,659.221 15.691,1318.51 26.404,1977.71c20.746,1272 44.912,2543.99 65.175,3816.06c3.904,243.558 22.846,485.245 63.646,725.037c52.883,311.267 109.529,362.271 413.35,421.229c183.941,35.663 369.062,20.038 553.454,31.321c79.133,4.846 129.479,40.138 134.621,124.567c1.37,23.071 3.766,46.146 3.541,69.216c-2.675,241.913 30.379,484.534 -12.883,725.696c-230.608,105.471 -475.4,52.154 -713.525,58.092c-936.425,23.367 -1873.12,37.692 -2809.76,54.983c-80.867,1.438 -161.821,1.438 -242.688,-0.8c-51.146,-1.371 -94.55,-28.787 -95.992,-80c-7.675,-265.346 -12.741,-530.816 -12.154,-796.233c0.142,-67.638 58.875,-91.721 120.938,-96.354c149.966,-11.217 300.071,-19.534 449.725,-33.196c446.612,-40.796 513.175,-134.479 541.525,-559.321c24.671,-368.492 16.2,-739.721 10.712,-1109.67c-28.733,-1919.63 -60.258,-3839.34 -93.108,-5758.96c-4.913,-287.846 -18.663,-575.888 -70.746,-864.079c-170.867,-22.571 -299.046,65.971 -431.354,129.341c-303.592,145.33 -284.129,152.775 -428.229,-149.966c-74.513,-156.529 -146.129,-314.446 -218.246,-472.154c-34.008,-74.217 -16.925,-133.959 55.329,-174.825c40.296,-22.796 81.163,-44.496 122.329,-65.538c607.5,-310.262 1214.98,-620.383 1822.62,-930.208c51.508,-26.25 105.033,-48.454 155.971,-75.663c59.029,-31.458 112.412,-21.771 157.05,22.709c106.475,105.991 208.696,216.233 315.608,321.704c54.963,54.25 64.079,121.091 65.746,190.746c3.992,161.891 3.558,323.854 8.975,485.675c1.371,42.241 -8.542,100.833 52.221,112.641c51.146,9.979 79.15,-35.679 110.767,-67.5c146.612,-147.571 285.866,-303.525 441.683,-440.679c380.796,-335.225 814.462,-565.608 1324.65,-637.012c740.021,-103.509 1643.3,129.408 2066.7,1156.98c201.388,488.716 270.833,1004.05 285.017,1526.11c20.033,739.946 22.133,1480.33 34.2,2220.41c20.487,1248.91 41.025,2497.83 65.904,3746.67c4.567,230.834 29.15,461.375 46.075,691.913c4.204,57.587 10.712,115.521 22.571,171.875c59.112,282.046 123.125,343.542 408.071,388.958c171.441,27.342 343.525,46.875 518.145,32.638c92.742,-7.604 185.692,-3.192 267.292,54.533c0.588,0.729 -9.046,-8.958 -9.046,-8.958" style="fill-rule:nonzero;"/><path d="M82349.1,88496.2c-42.834,5.434 -80.592,0.659 -108.371,15.055c-701.892,362.687 -1362.25,782.55 -1913.63,1359.01c-646.334,675.642 -805.484,1484.24 -661.734,2376.23c19.879,123.542 66.754,246.371 120.867,360.154c123.837,260.142 332.692,402.78 624.567,429.046c417.17,37.554 774.237,-89.841 1080.8,-370.087c326.25,-298.313 591.145,-648.646 854.391,-1000.94c75.088,-100.4 84.409,-208.696 82.238,-326.958c-14.392,-786.096 -22.275,-1572.28 -40.938,-2358.21c-3.837,-158.579 13.596,-322.345 -38.191,-483.3m1770.76,4803.54c164.704,-222.796 212.308,-414.133 281.025,-594.617c177.879,-466.72 54.183,-373.908 548.904,-398.283c166.809,-8.246 343.246,-56.146 506.288,33.629c18.296,166.371 -52.521,316.404 -90.559,471.717c-54.983,224.396 -116.387,447.554 -184.391,668.333c-72.413,235.088 -203.263,436.475 -362.05,625.646c-508.679,606.058 -1750.87,625.433 -2159.01,-354.375c-66.041,-158.492 -113.195,-324.879 -167.241,-482.208c-84.338,-9.913 -109.079,48.021 -142.792,89.621c-94.758,116.683 -181.721,240.241 -281.458,352.429c-656.184,738.004 -1478.3,1004.41 -2440.26,823.283c-446.546,-84.062 -812.779,-321.183 -1089.18,-689.742c-190.104,-253.47 -328.054,-533.212 -407.554,-837.308c-206.388,-789.929 -199.146,-1578.72 41.6,-2361.91c166.941,-543.196 463.816,-1005.14 875.866,-1394.24c405.159,-382.604 841.93,-725.054 1325.3,-1003.12c450.954,-259.391 908.646,-507.083 1364.38,-758.158c162.029,-89.271 326.3,-174.479 490.592,-259.638c77.325,-40.07 126.508,-93.454 125.571,-187.341c-5.138,-532.121 1.162,-1065.04 -77.967,-1593.11c-32.554,-217.658 -99.396,-427.45 -191.2,-628.612c-91.354,-200.154 -237.55,-343.021 -448.212,-406.821c-425.417,-128.771 -845.05,-106.633 -1253.17,72.917c-106.409,46.787 -202.259,113.625 -280.313,200.796c-131.946,147.291 -190.746,317.345 -128.542,511.72c38.559,120.588 87.671,238.213 138.592,354.321c79.221,180.4 154.238,361.025 184.463,557.934c73.941,480.47 -187.846,884.479 -661.738,985.904c-551.004,117.9 -942.933,-123.421 -1132.24,-566.492c-379.846,-888.733 -106.634,-2041.51 636.508,-2656.53c215.487,-178.317 451.233,-324.583 712.017,-425.417c711.004,-274.896 1441.7,-321.112 2181.35,-150.175c669.633,154.792 1161.6,551.563 1480.47,1159.79c206.667,394.029 311.996,818.283 369.359,1257.59c64.6,495.088 55.262,992.78 63.662,1489.88c30.592,1815.83 60.175,3631.58 89.984,5447.42c3.179,194.95 19.741,387.954 81.962,645.175" style="fill-rule:nonzero;"/><path d="M55931.2,108752c-0.088,-8.317 -0.088,-16.562 -0.154,-24.896c368.921,0 737.916,0.434 1106.84,-0.279c92.171,-0.225 184.463,-1.733 276.409,-7.308c64.67,-3.838 105.258,-41.3 109.879,-107.934c3.191,-45.85 3.471,-92.291 0.083,-138.091c-45.796,-612.484 -153.071,-1211.67 -386.075,-1783.56c-61.129,-149.966 -136.146,-291.82 -228.004,-425.779c-397.863,-580.887 -1124.57,-512.154 -1496.46,-109.375c-158.559,171.717 -277.567,367.55 -373.838,578.334c-168.487,368.92 -283.575,755.433 -359.096,1152.71c-47.308,248.833 -77.966,501.004 -111.612,752.237c-11.584,86.442 28.35,129.775 113.416,136.442c57.38,4.479 115.246,4.913 172.834,3.679c391.925,-8.246 783.854,-17.358 1175.78,-26.179m3167.68,560.033c-0,80.938 0.867,161.963 -0.142,242.917c-4.704,372.833 51.792,369.792 -382.237,377.45c-1168.47,20.554 -2337.03,37.188 -3505.5,56.146c-196.613,3.175 -393.3,8.246 -589.775,16.337c-179.025,7.309 -204.634,31.042 -202.534,200.588c2.379,196.704 5.85,393.821 20.904,589.775c59.755,776.042 192.775,1537.12 480.034,2265.35c97.862,248.175 212.1,487.983 359.671,710.779c102.708,155.175 219.754,298.246 367.254,413.558c388.229,303.388 853.3,313.596 1252.75,24.167c277.483,-201.025 477.566,-469.546 640.85,-766.058c156.754,-284.721 269.67,-588.696 362.55,-899.463c126.079,-421.421 221.216,-850.258 290.366,-1284.86c14.529,-91.217 33.925,-181.858 55.192,-271.771c15.05,-63.579 60.987,-95.192 125.658,-96.217c219.825,-3.387 439.671,-8.887 659.429,-7.379c102.934,0.729 136.58,44.359 138.021,154.375c0.5,34.654 -1.962,69.375 -4.341,104.029c-60.263,857.134 -195.313,1699.86 -484.513,2512.95c-136.287,383.246 -311.354,746.805 -539.292,1084.48c-143.087,211.962 -306.716,405.679 -490.954,582.97c-945.45,910.313 -2300.71,792.463 -3119.58,160.813c-335.067,-258.471 -596.267,-579.063 -809.896,-941.333c-320.225,-543.042 -527.917,-1129.41 -675.85,-1739.73c-139.462,-575.45 -213.975,-1160.88 -250.571,-1749.72c-62.729,-1008.02 -34.221,-2012.36 181.925,-3004.55c133.679,-613.504 334.2,-1202.69 628.263,-1758.68c196.025,-370.817 432,-713.109 743.837,-996.596c676.009,-614.517 1464.34,-807.659 2350.12,-605.263c369.063,84.359 684.167,275.467 961.375,530.884c301.717,278.075 530.242,610.333 717.013,973.02c348.662,677.155 534.079,1403.28 632.012,2153.15c41.892,320.813 89.846,642.292 87.971,967.879" style="fill-rule:nonzero;"/><path d="M113742,108751c-0.071,-8.82 -0.071,-17.725 -0.141,-26.545c438.941,-0 877.954,2.17 1316.84,-1.371c131.788,-1.025 163.767,-36.25 158.334,-168.925c-28.28,-698.854 -161.667,-1375.21 -450.521,-2015.76c-61.771,-137.012 -143.367,-263.454 -243.488,-377.308c-224.166,-254.846 -503.387,-352.5 -838.979,-307.95c-228.937,30.467 -413.104,139.479 -571.317,299.771c-147.779,149.671 -256.945,326.391 -346.425,515.333c-280.312,591.579 -418.837,1220.64 -489.879,1867.27c-4.983,45.712 -7.516,92.517 -3.679,138.229c4.046,49.55 33.854,88.542 84.046,94.688c68.437,8.387 138.246,10.279 207.396,8.979c392.587,-7.813 785.225,-17.434 1177.81,-26.409m3153.42,527.917c0,161.825 3.333,323.717 -1.217,485.313c-2.97,107.429 -37.691,146.929 -144.758,153.437c-230.762,13.888 -461.875,23.663 -693.004,27.204c-1017.64,15.904 -2035.43,28.492 -3053.09,43.404c-208.108,3.038 -416.233,8.384 -624.204,17.43c-133.904,5.712 -168.191,38.333 -168.625,163.837c-0.575,161.825 1.163,324.15 12.742,485.471c53.092,740.312 158.925,1471.06 406.025,2175.35c115.171,328.262 251.025,646.841 443.733,938.071c109.009,164.791 233.279,316.337 394.096,434.895c386.425,284.95 829.775,288.996 1224.24,7.605c259.408,-185.121 448.645,-432.292 607.062,-704.288c169.708,-291.3 288.996,-604.6 387.225,-925.921c135.346,-442.862 236.179,-893.75 306.563,-1351.49c12.308,-80.017 29.008,-159.359 46.441,-238.35c14.25,-64.671 60.05,-98.18 123.625,-99.392c231.2,-4.567 462.467,-9.046 693.646,-7.675c86.529,0.433 126.096,47.242 119.517,134.046c-75.313,995.225 -216.809,1977.36 -602.434,2907.76c-205.45,495.521 -482.933,944.671 -859.875,1332.4c-988.075,1016.43 -2505.14,886.425 -3380.5,62.292c-306.996,-288.992 -544.566,-628.263 -738.579,-999.792c-318.712,-610.104 -517.062,-1260.78 -638.296,-1935.69c-205.887,-1145.47 -252.604,-2298.32 -126.6,-3455.3c94.55,-867.691 306.634,-1705.73 695.384,-2492.55c206.233,-417.375 455.225,-806.196 799.479,-1125.21c680.262,-630.138 1477,-830.867 2375.87,-624.063c380.646,87.605 703.059,288.855 985.471,556.13c280.45,265.558 496.092,578.716 674.184,918.995c342.012,653.28 526.841,1354.96 633.541,2079.86c50.488,343.454 86.371,688.579 102.346,1036.23" style="fill-rule:nonzero;"/><path d="M40974.4,87355l-0,-35.937c449.808,-0 899.604,2.308 1349.39,-1.304c153.3,-1.234 178.613,-31.404 175.004,-186.629c-9.775,-417.188 -82.833,-825.609 -183.02,-1229.1c-89.205,-359.305 -205.959,-709.13 -411.963,-1021.49c-409.725,-621.304 -1136.01,-559.392 -1537.76,-115.017c-148.8,164.496 -259.775,352.863 -350.33,553.109c-274.029,605.745 -407.412,1246.88 -470.416,1904.86c-8.909,92.746 23.212,130.296 114.425,130.642c438.229,1.895 876.458,0.87 1314.67,0.87m2371.68,2164.43c98.458,-52.22 205.662,-46.145 307.225,-37.604c192.275,16.267 391.129,-57.725 577.254,40.209c33.925,184.687 4.413,368.995 -15.121,551.079c-74.375,691.108 -187.933,1375.21 -411.25,2036.6c-148.712,440.4 -340.121,859.966 -605.604,1243.85c-138.754,200.658 -294.5,385.921 -470.125,555.416c-950.521,917.467 -2345.92,798.455 -3175.42,120.867c-365.104,-298.175 -638.02,-668.037 -857.933,-1079.86c-318.717,-597 -521.925,-1234.74 -645.762,-1897.78c-224.534,-1202.56 -273.871,-2413.12 -130.071,-3628.41c99.825,-843.975 314.966,-1657.85 696.179,-2422.31c213.404,-427.883 473.75,-823.212 833.858,-1142.93c705.363,-626.234 1520.54,-802.884 2423.18,-554.775c460.071,126.458 823.7,411.387 1125.28,776.841c335.796,406.909 566.771,871.163 741.75,1365.17c249.063,703.404 366.392,1432.73 413.563,2174.32c16.196,253.838 15.329,508.75 18.296,763.317c1.025,81.667 -47.517,126.004 -130.571,127.533c-104.167,1.946 -208.333,2.534 -312.413,4.342c-1295.73,22.775 -2591.44,45.642 -3887.15,68.504c-354.325,6.288 -354.687,6.217 -345.279,375.783c23.3,920.138 161.825,1819.31 495.296,2682.08c108.733,281.321 239.304,551.787 417.396,797.083c116.529,160.675 249.133,305.554 419.846,409.375c334.2,203.125 675.779,217.154 1021.49,28.558c143.592,-78.333 265.192,-184.67 376.234,-304.166c239.425,-257.534 414.2,-554.984 548.887,-878.125c237.413,-569.513 373.7,-1166.3 479.463,-1771.18c23.87,-136.58 37.258,-274.896 91.508,-403.805" style="fill-rule:nonzero;"/><path d="M117410,106344c-163.783,-18.162 -279.808,67.638 -405.604,119.65c-74.654,30.817 -146.338,68.871 -221.063,99.533c-46.508,19.167 -98.591,11.009 -120.729,-34.495c-116.25,-238.717 -228.733,-479.325 -339.496,-720.646c-23.279,-50.692 14.184,-89.546 50.713,-117.254c36.458,-27.621 79.429,-47.155 120.591,-68.213c637.95,-326.529 1275.75,-653.508 1914.57,-978.437c166.733,-84.792 172.463,-81.596 300.067,39.929c41.808,39.862 77.396,86.808 121.875,123.196c154.446,126.37 221.287,282.466 202.85,485.016c-11.288,123.559 8.679,249.929 14.25,367.554c87.587,48.175 115.229,-16.787 151.321,-54.983c142.95,-151.179 275.241,-313.437 427.379,-454.429c348.887,-323.35 756.65,-529.079 1237.99,-565.538c318.296,-24.079 623.488,27.067 902.638,189.167c476.7,276.771 687.204,821.842 512.291,1345.12c-118.491,354.671 -353.662,596.787 -734.375,657.275c-394.895,62.708 -733.941,-40.883 -977.637,-378.904c-13.525,-18.75 -28.213,-37.413 -37.692,-58.246c-99.391,-218.892 -170.279,-238.925 -409.654,-90.558c-129.342,80.225 -228.662,194.512 -320.883,313.941c-248.196,321.321 -450.159,672.013 -653.717,1022c-62.587,107.708 -62.292,218.821 -60.417,334.846c12.884,774.737 24.096,1549.48 36.613,2324.29c15.4,959.721 32.121,1919.42 46.946,2879.2c4.116,266.059 6.075,532.05 47.675,795.8c7.221,45.642 9.754,92.221 18.941,137.43c66.838,327.691 167.255,439.095 499.355,482.57c285.887,37.467 576.025,43.4 864.358,60.467c80.592,4.775 161.825,-3.817 242.483,0c61.492,2.971 116.684,31.042 118.784,100.121c7.745,253.979 13.525,508.179 12.729,762.296c-0.209,62.654 -50.992,101.854 -116.096,106.7c-80.592,6.004 -161.458,9.408 -242.275,10.85c-1260.26,22.796 -2520.61,45.729 -3780.88,67.204c-397.067,6.737 -384.117,29.446 -384.184,-369.567c-0.071,-183.246 -31.825,-368.35 16.629,-550.346c164.863,-111.545 359.309,-37.987 534.446,-85.366c10.988,-2.967 22.934,-2.742 34.359,-4.2c431.629,-52.588 509.841,-122.604 531.612,-568.071c19.167,-392.275 15.038,-786.096 9.254,-1179.03c-29.008,-1954.29 -61.841,-3908.42 -93.679,-5862.62c-3.75,-230.313 -19.029,-459.342 -72.329,-683.229" style="fill-rule:nonzero;"/><path d="M58662.9,79090.4c2.308,-145.833 6.283,-271.633 46.212,-395.329c162.467,-503.908 619.583,-831.667 1127.75,-804.392c508.104,27.275 960.937,436.629 1041.82,958.192c61.841,399.15 -31.042,760.767 -323.942,1051.93c-325.729,323.717 -717.221,415.954 -1148.78,268.454c-434.825,-148.662 -668.263,-474.825 -734.534,-924.341c-8.312,-56.925 -6.579,-115.313 -8.52,-154.513" style="fill-rule:nonzero;"/></g></g></svg>